<svg xmlns="http://www.w3.org/2000/svg" viewBox="0 0 193.37 190.18"><defs><style>.cls-1{fill:#f0c890;}.cls-2{fill:#b28553;}.cls-3{fill:#f6d9b5;}.cls-4{fill:#dbad77;}.cls-5{fill:#606161;}.cls-6{fill:#353535;}.cls-7{fill:#f4c1da;}.cls-8{fill:#e5e5e5;}.cls-9{fill:#fff;}.cls-10{fill:#f0efef;}.cls-11{fill:#d0acd1;}.cls-12{fill:#a276a3;}.cls-13{fill:#b084b2;}.cls-14{fill:#231f20;}.cls-15{fill:#323034;}.cls-16{fill:#42323b;}.cls-17{fill:#baa0cc;}.cls-18{fill:#fde2db;}.cls-19{fill:#dcbab3;}.cls-20{fill:#9584ab;}.cls-21{fill:#382a1e;}.cls-22{fill:#cccccb;}.cls-23{fill:#bcbcbc;}.cls-24{fill:#a5a4a4;}</style></defs><g id="Layer_2" data-name="Layer 2"><g id="Layer_1-2" data-name="Layer 1"><polygon class="cls-1" points="7.16 58.09 7.16 117.77 91.51 63.66 93.1 4.77 7.16 58.09"/><polygon class="cls-2" points="7.16 58.09 0 52.52 0 112.2 7.16 117.77 7.16 58.09"/><polygon class="cls-3" points="0 52.52 86.74 0 93.1 4.77 7.16 58.09 0 52.52"/><polygon class="cls-4" points="7.16 106.63 114.59 179.84 193.37 117.77 91.51 52.52 7.16 106.63"/><polygon class="cls-2" points="7.16 106.63 7.16 117.77 114.59 190.18 114.59 179.84 7.16 106.63"/><polygon class="cls-2" points="193.37 117.77 193.37 128.11 114.59 190.18 114.59 179.84 193.37 117.77"/><polygon class="cls-5" points="11.94 85.42 85.14 40.58 183.02 102.65 115.38 155.97 11.94 85.42"/><polygon class="cls-6" points="11.94 85.42 11.94 102.27 115.38 169.49 115.38 153.58 11.94 85.42"/><polygon class="cls-7" points="115.38 153.58 183.02 102.65 183.02 117.77 115.38 169.49 115.38 153.58"/><polygon class="cls-8" points="22.28 75.81 41.52 87.72 41.52 92.31 22.28 80.39 22.28 75.81"/><polygon class="cls-9" points="22.28 75.81 45.19 62.07 63.52 72.15 41.52 87.72 22.28 75.81"/><polygon class="cls-10" points="41.52 87.72 41.52 92.31 63.52 76.73 63.52 72.15 41.52 87.72"/><polygon class="cls-8" points="54.11 55.7 71.94 66.67 71.94 70.98 53.85 59.78 54.11 55.7"/><polygon class="cls-9" points="54.11 55.7 75.33 42.97 92.31 52.31 71.94 66.74 54.11 55.7"/><polygon class="cls-10" points="71.94 66.74 71.94 70.98 92.31 56.55 92.31 52.31 71.94 66.74"/><polygon class="cls-11" points="37.4 104.24 110.61 53.31 190.18 100.26 116.18 159.15 37.4 104.24"/><polygon class="cls-12" points="37.4 104.24 37.4 121.75 116.18 173.47 116.18 155.97 37.4 104.24"/><polygon class="cls-13" points="116.18 155.97 190.18 100.26 190.18 116.18 116.18 173.47 116.18 155.97"/><path class="cls-8" d="M48.59,117.27q-2.85-7.22-5.69-14.45a39.53,39.53,0,0,0,4.4-1.93,38.67,38.67,0,0,0,5.13-3.13q3.84,7,7.7,14.1c-1.88.68-3.91,1.5-6,2.51S50.24,116.31,48.59,117.27Z"/><path class="cls-14" d="M46.34,102.77a1.35,1.35,0,0,0-.89.79,1.12,1.12,0,0,0,.13,1.19,1.07,1.07,0,0,0,1.29,0,1.19,1.19,0,0,0,.45-1.24,1,1,0,0,0-.41-.63.72.72,0,0,0-.71,0c-.12.06,0,.23.1.18.37-.18.72.16.81.5a1,1,0,0,1-.31,1,1.19,1.19,0,0,1-.51.2.65.65,0,0,1-.56-.11,1,1,0,0,1-.11-1,1.15,1.15,0,0,1,.77-.7.1.1,0,0,0,0-.2Z"/><path class="cls-14" d="M47,103.07a3.14,3.14,0,0,0,1.69-.8l-.16,0a4.07,4.07,0,0,0,1,1.31c.1.09.24,0,.15-.14a4.07,4.07,0,0,1-1-1.27c0-.06-.11-.06-.15,0a2.94,2.94,0,0,1-1.6.75c-.13,0-.07.22.05.2Z"/><path class="cls-14" d="M50,104.73a4.2,4.2,0,0,0-.64-1.2l0,.14,1-.6.47-.3.22-.14c.06,0,.18-.14.25-.14l-.07,0c.08.06.13.21.18.29l.17.3.35.61,0-.14a16,16,0,0,0-2,1.29c-.1.08,0,.26.11.18a13.92,13.92,0,0,1,2-1.29.11.11,0,0,0,0-.14l-.51-.89a1.69,1.69,0,0,0-.23-.36c-.11-.08-.24,0-.33.09l-1.74,1.09a.1.1,0,0,0,0,.14,4.21,4.21,0,0,1,.63,1.16c0,.12.24.07.19-.06Z"/><path class="cls-14" d="M49.59,104.39A6.64,6.64,0,0,0,48,105c-.12.06,0,.23.1.17a6.28,6.28,0,0,1,1.59-.57c.13,0,.07-.22-.06-.2Z"/><path class="cls-14" d="M48.51,105.81a2.87,2.87,0,0,0-.33-.9c-.06-.11-.13-.28-.28-.26s-.22.17-.31.25A5.26,5.26,0,0,1,46,106a.11.11,0,0,0,0,.16l.56.62c.08.08.15.19.26.22s.2,0,.29-.1l1.41-1c.11-.08,0-.25-.1-.18l-1.22.84a1.73,1.73,0,0,1-.28.19c-.1,0-.21-.15-.28-.22l-.5-.55,0,.16a5.66,5.66,0,0,0,1.37-.89l.29-.28s.1-.13.13-.13.09.15.1.17a3.06,3.06,0,0,1,.3.83c0,.13.22.08.19,0Z"/><path class="cls-14" d="M48.59,105a5.76,5.76,0,0,0,1,1.88c.08.1.22,0,.14-.15a5.51,5.51,0,0,1-1-1.78c0-.13-.24-.08-.2,0Z"/><path class="cls-14" d="M48.31,109l-.26-.85a.7.7,0,0,1-.07-.22s.12-.09.16-.11l.37-.22,1.57-.91.74-.42a7,7,0,0,1,.79-.45c.07,0,.2-.1.27,0s.07.12.09.15a3.28,3.28,0,0,0,.2.31,3.93,3.93,0,0,0,.5.58l0-.16L48.52,109a.1.1,0,0,0,.1.18l4.17-2.36a.09.09,0,0,0,0-.15,3.87,3.87,0,0,1-.62-.78c-.11-.17-.18-.4-.42-.36a1,1,0,0,0-.34.16L51,106l-.95.54-1.9,1.11c-.17.1-.38.15-.34.38a10.22,10.22,0,0,0,.34,1.07.1.1,0,0,0,.19,0Z"/><path class="cls-14" d="M49.72,108.63a4,4,0,0,0,.49,1.05c.07.11.25,0,.18-.1a3.45,3.45,0,0,1-.47-1c0-.12-.24-.07-.2.06Z"/><path class="cls-14" d="M49.48,110.3c.65-.31,1.28-.63,1.91-1l-.15-.11a5.73,5.73,0,0,0-.37,2l.15-.08a10.7,10.7,0,0,1-1.94-1.25c-.1-.08-.25.06-.14.14a10.31,10.31,0,0,0,2,1.28.1.1,0,0,0,.15-.09,5.5,5.5,0,0,1,.37-2c0-.08-.08-.15-.15-.11-.63.35-1.27.67-1.92,1-.12.06,0,.23.11.18Z"/><path class="cls-14" d="M53.77,108.42a7.67,7.67,0,0,0,1.15-.36.11.11,0,0,0,.07-.13.1.1,0,0,0-.12-.07,7.79,7.79,0,0,1-1.16.36c-.13,0-.07.23.06.2Z"/><path class="cls-14" d="M54.15,108.83l1.2-.35a.1.1,0,0,0-.06-.19l-1.2.35a.1.1,0,0,0,.06.19Z"/><path class="cls-14" d="M54.4,109.41l1.88-.55a.1.1,0,1,0-.05-.19l-1.88.55a.1.1,0,0,0,0,.19Z"/><path class="cls-14" d="M54.66,109.68l.6-.17a.1.1,0,0,0-.06-.2l-.6.18a.09.09,0,0,0-.07.12.1.1,0,0,0,.13.07Z"/><path class="cls-14" d="M51.93,102.28a1.48,1.48,0,0,1,1.85.71,2,2,0,0,1-.25,2.15c-.08.1.1.21.18.1a2.21,2.21,0,0,0,.22-2.4,1.67,1.67,0,0,0-2-.75c-.12,0-.07.24,0,.19Z"/><path class="cls-14" d="M52.94,104.92c.09.34.19.67.31,1a.11.11,0,0,0,.15.06,5.79,5.79,0,0,1,1-.45c.12,0,.07-.24-.06-.2a8,8,0,0,0-1,.47l.15.06q-.16-.49-.3-1a.1.1,0,0,0-.2,0Z"/><path class="cls-14" d="M51.78,111.88a4.71,4.71,0,0,1-2.06.34,3,3,0,0,1-1.56-.7,5.53,5.53,0,0,1-1.07-1.24,3.48,3.48,0,0,1-.69-1.86.11.11,0,0,0-.21,0,3.56,3.56,0,0,0,.68,1.89,5.79,5.79,0,0,0,1.21,1.4,3.19,3.19,0,0,0,1.6.71,4.79,4.79,0,0,0,2.15-.34c.13,0,.07-.24,0-.2Z"/><path class="cls-14" d="M46.05,108a2.25,2.25,0,0,0,.69-.31l-.15-.06a3.48,3.48,0,0,0,.29.82.11.11,0,0,0,.14,0,.11.11,0,0,0,0-.14,3.75,3.75,0,0,1-.28-.77.1.1,0,0,0-.15-.07,1.9,1.9,0,0,1-.63.29.1.1,0,0,0,0,.2Z"/><path class="cls-10" d="M69,119.47l-15.63-5.39,5.37-12.66,16.87,7.07S69.81,113,69,119.47Z"/><path class="cls-14" d="M59,113.15a8.17,8.17,0,0,1-2.48-.69l0,.09a7.6,7.6,0,0,1,.69-2.46l-.14,0a13.14,13.14,0,0,0,2.52.86l-.06-.15a11,11,0,0,0-.76,2.08.1.1,0,0,0,.2,0,11.34,11.34,0,0,1,.73-2,.1.1,0,0,0-.06-.15,14.72,14.72,0,0,1-2.47-.85.09.09,0,0,0-.13,0,7.91,7.91,0,0,0-.73,2.56.12.12,0,0,0,.05.09,8.75,8.75,0,0,0,2.59.71c.13,0,.13-.19,0-.2Z"/><path class="cls-14" d="M60.66,108.27a7.81,7.81,0,0,1-1.93-.81l0,.13a8.77,8.77,0,0,0,1.09-2.16c0-.07,0-.24.14-.25s.23.14.28.17l.55.32c.4.22.8.42,1.21.61l0-.14a16.4,16.4,0,0,0-1.36,2.91c0,.12.16.17.2,0a16.87,16.87,0,0,1,1.33-2.86.09.09,0,0,0,0-.13c-.46-.21-.9-.44-1.33-.68l-.65-.39c-.12-.07-.24-.14-.35,0a1.69,1.69,0,0,0-.21.54c-.09.23-.18.45-.28.66a8.78,8.78,0,0,1-.73,1.26.1.1,0,0,0,0,.14,8,8,0,0,0,2,.84.1.1,0,0,0,.06-.2Z"/><path class="cls-14" d="M62.56,114.15l-1.1-.38-.57-.2c-.12,0-.24-.07-.2-.22s.07-.18.11-.27l.85-2.24-.15.06,2.22,1,0-.12a15,15,0,0,1-.82,2.14c0,.12.12.22.18.1a14.75,14.75,0,0,0,.83-2.19.09.09,0,0,0,0-.11l-2.23-1a.1.1,0,0,0-.14.06l-.5,1.3-.24.63a3.77,3.77,0,0,0-.23.64c-.09.38.44.45.69.54l1.33.46c.12,0,.18-.16.05-.2Z"/><path class="cls-14" d="M64.89,109.62a9.94,9.94,0,0,1-2.5-.72l0,.12,1-3.08-.15.06,2.51,1.09.13.06c.08,0,.08,0,0,.1l-.15.31-.28.62L65,109.46c0,.12.12.22.18.1l.66-1.45.32-.69c.06-.12.16-.27,0-.38a1.19,1.19,0,0,0-.25-.13l-.34-.14-.72-.32-1.45-.62a.1.1,0,0,0-.15.06l-1,3.07a.11.11,0,0,0,0,.12,9.75,9.75,0,0,0,2.54.74c.13,0,.19-.18.06-.2Z"/><path class="cls-14" d="M66.66,115.39a6.53,6.53,0,0,1-2-.71l0,.14c.36-.78.68-1.59,1-2.4l-.12.07c.81.2,1.62.42,2.42.66l-.07-.12-.72,1.78c0,.12.15.17.2,0l.71-1.78a.09.09,0,0,0-.07-.12c-.8-.24-1.61-.46-2.42-.67a.11.11,0,0,0-.12.08c-.28.79-.59,1.58-.94,2.35a.1.1,0,0,0,0,.14,7.17,7.17,0,0,0,2,.73c.13,0,.18-.17,0-.2Z"/><path class="cls-14" d="M69.28,110.15l-1-.29-.52-.15-.25-.07c-.05,0-.22,0-.24-.08s.06-.14.08-.18.08-.15.11-.22l.19-.43c.12-.31.23-.62.32-.94l-.12.07,2.26.52-.07-.13c-.19.7-.41,1.39-.64,2.07,0,.12.16.18.2.05.23-.68.44-1.37.63-2.06a.09.09,0,0,0-.07-.13l-2.26-.52a.1.1,0,0,0-.12.08,9.53,9.53,0,0,1-.38,1.06c-.07.17-.15.34-.23.5s-.17.25-.09.37.28.14.4.17l.57.17,1.17.34a.1.1,0,0,0,.06-.2Z"/><path class="cls-14" d="M57.4,112.11a5.11,5.11,0,0,1-.15-1.1l-.17.07a6,6,0,0,1,.42.57.11.11,0,0,0,.19,0l.1-.28-.12.07c.08,0,.13.12.18.19a.87.87,0,0,0,.21.22.31.31,0,0,0,.46-.13c0-.12-.16-.17-.2,0s-.07,0-.1,0a.28.28,0,0,1-.16-.12c-.1-.13-.17-.27-.34-.33s-.1,0-.12.07l-.11.28.19,0a5.41,5.41,0,0,0-.46-.61c0-.07-.17,0-.17.07a5.07,5.07,0,0,0,.16,1.16c0,.12.22.07.19-.06Z"/><path class="cls-14" d="M60,107.31a.59.59,0,0,1,0-.37l-.07.07s0,0,0,.08l0,.08.11.24.21.45.41.91c0,.09.18,0,.19-.06a7.67,7.67,0,0,0-.21-2l-.15.12a.26.26,0,0,0,.36-.15.61.61,0,0,1,.11-.21.25.25,0,0,1,.25,0c.12,0,.18-.16,0-.2a.51.51,0,0,0-.4,0,.47.47,0,0,0-.13.15s-.07.25-.13.21a.1.1,0,0,0-.15.12,8.11,8.11,0,0,1,.2,2l.19,0-.5-1.07-.23-.52c-.06-.13-.11-.28-.28-.25s-.06,0-.07.07a.73.73,0,0,0,.07.52c.06.11.23,0,.17-.1Z"/><path class="cls-14" d="M64.54,108.11l-.33-.31a.11.11,0,0,0-.16,0,1.18,1.18,0,0,0-.16.49.78.78,0,0,1-.15.44l.16,0a4.71,4.71,0,0,1-.45-.65.11.11,0,0,0-.19,0l-.14.37a.09.09,0,0,0,.07.12.11.11,0,0,0,.13-.07l.14-.36-.19,0a6.22,6.22,0,0,0,.45.65s.11.08.16,0a.89.89,0,0,0,.2-.49,1,1,0,0,1,.15-.49l-.16,0,.32.32a.11.11,0,0,0,.15-.15Z"/><path class="cls-14" d="M61.75,113.45l.16-.16.07-.07s0,0,0,0h0l0,0c.1.11.23,0,.33,0a4.19,4.19,0,0,0,.62-.57c.08-.1-.06-.24-.15-.15a4,4,0,0,1-.6.57s-.06,0-.06,0,0,0,0,0,0,0,0,0a.19.19,0,0,0-.16-.06.35.35,0,0,0-.17.12l-.17.17a.1.1,0,0,0,.15.14Z"/><path class="cls-14" d="M67,113.65c-.13-.12-.25-.23-.37-.36a.11.11,0,0,0-.18.07l-.06.74a.25.25,0,0,1,0,.08h0a.34.34,0,0,1-.12-.06A1.7,1.7,0,0,0,66,114a.31.31,0,0,0-.46.19c-.08.22-.13.47-.2.7l.13-.07-.11,0c-.13,0-.18.16-.06.2l.11,0a.11.11,0,0,0,.13-.08l.1-.35a3.58,3.58,0,0,1,.09-.35c.08-.22.35.08.45.14a.29.29,0,0,0,.27,0c.1,0,.11-.15.12-.24l.07-.76-.18.07a4.27,4.27,0,0,0,.38.36c.1.08.24-.06.14-.14Z"/><path class="cls-14" d="M68.8,109.29l-.13-.2a.76.76,0,0,0-.13-.17c-.11-.09-.23,0-.29.09a.83.83,0,0,0,.14.81.09.09,0,0,0,.11,0,3.84,3.84,0,0,0,1-.58l.45-.36.23-.19s.21-.2.27-.16.21-.11.1-.18-.36.08-.49.18l-.51.41a4.07,4.07,0,0,1-1.1.69l.11,0a.88.88,0,0,1-.17-.49s0-.12,0-.13v0l0,.07.16.25c.07.1.25,0,.17-.11Z"/><path class="cls-9" d="M66,112.56,54.92,100.28a20.38,20.38,0,0,0,4.5-2.13,20.12,20.12,0,0,0,5-4.52l12.66,12.52c-2.12,1.12-4.27,2.33-6.47,3.61C69,110.69,67.48,111.62,66,112.56Z"/><path class="cls-14" d="M74.21,105.62a5,5,0,0,0-2.72,1.58c-.08.1.1.2.18.1a4.85,4.85,0,0,1,2.59-1.49c.12,0,.07-.23-.05-.19Z"/><path class="cls-14" d="M72.59,104.42a2.17,2.17,0,0,0-1.53.56,7,7,0,0,0-.56.66,1.31,1.31,0,0,1-.86.48,2.85,2.85,0,0,0-1.41.88,6,6,0,0,1-1.93,1.12c-.12,0-.07.24,0,.2a6.54,6.54,0,0,0,1.67-.89c.5-.38.92-1,1.57-1.1a1.67,1.67,0,0,0,.75-.25,2.84,2.84,0,0,0,.5-.54,2.09,2.09,0,0,1,1.75-.92c.13,0,.13-.19,0-.2Z"/><path class="cls-14" d="M71.66,103.39c-.62.26-1.23.57-1.84.87s-1.29.61-1.9,1a2.58,2.58,0,0,0-.6.49c-.19.24-.27.55-.54.72s-.86.23-1.14.62c-.08.11.1.21.17.1.27-.37.83-.34,1.17-.61a2.42,2.42,0,0,0,.4-.55,1.86,1.86,0,0,1,.72-.64c.56-.31,1.15-.58,1.72-.87s1.25-.63,1.9-.9c.11,0,.06-.25-.06-.2Z"/><path class="cls-14" d="M67.49,101.84a4.45,4.45,0,0,0-.88-.67c-.16-.1-.33-.19-.5-.28l-.27-.14a.47.47,0,0,1-.12-.07l-.06,0a.23.23,0,0,1,.06-.12,5.24,5.24,0,0,1,.44-.5l.44-.49c.3-.34.61-.67.92-1l-.16,0c.27.36.54.71.83,1l.47.54.23.25c.07.08.22.16.14.26a3.08,3.08,0,0,1-.5.45c-.17.16-.35.31-.54.46-.38.31-.77.6-1.17.89-.1.07,0,.25.11.17.41-.29.81-.6,1.21-.92l.62-.53a2.25,2.25,0,0,0,.5-.47c.09-.16-.05-.27-.15-.37s-.36-.39-.53-.59c-.37-.41-.71-.85-1-1.29,0,0-.11-.08-.15,0-.36.38-.71.77-1,1.15-.17.18-.33.37-.49.55s-.36.32-.41.5.08.21.19.27l.6.32a4.67,4.67,0,0,1,1.12.8c.1.09.24,0,.15-.14Z"/><path class="cls-14" d="M61.47,102.91a6.75,6.75,0,0,1-1.69-1.64v.12c.5-.48,1-1,1.56-1.4h-.15L63,102v-.15a18.39,18.39,0,0,1-1.52,1.41c-.11.08,0,.23.14.14.53-.44,1-.91,1.53-1.4a.12.12,0,0,0,0-.15l-1.79-2a.12.12,0,0,0-.15,0c-.53.45-1,.92-1.56,1.4,0,0,0,.09,0,.12a7.15,7.15,0,0,0,1.75,1.72c.11.07.21-.1.11-.18Z"/><path class="cls-14" d="M65.86,98.86a1.59,1.59,0,0,0-.75,0l-.81.2a1.84,1.84,0,0,0-1.09.59c-.08.1.1.2.17.1a1.78,1.78,0,0,1,1-.51l.67-.16a1.3,1.3,0,0,1,.73,0,.1.1,0,0,0,.06-.2Z"/><path class="cls-14" d="M63.57,100.13l-.4.11a1.87,1.87,0,0,1-.32.08.27.27,0,0,1-.23,0,.06.06,0,0,1,0,0s0-.06,0-.08l.09-.14a4.15,4.15,0,0,1,1-1c.1-.08,0-.25-.11-.18a4.45,4.45,0,0,0-.94.9l-.18.25a.37.37,0,0,0-.1.3c.06.19.3.22.46.2a1.87,1.87,0,0,0,.34-.08l.41-.12a.1.1,0,1,0,0-.19Z"/><path class="cls-14" d="M62.76,103.88a4.48,4.48,0,0,1,1.05-.78c.12-.06,0-.24-.1-.18a4.87,4.87,0,0,0-1.09.82c-.1.09.05.24.14.14Z"/><path class="cls-14" d="M63.15,104.17l1.22-.59c.12-.06,0-.24-.1-.18L63,104c-.11,0,0,.23.11.17Z"/><path class="cls-14" d="M63.74,104.75l.64-.26a.11.11,0,0,0,.07-.13.1.1,0,0,0-.12-.07l-.64.27s-.09.06-.07.12a.09.09,0,0,0,.12.07Z"/><path class="cls-14" d="M60.11,98.42a15,15,0,0,0,1.49-1.14c.1-.09,0-.23-.14-.15A15.46,15.46,0,0,1,60,98.24c-.11.07,0,.25.1.18Z"/><polygon class="cls-15" points="104.6 82.17 151.18 107.55 107.37 78.66 104.6 82.17"/><polygon class="cls-16" points="108.44 79.3 107.44 72.1 149.97 102.3 151.18 107.55 108.44 79.3"/><path class="cls-16" d="M107.72,65.59l48.72,22.24L114.18,77.46,107,73.19Z"/><polygon class="cls-17" points="82.75 72.97 84.2 56.47 89.41 52.32 86.85 67.68 82.75 72.97"/><ellipse class="cls-18" cx="77.33" cy="57.41" rx="8.28" ry="9.77" transform="translate(-11.63 94.33) rotate(-59.13)"/><polygon class="cls-19" points="94.56 56.35 118.17 62.48 113.53 64.84 96.81 58.85 94.56 56.35"/><polygon class="cls-17" points="85.64 66.96 89.41 52.32 109.36 65.11 108.2 79.16 85.64 66.96"/><polygon class="cls-20" points="86.65 67.57 82.75 72.97 105.65 82.79 108.2 79.16 86.65 67.57"/><path class="cls-18" d="M87.56,75.25,67.1,78.49,63.45,73.3l3.82-10.74L69,65.14q-.42,3.8-.86,7.6l20.65-2.51Z"/><polygon class="cls-15" points="110.31 74.42 117.48 79.43 151.98 89.72 156.74 87.92 110.31 74.42"/><polygon class="cls-18" points="147.74 100.58 147.38 104.98 151.18 107.55 150.56 102.66 147.74 100.58"/><polyline class="cls-19" points="147.06 105.36 147.38 104.98 151.18 107.55 147.17 105.43"/><path class="cls-19" d="M86,63.84,88,57.69"/><path class="cls-21" d="M67.91,47.94c-.88,1.69-2.3,4.33-1.69,7.7a10.5,10.5,0,0,0,5.9,7.65A31.16,31.16,0,0,0,78,64.44a23.85,23.85,0,0,1,8.4,3.13c2.06,1.25,4,2.83,6.27,3.55s5.22.29,6.47-1.78a8,8,0,0,0,.77-2.15c.25-1,.51-2,.76-3a5.3,5.3,0,0,0,.2-2.67c-.4-1.47-2-2.31-2.72-3.63s-.64-3-1.42-4.35-2.14-2-3.27-2.89a47.72,47.72,0,0,1-3.81-4.22c-3.43-3.58-8.34-4.05-9.88-4.23-2.4-.28-5.1-.59-7.74,1A10.92,10.92,0,0,0,67.91,47.94Z"/><path class="cls-18" d="M155.54,91.67l4.38-1.8-3.45-2L152,89.72Z"/><path class="cls-19" d="M156.47,87.88l.33-.37,3.12,2.36L156.58,88"/><path class="cls-22" d="M68.44,109.66l16.21,9.15-.25-18.7Z"/><path class="cls-23" d="M81.7,109,78,106.15A.69.69,0,0,1,78,105l7.06-4.66a.68.68,0,0,1,.79,0l3.75,2.77a.69.69,0,0,1,0,1.13L82.5,109A.68.68,0,0,1,81.7,109Z"/><polygon class="cls-24" points="108.02 102.8 84.65 118.81 84.34 94.99 108.35 81.4 108.02 102.8"/><path class="cls-22" d="M97.08,98.75a.74.74,0,0,1-.33-.54,1,1,0,0,1,.1-.39.62.62,0,0,1,.09-.12.83.83,0,0,1,.14,1Z"/><path class="cls-22" d="M98.62,98.84c-.52-.26-.81-.21-1-.12a3.65,3.65,0,0,1-.36.24c-.25.12-.36.07-.51.14a1.14,1.14,0,0,0-.46,1.09,1.27,1.27,0,0,0,.5.89,1,1,0,0,0,1.09.14,1,1,0,0,1,.28-.17.79.79,0,0,1,.28,0,.94.94,0,0,0,.72-.58,1,1,0,0,0,0-.79.4.4,0,0,1-.61-.08.53.53,0,0,1,0-.68"/></g></g></svg>