<svg xmlns="http://www.w3.org/2000/svg" viewBox="0 0 193.37 190.18"><defs><style>.cls-1{fill:#f0c890;}.cls-2{fill:#b28553;}.cls-3{fill:#f6d9b5;}.cls-4{fill:#dbad77;}.cls-5{fill:#606161;}.cls-6{fill:#353535;}.cls-7{fill:#f4c1da;}.cls-8{fill:#e5e5e5;}.cls-9{fill:#fff;}.cls-10{fill:#f0efef;}.cls-11{fill:#d0acd1;}.cls-12{fill:#a276a3;}.cls-13{fill:#b084b2;}.cls-14{fill:#231f20;}.cls-15{fill:#cccccb;}.cls-16{fill:#bcbcbc;}.cls-17{fill:#a5a4a4;}.cls-18{fill:#dcbab3;}.cls-19{fill:#fde2db;}.cls-20{fill:#baa0cc;}.cls-21{fill:#9584ab;}.cls-22{fill:#090909;}.cls-23{fill:#cdb1ac;}.cls-24,.cls-26{fill:none;stroke-miterlimit:10;}.cls-24{stroke:#090909;stroke-width:0.4px;}.cls-25{fill:#382a1e;}.cls-26{stroke:#b49793;stroke-width:0.07px;}</style></defs><g id="Layer_2" data-name="Layer 2"><g id="Layer_1-2" data-name="Layer 1"><polygon class="cls-1" points="7.16 58.09 7.16 117.77 91.51 63.66 93.1 4.77 7.16 58.09"/><polygon class="cls-2" points="7.16 58.09 0 52.52 0 112.2 7.16 117.77 7.16 58.09"/><polygon class="cls-3" points="0 52.52 86.74 0 93.1 4.77 7.16 58.09 0 52.52"/><polygon class="cls-4" points="7.16 106.63 114.59 179.84 193.37 117.77 91.51 52.52 7.16 106.63"/><polygon class="cls-2" points="7.16 106.63 7.16 117.77 114.59 190.18 114.59 179.84 7.16 106.63"/><polygon class="cls-2" points="193.37 117.77 193.37 128.11 114.59 190.18 114.59 179.84 193.37 117.77"/><polygon class="cls-5" points="11.94 85.42 85.14 40.58 183.02 102.65 115.38 155.97 11.94 85.42"/><polygon class="cls-6" points="11.94 85.42 11.94 102.27 115.38 169.49 115.38 153.58 11.94 85.42"/><polygon class="cls-7" points="115.38 153.58 183.02 102.65 183.02 117.77 115.38 169.49 115.38 153.58"/><polygon class="cls-8" points="22.28 75.81 41.52 87.72 41.52 92.31 22.28 80.39 22.28 75.81"/><polygon class="cls-9" points="22.28 75.81 45.19 62.07 63.52 72.15 41.52 87.72 22.28 75.81"/><polygon class="cls-10" points="41.52 87.72 41.52 92.31 63.52 76.73 63.52 72.15 41.52 87.72"/><polygon class="cls-8" points="54.11 55.7 71.94 66.67 71.94 70.98 53.85 59.78 54.11 55.7"/><polygon class="cls-9" points="54.11 55.7 75.33 42.97 92.31 52.31 71.94 66.74 54.11 55.7"/><polygon class="cls-10" points="71.94 66.74 71.94 70.98 92.31 56.55 92.31 52.31 71.94 66.74"/><polygon class="cls-11" points="37.4 104.24 110.61 53.31 190.18 100.26 116.18 159.15 37.4 104.24"/><polygon class="cls-12" points="37.4 104.24 37.4 121.75 116.18 173.47 116.18 155.97 37.4 104.24"/><polygon class="cls-13" points="116.18 155.97 190.18 100.26 190.18 116.18 116.18 173.47 116.18 155.97"/><path class="cls-8" d="M67.36,112.67q-.73-8-1.46-16A43.57,43.57,0,0,0,70.84,96a41,41,0,0,0,6-1.63l3.57,16.26c-2.07.13-4.33.36-6.74.74S69.28,112.18,67.36,112.67Z"/><path class="cls-14" d="M69.33,97.59a1.37,1.37,0,0,0-1.12.53,1,1,0,0,0,1.12,1.55,1.24,1.24,0,0,0,.77-1.1,1,1,0,0,0-.23-.74.76.76,0,0,0-.69-.26c-.14,0-.08.23,0,.21a.54.54,0,0,1,.5.2.79.79,0,0,1,.16.54,1.06,1.06,0,0,1-.57.93,1.15,1.15,0,0,1-.58.07.68.68,0,0,1-.53-.24.92.92,0,0,1,.13-1,1.18,1.18,0,0,1,1-.49.11.11,0,1,0,0-.21Z"/><path class="cls-14" d="M69.91,98.08a3.24,3.24,0,0,0,1.94-.31l-.16-.06a4.26,4.26,0,0,0,.59,1.58c.07.12.26,0,.18-.1a4,4,0,0,1-.56-1.54.11.11,0,0,0-.16-.06,3,3,0,0,1-1.77.29c-.14,0-.19.18-.06.2Z"/><path class="cls-14" d="M72.38,100.59a4.44,4.44,0,0,0-.3-1.39l-.07.13,1.8-.51.2-.06.13,0s.09,0,.06,0,0,.06,0,.09l0,.1.06.23.23.95.07-.13a14.3,14.3,0,0,0-2.4.69c-.12,0-.07.25.06.2a14.3,14.3,0,0,1,2.4-.69.11.11,0,0,0,.07-.13L74.48,99l-.07-.25a.28.28,0,0,0-.06-.16c-.09-.1-.23,0-.34,0L72,99.13a.1.1,0,0,0-.07.13,4.28,4.28,0,0,1,.29,1.33.11.11,0,0,0,.21,0Z"/><path class="cls-14" d="M72.1,100.14a6.87,6.87,0,0,0-1.81.12c-.13,0-.07.23.06.2a6.82,6.82,0,0,1,1.75-.11c.13,0,.13-.2,0-.21Z"/><path class="cls-14" d="M70.61,101.23a3.07,3.07,0,0,0-.07-1c0-.12-.06-.3-.2-.32s-.27.09-.38.15a5.67,5.67,0,0,1-1.87.63c-.08,0-.09.1-.07.16l.4.8a.56.56,0,0,0,.17.26.35.35,0,0,0,.3,0l1.71-.56a.1.1,0,0,0-.06-.2l-1.47.48-.19.06s-.13.06-.17,0-.06-.09-.08-.12a1.42,1.42,0,0,1-.08-.18l-.34-.69-.07.15a5.42,5.42,0,0,0,1.62-.49l.37-.19s.15-.1.17-.09a.9.9,0,0,1,0,.19,2.59,2.59,0,0,1,.06.92c0,.14.2.14.21,0Z"/><path class="cls-14" d="M70.94,100.42a5.94,5.94,0,0,0,.47,2.16c.06.13.24,0,.19-.1a5.65,5.65,0,0,1-.45-2.06c0-.14-.22-.14-.21,0Z"/><path class="cls-14" d="M69.48,104.35v-.87c0-.07,0-.18,0-.24s0-.08.14-.1l.44-.11,1.82-.45,1.77-.42a.29.29,0,0,1,.24,0c.12,0,.1.06.13.17s.07.27.11.4a4.69,4.69,0,0,0,.33.72l.07-.15-4.83,1.13c-.13,0-.08.23.06.2l4.82-1.13a.11.11,0,0,0,.07-.16,3.79,3.79,0,0,1-.42-1c0-.19-.07-.39-.31-.41a1.21,1.21,0,0,0-.37.07l-.59.14-1.09.26-2.16.53c-.21,0-.41,0-.45.29a5.66,5.66,0,0,0,0,.58v.58c0,.14.22.14.21,0Z"/><path class="cls-14" d="M71,104.39a4.42,4.42,0,0,0,.19,1.2.1.1,0,0,0,.2-.06,4.38,4.38,0,0,1-.18-1.14.11.11,0,0,0-.21,0Z"/><path class="cls-14" d="M70.27,106c.73-.11,1.46-.25,2.19-.41l-.12-.16a6,6,0,0,0-1,1.9l.18,0a10.35,10.35,0,0,1-1.57-1.8c-.08-.11-.26,0-.18.11a10.78,10.78,0,0,0,1.6,1.84.11.11,0,0,0,.18,0,5.65,5.65,0,0,1,.93-1.85c.06-.08,0-.17-.12-.15-.72.16-1.45.3-2.19.41-.13,0-.07.22.06.2Z"/><path class="cls-14" d="M75.08,105.36a10.6,10.6,0,0,0,1.26,0c.13,0,.13-.23,0-.21a10.6,10.6,0,0,1-1.26,0c-.13,0-.13.2,0,.21Z"/><path class="cls-14" d="M75.34,105.88h1.3a.11.11,0,0,0,0-.21h-1.3a.11.11,0,0,0,0,.21Z"/><path class="cls-14" d="M75.43,106.53h2a.11.11,0,0,0,0-.21h-2a.11.11,0,0,0,0,.21Z"/><path class="cls-14" d="M75.6,106.88h.65a.1.1,0,0,0,.1-.11.1.1,0,0,0-.1-.1H75.6a.11.11,0,0,0-.11.1.12.12,0,0,0,.11.11Z"/><path class="cls-14" d="M75,98.72A1.52,1.52,0,0,1,76.67,100a2.1,2.1,0,0,1-.85,2c-.11.08,0,.26.1.18a2.32,2.32,0,0,0,1-2.27A1.76,1.76,0,0,0,75,98.51c-.13,0-.13.22,0,.21Z"/><path class="cls-14" d="M75.28,101.64c0,.36,0,.72,0,1.08a.1.1,0,0,0,.13.1,7.07,7.07,0,0,1,1.11-.16c.13,0,.13-.22,0-.21a7.55,7.55,0,0,0-1.16.17l.13.1c0-.36,0-.72,0-1.08a.11.11,0,0,0-.21,0Z"/><path class="cls-14" d="M72.1,108.23A5.13,5.13,0,0,1,70,108a3.13,3.13,0,0,1-1.41-1.16,5.49,5.49,0,0,1-.73-1.57,3.66,3.66,0,0,1-.15-2.07c0-.13-.16-.18-.2,0a3.71,3.71,0,0,0,.13,2.11,5.69,5.69,0,0,0,.81,1.75,3.37,3.37,0,0,0,1.37,1.14,5,5,0,0,0,2.24.28c.13,0,.13-.22,0-.21Z"/><path class="cls-14" d="M67.54,102.65a2.21,2.21,0,0,0,.77-.11l-.13-.1a4,4,0,0,0,.06.91.11.11,0,0,0,.13.07.11.11,0,0,0,.07-.13,4,4,0,0,1,0-.85.1.1,0,0,0-.13-.1,1.93,1.93,0,0,1-.72.1.11.11,0,0,0-.1.1.1.1,0,0,0,.1.11Z"/><path class="cls-10" d="M87,120.77l-14-9.91,9-11,14.73,11.92S89.71,114.59,87,120.77Z"/><path class="cls-14" d="M78.92,111.59a8.62,8.62,0,0,1-2.27-1.41l0,.1a7.89,7.89,0,0,1,1.4-2.24h-.15a14.83,14.83,0,0,0,2.26,1.59l0-.17a11.15,11.15,0,0,0-1.36,1.85.11.11,0,0,0,.18.11,11.18,11.18,0,0,1,1.32-1.81.09.09,0,0,0,0-.16,14.7,14.7,0,0,1-2.21-1.56.1.1,0,0,0-.15,0,8.45,8.45,0,0,0-1.46,2.34.12.12,0,0,0,0,.1,8.91,8.91,0,0,0,2.37,1.46c.12,0,.18-.15,0-.2Z"/><path class="cls-14" d="M82,107.21a7.88,7.88,0,0,1-1.67-1.37V106A9.39,9.39,0,0,0,82,104.15c0-.06.11-.22.2-.2s.19.2.24.26.3.32.45.47q.5.5,1,1v-.15A16.21,16.21,0,0,0,81.74,108c-.08.11.1.22.18.11a16.26,16.26,0,0,1,2.16-2.45.11.11,0,0,0,0-.15c-.39-.34-.77-.69-1.13-1.07-.18-.18-.35-.37-.53-.57s-.2-.2-.35-.11a2.08,2.08,0,0,0-.36.48c-.15.2-.31.39-.48.58a8.85,8.85,0,0,1-1.08,1,.1.1,0,0,0,0,.15,8.3,8.3,0,0,0,1.72,1.4c.11.07.22-.11.1-.18Z"/><path class="cls-14" d="M82.17,113.62l-1-.71-.5-.36c-.1-.06-.2-.12-.14-.25a.84.84,0,0,1,.18-.24l1.51-2-.16,0L84,111.75l0-.13a16.56,16.56,0,0,1-1.43,1.9c-.09.1.06.25.15.15a17.26,17.26,0,0,0,1.46-1.94.1.1,0,0,0,0-.13l-1.91-1.67a.11.11,0,0,0-.17,0l-.89,1.18-.42.55a3.09,3.09,0,0,0-.41.56c-.16.35.34.57.57.72l1.17.84c.11.08.21-.11.11-.18Z"/><path class="cls-14" d="M85.79,109.78a9.8,9.8,0,0,1-2.27-1.44v.13l1.91-2.76-.16,0,2.16,1.8s.11.07.13.11,0,.08,0,.14a1.78,1.78,0,0,1-.22.26l-.46.54-.94,1.07c-.08.1.06.25.15.15l1.05-1.2.54-.63c.1-.11.24-.23.16-.38a2.06,2.06,0,0,0-.52-.45l-.61-.51-1.26-1a.12.12,0,0,0-.17,0l-1.91,2.76a.11.11,0,0,0,0,.13A10.39,10.39,0,0,0,85.69,110c.12,0,.22-.13.1-.19Z"/><path class="cls-14" d="M85.88,116a7,7,0,0,1-1.73-1.27v.14a23.8,23.8,0,0,0,1.65-2.1l-.14,0c.75.44,1.49.89,2.21,1.37l0-.17-1.23,1.57c-.08.1.07.25.15.14L88,114.19a.11.11,0,0,0,0-.16c-.73-.48-1.46-.93-2.21-1.37a.11.11,0,0,0-.15,0A24.57,24.57,0,0,1,84,114.77a.1.1,0,0,0,0,.14,7.07,7.07,0,0,0,1.77,1.31c.12.06.23-.12.11-.18Z"/><path class="cls-14" d="M90,111.59,89.1,111l-.47-.3-.22-.14s-.22-.11-.23-.15.12-.14.15-.17l.16-.18a4.12,4.12,0,0,0,.33-.4,9.19,9.19,0,0,0,.58-.81l-.15,0,2.1,1.17,0-.14c-.4.64-.81,1.26-1.24,1.87-.08.11.11.22.18.11.43-.61.84-1.24,1.24-1.87a.11.11,0,0,0,0-.15l-2.1-1.17a.12.12,0,0,0-.15,0,8.36,8.36,0,0,1-.69,1c-.13.16-.26.31-.4.46s-.2.17-.16.3.23.21.34.28l.52.34,1.08.68c.11.07.22-.11.11-.18Z"/><path class="cls-14" d="M77.62,110.09A5.42,5.42,0,0,1,77.8,109l-.2,0a6.46,6.46,0,0,1,.26.69.11.11,0,0,0,.19,0l.19-.26-.16,0a.51.51,0,0,1,.13.24.73.73,0,0,0,.15.29.3.3,0,0,0,.49,0s0-.11,0-.14a.11.11,0,0,0-.15,0s-.08,0-.1,0a.28.28,0,0,1-.12-.16.83.83,0,0,0-.23-.42.1.1,0,0,0-.16,0l-.19.25.19,0c-.08-.25-.17-.49-.27-.73s-.17-.06-.2,0a6,6,0,0,0-.18,1.2.11.11,0,0,0,.21,0Z"/><path class="cls-14" d="M81.58,106.05a.48.48,0,0,1,.06-.37l-.09,0s0,.17,0,.21l0,.24.07.51.15,1c0,.11.17.08.2,0a7.64,7.64,0,0,0,.38-2.07l-.18.07a.26.26,0,0,0,.4,0c.06-.07.1-.14.18-.17a.28.28,0,0,1,.25,0c.11.08.21-.1.11-.18a.46.46,0,0,0-.44,0,.57.57,0,0,0-.18.12s-.12.2-.17.14-.17,0-.18.08a7.59,7.59,0,0,1-.37,2H82l-.17-1.21-.09-.59c0-.14,0-.3-.2-.32a.12.12,0,0,0-.1,0,.84.84,0,0,0-.08.54c0,.13.23.07.21-.06Z"/><path class="cls-14" d="M85.88,108.18l-.23-.41s-.1-.07-.14,0a1,1,0,0,0-.32.44.86.86,0,0,1-.29.41l.15.06a6.46,6.46,0,0,1-.25-.78.11.11,0,0,0-.2,0l-.24.32a.09.09,0,0,0,0,.14.1.1,0,0,0,.14,0l.25-.32-.2,0c.08.26.16.52.26.78a.11.11,0,0,0,.16.06.87.87,0,0,0,.33-.42,1.12,1.12,0,0,1,.27-.43l-.14,0,.23.41a.11.11,0,0,0,.18-.11Z"/><path class="cls-14" d="M81.56,112.68l.19-.1.09,0s0,0,0,0h0s0,0,0,0,.22.11.34.07a5.68,5.68,0,0,0,.78-.39c.11-.08,0-.26-.11-.19a3.71,3.71,0,0,1-.77.39l0,0s0,0,0,0,0,0,0,0a.2.2,0,0,0-.17-.09.48.48,0,0,0-.18.08l-.21.11a.11.11,0,0,0,.11.18Z"/><path class="cls-14" d="M86.74,114.4a4.25,4.25,0,0,1-.27-.46.11.11,0,0,0-.2,0c-.09.24-.18.49-.28.74,0,0,0,.05,0,.05l0,0a.31.31,0,0,1-.09-.11.83.83,0,0,0-.2-.22.3.3,0,0,0-.46.09c-.15.2-.27.43-.4.64l.14,0-.1-.07c-.11-.07-.21.11-.1.19l.1.06a.1.1,0,0,0,.14,0l.21-.34c.06-.1.12-.21.19-.31s.32.18.4.27A.37.37,0,0,0,86,115c.11,0,.16-.1.19-.19l.3-.76-.2,0c.09.16.18.31.28.46a.11.11,0,0,0,.18-.11Z"/><path class="cls-14" d="M89.79,110.59l-.09-.26a.44.44,0,0,0-.08-.2.22.22,0,0,0-.32,0,.9.9,0,0,0-.08.83.12.12,0,0,0,.1.08,4.1,4.1,0,0,0,1.19-.31l.59-.24.27-.11s.22-.12.26-.07.24,0,.15-.14-.34,0-.49,0l-.64.27a4.33,4.33,0,0,1-1.33.38l.1.07a1,1,0,0,1,0-.52l0-.1s0,0,0,0l0,.08.09.29c0,.13.25.07.21-.06Z"/><path class="cls-9" d="M86,113,78.59,97.59a20.59,20.59,0,0,0,5.1-.81,21.15,21.15,0,0,0,6.29-3l9,16.12q-3.64.76-7.49,1.72Q88.67,112.28,86,113Z"/><path class="cls-14" d="M96.23,108.51a5.14,5.14,0,0,0-3.14.77c-.11.08,0,.26.1.18a5,5,0,0,1,3-.74.11.11,0,0,0,0-.21Z"/><path class="cls-14" d="M95,106.85a2.23,2.23,0,0,0-1.57.06,4.81,4.81,0,0,0-.78.48,1.45,1.45,0,0,1-1.1.29,3.06,3.06,0,0,0-1.65.47,6.41,6.41,0,0,1-2.24.55c-.13,0-.13.22,0,.21a6.32,6.32,0,0,0,1.91-.4,4.59,4.59,0,0,1,1.84-.63,2,2,0,0,0,.84,0,2.52,2.52,0,0,0,.69-.41,2.19,2.19,0,0,1,2-.39.1.1,0,0,0,.06-.2Z"/><path class="cls-14" d="M94.34,105.56a40.05,40.05,0,0,0-4.06.7,2.76,2.76,0,0,0-.78.26c-.26.14-.43.38-.67.54-.46.3-1.08,0-1.53.38-.11.08,0,.27.11.18.39-.3.92-.11,1.36-.29.28-.11.45-.37.7-.54a2.19,2.19,0,0,1,.87-.33c1.31-.28,2.66-.54,4-.69.13,0,.13-.23,0-.21Z"/><path class="cls-14" d="M90.64,102.79a4.54,4.54,0,0,0-.7-.93c-.14-.15-.28-.3-.43-.44l-.21-.2s-.09-.07-.11-.11,0,0,0-.11a6.53,6.53,0,0,1,.56-.35l.6-.38,1.24-.75-.15-.06c.16.43.33.86.52,1.29l.3.65c0,.11.11.22.16.32a1.74,1.74,0,0,1,.1.19c0,.08,0,.07,0,.13a4.33,4.33,0,0,1-.65.31l-.67.3c-.46.19-.93.37-1.4.53-.13,0-.07.25.06.2q.75-.25,1.5-.57l.72-.33.39-.18a1.43,1.43,0,0,0,.27-.15c.13-.14,0-.3-.06-.44l-.36-.74c-.24-.51-.45-1-.65-1.57a.1.1,0,0,0-.15-.06l-1.37.83-.66.41-.35.22A.55.55,0,0,0,89,101c-.09.14,0,.26.13.35l.48.47a5.1,5.1,0,0,1,.89,1.13c.06.12.24,0,.18-.11Z"/><path class="cls-14" d="M84.34,102.12a7,7,0,0,1-1.2-2.13l0,.12c.65-.33,1.3-.65,2-.94l-.14,0,1.19,2.54,0-.15a18.24,18.24,0,0,1-1.93,1c-.13,0,0,.23.1.18a16.51,16.51,0,0,0,1.93-1,.1.1,0,0,0,0-.14L85.09,99a.11.11,0,0,0-.15,0c-.66.29-1.31.61-2,.94a.1.1,0,0,0,0,.12,7.38,7.38,0,0,0,1.25,2.22c.08.1.23,0,.15-.15Z"/><path class="cls-14" d="M89.88,99.36a1.32,1.32,0,0,0-.65-.18l-.85,0a2.1,2.1,0,0,0-1.35.25c-.11.08,0,.26.11.18a1.89,1.89,0,0,1,1.24-.22l.75,0a1.32,1.32,0,0,1,.65.15c.11.08.22-.11.1-.18Z"/><path class="cls-14" d="M87.24,100h-.43a1.82,1.82,0,0,1-.33,0,.3.3,0,0,1-.22-.1s0,0,0-.08l.14-.12a4.41,4.41,0,0,1,1.29-.71c.13,0,.08-.25,0-.2a4.56,4.56,0,0,0-1.22.63l-.26.21c-.08.07-.17.14-.15.27a.43.43,0,0,0,.39.31h.81a.11.11,0,0,0,0-.21Z"/><path class="cls-14" d="M85.35,103.46a4.75,4.75,0,0,1,1.27-.48c.13,0,.08-.23-.06-.2a4.79,4.79,0,0,0-1.32.5c-.12.06,0,.24.11.18Z"/><path class="cls-14" d="M85.65,103.86l1.39-.24c.13,0,.08-.22-.06-.2l-1.39.24c-.13,0-.08.22.06.2Z"/><path class="cls-14" d="M86.07,104.61l.71-.08a.1.1,0,0,0,.11-.1.12.12,0,0,0-.11-.11l-.71.08a.1.1,0,0,0-.1.1.11.11,0,0,0,.1.11Z"/><path class="cls-14" d="M84.3,97.25a16.51,16.51,0,0,0,1.81-.7c.12-.06,0-.24-.1-.18a16.54,16.54,0,0,1-1.77.68.1.1,0,0,0,.06.2Z"/><path class="cls-15" d="M86.89,90,103,99.33V80.63Z"/><path class="cls-16" d="M100.16,89.46l-3.7-2.88a.68.68,0,0,1,.05-1.12l7.12-4.56a.68.68,0,0,1,.79,0l3.71,2.83a.68.68,0,0,1,0,1.12L101,89.49A.68.68,0,0,1,100.16,89.46Z"/><polygon class="cls-17" points="126.55 83.63 102.97 99.33 102.97 75.51 127.17 62.24 126.55 83.63"/><path class="cls-15" d="M115.66,79.44a.74.74,0,0,1-.31-.55.84.84,0,0,1,.1-.38c0-.05.07-.09.09-.12a.87.87,0,0,1,.25.45A.84.84,0,0,1,115.66,79.44Z"/><path class="cls-15" d="M117.2,79.55c-.51-.26-.8-.22-1-.13s-.17.14-.36.23-.37.07-.52.14a1.12,1.12,0,0,0-.47,1.08,1.26,1.26,0,0,0,.48.89,1,1,0,0,0,1.1.16.88.88,0,0,1,.28-.16,1.23,1.23,0,0,1,.28,0,.93.93,0,0,0,.73-.56,1,1,0,0,0-.05-.79.39.39,0,0,1-.6-.09.53.53,0,0,1,0-.68"/><polygon class="cls-18" points="63.5 56.37 80.47 48.14 87.56 50.81 71.06 57.28 63.5 56.37"/><ellipse class="cls-19" cx="75.53" cy="41.98" rx="9.42" ry="11.12"/><polygon class="cls-18" points="86.64 58.2 94.43 84.84 89.42 81.68 85.5 61.85 86.64 58.2"/><polygon class="cls-20" points="71.06 55.68 87.56 50.81 86.72 77.76 72.32 84.84 71.06 55.68"/><polygon class="cls-21" points="71.06 57.02 63.5 56.37 67.28 84.47 72.32 84.84 71.06 57.02"/><polygon class="cls-19" points="64.08 62.4 61.18 92.38 63.5 98.33 69.67 60.62 64.08 62.4"/><ellipse class="cls-22" cx="75.43" cy="43.48" rx="0.54" ry="1.07"/><path class="cls-23" d="M75.94,43.15h-1c.07-.43.27-.74.51-.74S75.87,42.72,75.94,43.15Z"/><ellipse class="cls-22" cx="81.51" cy="42.73" rx="0.54" ry="1.07"/><path class="cls-24" d="M80.18,46.7a.9.9,0,0,0-1.05,0,2.8,2.8,0,0,0-.7.9"/><path class="cls-25" d="M83.23,39.25c.52.55.82,4,.83,4.9,0,2.77-1.77,5-2.22,7.75a31.1,31.1,0,0,0-.18,8.83,3,3,0,0,0,.26,1,2.34,2.34,0,0,0,.62.67L84,63.62a3.56,3.56,0,0,0,1.33.81c.88.24,2-.2,2.57.67.26.4.39,1.05.8,1.11s.66-.53.75-1a16.14,16.14,0,0,0-.51-7C88.4,56,87.6,53.79,87.15,51.5c-.3-1.56-.45-3.16-.65-4.75-.27-2.22-.65-4.42-1.1-6.59a4.75,4.75,0,0,0-2-3.18c-1.21-.67-2.44-1.45-2-2.6"/><path class="cls-25" d="M73.6,37.29c1,.38,1.22-.85,1.47.21.1.43.68.29.75.73a2.08,2.08,0,0,0,3.42,1.27,1.06,1.06,0,0,1,.51-.31.81.81,0,0,1,.37.07,6.08,6.08,0,0,1,2.33,1.3,2.09,2.09,0,0,0,.43.41,1.1,1.1,0,0,0,1,0c1.11-.5,1.21-2.12.63-3.2s-.07-2.3-.82-3.26a10.76,10.76,0,0,0-2.6-2.31,25.22,25.22,0,0,0-3.78-1.81,12.55,12.55,0,0,0-4.5-.5,7.28,7.28,0,0,0-4.55,1.36,9.68,9.68,0,0,0-3,5A28.15,28.15,0,0,0,64,45.66c.1,2.77.57,5.71-.67,8.19-.42.83-1,1.56-1.45,2.37a13.89,13.89,0,0,0-1.27,5.14,9.07,9.07,0,0,0,.3,4.46,6.5,6.5,0,0,0,2.51,2.84,10.56,10.56,0,0,0,6.83,1.69,2,2,0,0,0,1-.29,2,2,0,0,0,.58-.8,16.4,16.4,0,0,0,1.08-3.51,63.19,63.19,0,0,0,1-20.57c-.26-2.29-.55-3.24-.67-5.54a7,7,0,0,1,.08-1.81"/><polygon class="cls-18" points="74.29 54.16 79.31 58.2 81.51 52.6 74.29 54.16"/><path class="cls-23" d="M82,42.39H81c.07-.43.27-.73.5-.73S82,42,82,42.39Z"/><path class="cls-26" d="M74.92,44.9a1,1,0,0,0,1.22-.24"/><path class="cls-26" d="M74.81,45.06a1.28,1.28,0,0,0,1.53-.29"/><path class="cls-26" d="M80.87,43.91a1,1,0,0,0,1.24,0"/><path class="cls-26" d="M80.73,44.05a1.3,1.3,0,0,0,1.56,0"/></g></g></svg>