<svg xmlns="http://www.w3.org/2000/svg" viewBox="0 0 47.47 59.91"><defs><style>.cls-1{fill:#3f323a;}.cls-2{fill:#b1b5ba;}.cls-3{fill:#929496;}.cls-4{fill:#ededed;}.cls-5{fill:#7285a5;}.cls-6{fill:none;stroke-width:1.5px;}.cls-6,.cls-7,.cls-8{stroke:#7285a5;stroke-miterlimit:10;}.cls-7{fill:#556377;}.cls-8{fill:#b29084;}.cls-9{fill:#fff;}</style></defs><g id="Layer_2" data-name="Layer 2"><g id="pot"><ellipse class="cls-1" cx="21.1" cy="23.67" rx="5.6" ry="4.22"/><path class="cls-2" d="M10.86,46.28s-1-4.35,0-12.15,4.72-11.56,4.72-11.56a8.85,8.85,0,0,0,5.89,1.77c3.84-.09,4.92-1.77,4.92-1.77a30.24,30.24,0,0,1,5.33,11.37c.68,2.8,1.11,10.1.57,12.34a20.31,20.31,0,0,1-9,2.72C18,49.3,10.86,46.28,10.86,46.28Z"/><path class="cls-1" d="M30.94,37.77c3.09,0,4-6.71,4-6.71s.67-5.18-1.61-6-5.1.66-5.1.66L29,27.3s2.1-1.28,3.78-.22c1.28.81,1,3.44.33,5.34a11.72,11.72,0,0,1-2.45,3.38Z"/><polygon class="cls-2" points="15.48 23.18 11.75 22.99 13.62 26.45 15.48 23.18"/><polygon class="cls-3" points="11.75 22.99 15.48 23.18 14.82 24.33 11.75 22.99"/><path class="cls-1" d="M10.63,44.8,8.42,47.49s3.33,3.75,13.05,3.75c9.09,0,13.6-3.74,13.6-3.74l-2.59-2.7s-1.62,2.07-10.34,2.48A23,23,0,0,1,10.63,44.8Z"/></g><g id="pot_on" data-name="pot on"><path class="cls-4" d="M12.24,16.85a.16.16,0,0,0,.19-.23l-.36,0Z"/><path class="cls-4" d="M12.44,15.4c-.22-.17-.56-.35-.81-.11.37.12.26.21.69.34.1.18,0,.36-.12.36.1,0,0,.32.25.36a.7.7,0,0,0-.22-.9C12.28,15.36,12.38,15.4,12.44,15.4Z"/><path class="cls-4" d="M13.57,7.2v.06A0,0,0,0,0,13.57,7.2Z"/><path class="cls-4" d="M12.26.75c.1-.07.13-.12.12-.15S12.22.74,12.26.75Z"/><path class="cls-4" d="M10.82,3.17V3A.23.23,0,0,0,10.82,3.17Z"/><path class="cls-4" d="M13.57,7.2V7.07C13.41,7,13.54,7.12,13.57,7.2Z"/><path class="cls-4" d="M10.76,12.29l-.07,0a1.74,1.74,0,0,0,.13.2l-.08-.17.06,0Z"/><path class="cls-4" d="M10.73,10.8l-.11-.05a.51.51,0,0,0-.15.07Z"/><path class="cls-4" d="M10.35,7.65c-.07-.06-.26.15-.36.23a.3.3,0,0,1,.28,0A.49.49,0,0,0,10.35,7.65Z"/><path class="cls-4" d="M12.88,12.9l-.06.06Z"/><path class="cls-4" d="M14.23,9.6a.2.2,0,0,0,.11,0A.14.14,0,0,0,14.23,9.6Z"/><path class="cls-4" d="M13,17.77v-.05S13,17.77,13,17.77Z"/><path class="cls-4" d="M10.48,19.83l0-.06-.15,0Z"/><path class="cls-4" d="M13.88,4.06v0C14,4.15,13.94,4.1,13.88,4.06Z"/><path class="cls-4" d="M1.65,16.79c-.12-.12.06-.21.22-.33s.28-.28.09-.34C2,16.26,1.28,16.66,1.65,16.79Z"/><path class="cls-4" d="M11,12.28l.23-.07A.56.56,0,0,0,11,12.28Z"/><path class="cls-4" d="M2,16.12Z"/><path class="cls-4" d="M7.21,5.31a.32.32,0,0,0,.06-.18S7.23,5.2,7.21,5.31Z"/><path class="cls-4" d="M11.77,2.65l-.12-.14A.87.87,0,0,0,11.77,2.65Z"/><path class="cls-4" d="M10.11,4.76c0-.11,0-.17-.16-.27v.06C10,4.57,10.08,4.62,10.11,4.76Z"/><path class="cls-4" d="M7.13,2.37l0,.08.11,0Z"/><path class="cls-4" d="M12.14,18.29a.08.08,0,0,0-.06,0h0l.18,0H12.2l-.06,0a.8.8,0,0,1,.21,0l0,0v0h0c.07,0-.58.16-.3.09h.06Z"/><path class="cls-4" d="M11,12.4c-.06-.06-.06-.09,0-.12l-.15.05A.35.35,0,0,0,11,12.4Z"/><path class="cls-4" d="M8.2,5.89a.92.92,0,0,0-.13-.21C8.1,5.74,8.16,5.82,8.2,5.89Z"/><path class="cls-4" d="M10.6,11.71l0,0S10.58,11.74,10.6,11.71Z"/><path class="cls-4" d="M6.9,4.84a.66.66,0,0,0-.13-.32s-.06,0-.08,0Z"/><path class="cls-4" d="M12.14,18.31Z"/><path class="cls-4" d="M14,19l0,.2a3.58,3.58,0,0,1-.06.37c-.26,0,0-.29,0-.48-.26,0-.66.12-.85,0,0-.06,0-.11.08-.14a1,1,0,0,1-.63-.29c-.17-.15-.24-.23-.45-.25l.08-.05a4.29,4.29,0,0,1-.46.21c-.07-.13-.28-.26,0-.31,0,.08.09.09.16.11a.63.63,0,0,1-.1-.12c.35,0,.11.17.38.1-.07,0-.16-.12-.17-.25s0-.24.08-.19,0,.05,0,.11a.13.13,0,0,0,0,.07,0,0,0,0,1,0,0,.06.06,0,0,0,0,.05l0,0s.08.06,0,0c.1.09,0,0,0,0l-.08,0c.27,0,.25.07.24.06l.07,0S12,18.07,12,18s0-.09,0,0V18h0s0,0,0,0,0,.05-.1.15l-.06.06h0a.45.45,0,0,1,.09-.07c.13,0,.19.18.14.3a1.36,1.36,0,0,1-.24.35l1-1.5c-.13-.14-.21-.22-.43,0s-.27.66-.63.34c.08-.11.15-.23.22-.35a.4.4,0,0,0-.41.12c-.1.07-.24.11-.34-.13.14-.07.34.06.31,0-.06-.39-.28.1-.46-.06a2.85,2.85,0,0,1,.23-.26.88.88,0,0,1-.24-.21.91.91,0,0,1-.11-.16.36.36,0,0,1,0-.09s0,0,0-.05v0h0s0,0,0,0a3.38,3.38,0,0,1-.06-1,.3.3,0,0,1,0-.1s.11.13.2-.06-.09-.27-.13-.41a4,4,0,0,1-.16-.49L10.26,14a3.14,3.14,0,0,1-.38-.3,4.47,4.47,0,0,1-.45-.42,10.68,10.68,0,0,1-.76-.93l-.46,0c-.07-.07,0-.21.08-.19-.2-.34-.15.13-.36.08s-.08-.32.08-.29a4.66,4.66,0,0,1-1.12-.72c-.19-.12-.37-.36-.24-.46l.14,0c0-.07-.2-.12-.44-.22s-.47-.23-.32-.28l.11.07a1.65,1.65,0,0,0-.09-.21l0-.07,0,0,0,0L6.21,10a1.44,1.44,0,0,1,.37-.05.94.94,0,0,1,.72.33c0-.22.12-.14.22-.09l.08,0,.17,0A.27.27,0,0,0,8,10.06c.54.51.31.53,1.1,1.1.21.13.5-.17.82-.07l-.13.28.55-.08a3.1,3.1,0,0,1,0,.43h.17s0-.19,0-.26.16.06.16.08.13-.1.2-.14a.36.36,0,0,1,.16-.08s0,0,0,0h.05l-.05,0a.88.88,0,0,1-.27-.33l-.08-.14,0-.1s0,0,0,0a.53.53,0,0,1-.3.17.29.29,0,0,1,.12-.15.44.44,0,0,0,.08-.11c-.08.17-.19.09-.2,0s0-.17-.29,0c.07.07,0,.19,0,.25a2.48,2.48,0,0,0-1.31-.13l.1-.2a21.78,21.78,0,0,1-2.54-.27.25.25,0,0,1-.13.48l0-.34c-.22.16.24.18-.16.34-.33-.13-.13-.42.08-.47H5.65c0-.1.11-.12.16-.23-.22.15-.56-.51-.89-.26v-.1l-.29-.1-.13-.05h-.1a.46.46,0,0,1-.2,0,1.73,1.73,0,0,1-.45.1c.38-.06.69,0,.71.15a4.86,4.86,0,0,1-.07.55c.06-.24-.08,0,0-.39a.64.64,0,0,1-.26.23,1.18,1.18,0,0,1-.59.17c-.12.18-.13.29-.27.4s0-.33.2-.47l0,0c-.21,0-.24-.18,0-.3a1.73,1.73,0,0,1,.59-.11c.31,0,.33-.22.23.37v-.06c0,.25-.08.56-.16.92,0,.06.12-.55.18-.84-.14.66-.23.81-.27.78s0-.13-.36.47c.46-1.37.42-1.31.27-1.23s-.21.12.28-.54L4,10.23c-.33.38.22-.31.3-.41-.26.31-.32.41-.5.61-.1,0,.16-.55.38-.82a.85.85,0,0,1,.29-.27,5.4,5.4,0,0,0,.38-.9,3.69,3.69,0,0,0,.14-1.31c-.07-.61-.34-.61-.55-.71S4,6.23,4.13,5.77l.37.16a4,4,0,0,1-.42-2V3.66l0-.13a1,1,0,0,1,.07-.33c0,.09.08.2.05.21s.12.1.15,0a1.05,1.05,0,0,0,.08-.25c.06,0,0,.19,0,.3s0,0,0,0l0,0h.13c.17,0,.33,0,.35.16s-.11,0-.16,0c.22,0,.77.4.73.08.39.35.93.37,1.18.73.41-.11.64.62,1,.32-.15.17,0,.38.18.55a1,1,0,0,0,.53.26c-.15,0,0,.21-.22.26,0,.07.09.1.13.09a2.29,2.29,0,0,1,.29-.07.89.89,0,0,1,.41,0s0,0-.1-.1l1.32-.34c-.29-.14-.73-.27-.45-.69a3.54,3.54,0,0,1-.43-.45.84.84,0,0,1-.21-.24A1.62,1.62,0,0,1,9,3.28c.24.29.24.39.25.5s0,.2.31.3a1.52,1.52,0,0,1-.35-.65c0-.31.19-.33.41-.17s0,.23,0,.33c.1-.07.28,0,.41.11l.35.21a3.5,3.5,0,0,0,.54.29s-.13,0-.21,0c.13.09.23.28.35.12l-.15-.06c0-.41.9,0,1-.09-.62.19.44.73-.41.88a.29.29,0,0,0,.34,0c.07.14,0,.23-.19.2.42.38.49.09.77.54-.09,0-.17,0-.3,0a2.1,2.1,0,0,1,.37.18l1.23-1a.58.58,0,0,1-.45-.33c.06,0,.09-.1.17,0-.23-.23-.49-.4-.72-.64A1.15,1.15,0,0,1,12.37,3c.45.16.12-.26.5-.26a1.91,1.91,0,0,1-.07-.24.71.71,0,0,0-.2,0c0-.19,0-.57.24-.63a1,1,0,0,0,0,.23,1,1,0,0,1,.34-.31,1.22,1.22,0,0,0-.33,0c.17-.32-.3-.41.2-.51-.09.06.41-.12.59.13h0a.48.48,0,0,1,.64,0c0,.13-.22.35-.21.44.28-.25.63.31,1,.32a.38.38,0,0,0-.29.14,1.36,1.36,0,0,1,.29,0c0,.19,0,.23-.16.28.14.44.38-.35.4.28,0,0-.06,0-.13-.08.09.54.31,1.16,0,1.66-.39,0,.07-.46-.29-.39a3.13,3.13,0,0,1-.3,1,1.27,1.27,0,0,1-.34.43,1,1,0,0,1-.76.26l-.15.11.17-.09h0a.14.14,0,0,1,0,.06c.1.25-.14.25-.4.28a2,2,0,0,0-.62.14c.07,0-.06-.11-.05-.09a.8.8,0,0,1-.59,0L11.34,6l.55.23a.88.88,0,0,1,.17.12,2.38,2.38,0,0,1,.39.39l-.14-.11a2.05,2.05,0,0,1,.1,1,1,1,0,0,1,.32.41c.24.16.25.33.41.16a4.71,4.71,0,0,0-.21.73,1.2,1.2,0,0,1-.34.74.67.67,0,0,1-.88,0c.09,0,.21-.13.14-.12a1.26,1.26,0,0,1-.64,0c0,.24,0,.17.13.38a.56.56,0,0,1-.62,0c.43.06.16-.32.14-.51,0,.07-.11.11-.14.17-.07-.59-.38.34-.64-.33l.11-.06C10,9.06,9.73,9,9.62,8.72c.18-.23.24.15.44,0-.2-.26-.81-.38-.69-.8a3.62,3.62,0,0,0,.36.42.94.94,0,0,0,0-.7v-.1l-.91.76.34.34-.08-.15c.76-.34.84.4,1.6.44-.75-.05-.23.13-.47.33.07.17.18.39.08.41.37,0,.21.45.74.48-.06.08.2.23,0,.35.3.21.07-.18.17-.24.66.21.56,1.25,1.35,1.69a4.66,4.66,0,0,0,.76.56l.16-.35a3,3,0,0,1-.58.46c-.35-.07,0-.36,0-.37a2,2,0,0,0-1.18.31c0-.09-.16-.12-.43-.16-.1,0-.13.08-.13.12.16.19.34.3.31.56a3.61,3.61,0,0,1-.59-.59c.26.54.6,1,.82,1.45-.14.12-.35-.27-.53-.48.13.29.28.65.43.93s.28.41.43.44l0-.27c0,.13-.2.15-.28.05-.34-.4-.1-.64,0-.64l.16.28c.22-.17.16-.36,0-.64a7.79,7.79,0,0,1-.56-1l.12,0,.14.18.29.24-.11-.15a.83.83,0,0,1,.11-.31c.24.05.51.21.36.32.51.08.16-.2.62-.08.05,0,.05,0,0,.06a2.13,2.13,0,0,1,.22-.18c0,.09.2.24,0,.24a.65.65,0,0,0,.49-.12l.48-.35-.22-.23c-.2-.22-.39-.33-.31-.55l0,0c-.58-.7-.3.07-.95-.29.12-.26.25-.53.36-.8l-.3.11c0-.08-.13-.24,0-.29-.38-.14-.07.13-.34.09-.06-.53-.89-.83-.61-1.23-.28.05.16.43-.28.2.27-.47-.45-.31-.59-.75.27-.12.47.25.31-.21-.48.19-.56-.6-.91-.73-.18.23-.54-.12-1-.35L8.41,7l.37.88a2.85,2.85,0,0,0,.16.3c-.14,0,.28,1.12.65,1.66l-.06,0c.35-.16.73.32,1.19.45-.12.18-.23.23-.52.16a2.86,2.86,0,0,0,.42.24,1.3,1.3,0,0,1,.62,0,2.23,2.23,0,0,1-.19.24,2.12,2.12,0,0,0,1-.06c.34-.09.65-.2,1.09-.34-.05-.12-.28-.19-.4-.33s-.13-.28.06-.5c.1.1.28.27.15.42,0-.05.12-.21.24-.25a1.58,1.58,0,0,1-.09.36c.35-.12,0-.25.23-.41.14.14.24-.06.34.07s-.23.14-.27.26c.29-.18.61-.49.8-.58-.11,0-.24-.11-.18-.35v0c.1-.58.28-.14.41-.54-.13-.18-.08-.66-.37-.59,0-.16.07-.24.13-.32A1.22,1.22,0,0,1,14,7.53c-.11-.15-.29-.32-.45-.26v0l0,0h0c-.36-.29-.61-.57-.79-.7a.57.57,0,0,0-.13-.08h0l.07,0,.15.06a1.32,1.32,0,0,0,.44.1l.15.06a1.37,1.37,0,0,0,.7-.24.38.38,0,0,0,.09-.13c.12,0,.36,0,.37.16a5,5,0,0,1,.89-.74c-.19.46.24,0-.25.43.5-.34.75-.42.82-1.11.13.32.51-.3.49-.63a3.58,3.58,0,0,1-.3.36c.08-.31.16-.58.22-.86.11.06.2.13.31.2a1.86,1.86,0,0,0-.25-1.82A4.16,4.16,0,0,1,15.7.91c-.4-.09.38.66,0,.59-.27-.45-.6-1.21-.84-1.31a.88.88,0,0,0-1-.09,2.1,2.1,0,0,1-.9.26c.16.1.26.36-.21.65s-.89,0-.59-.36c.14-.09.22-.09.23-.05.16-.13.42-.27.12-.3l0,.14a1.81,1.81,0,0,0-.71.3c-.23.15-.39.28-.38.12-.27.54,0,.29.31.05A2.45,2.45,0,0,0,10.83,3c.06-.14.2-.26.2-.14,0,.6.08.7.17.75s.2.06.34.38c0,.43-.48,0,0,.63.11.46-.23.25-.41.11.51.53.6,1.22.89,1.57l-.34-.23a5.55,5.55,0,0,1,.49.42V6.17c.13.19.28.32.21.39h0l2.16-1.62-.16,0c-.22-.07-.26.31-.63.09,0-.29-.53-.56-.33-.82.39.73.21-.27.65.29A1.18,1.18,0,0,1,13.77,4s.07,0,.11,0c-.27-.82-.49-.09-1-.7.2,0,.11-.37,0-.45.23.25-.1.32-.41.21-.28-.45-.48-.3-.67-.47l.19.24c-.19.07-.37-.11-.68-.27.06-.13.31.11.25,0-.26,0-.35-.16-.55-.4a1.53,1.53,0,0,0-.86-.59c-.3-.27,0-.37-.29-.58C9,1,8.83.44,8.13.69c.32.21.31.14-.06.44A2.24,2.24,0,0,1,9.21,1a2.53,2.53,0,0,0-.66.24,2.67,2.67,0,0,0,.49,0,1.31,1.31,0,0,1,.43.09c-.34.11-.29,0-.09.33a.68.68,0,0,0-.69-.24,5.89,5.89,0,0,1-.69.1l-.31-.5c-1,.39-.59,1.56-.59,2.78a2.57,2.57,0,0,1,.07-.4c.24.22.11.79.34,1.19-.2,0-.21.26-.24.51.14,0,.34.76.75.65a5.29,5.29,0,0,0,0,.54,1.2,1.2,0,0,0,1,.57l.73.17.09-.16a2.1,2.1,0,0,0,.29-1,.28.28,0,0,0,.27.16c.06,0,.22.08.05.67.29-.57.2-1,.08-1a.87.87,0,0,0-.25-.6c-.16-.21-.33-.36-.34-.53s-.32,0-.53-.19c0-.05.07-.07.07-.07s-.44-.21-.39.12c-.17-1-1.65-1.2-1.94-2L5.63,1.83s0-.09.12,0c-.55-.43-.6.33-1.32-.13-.45-.45.48,0,.2-.25,0-.35-.37-.43-.74-.37s-.74.29-1.11.37l.12-.14A1,1,0,0,0,2.28,2,12.3,12.3,0,0,0,2.09,3.3s0,0-.09,0c.13.38.25.67.34,1l.26,1c-.28-.15-.17-.26-.41-.11.07.27.4-.12.54.4-.11.19-.16.59-.41.71l-.11-.52c-.31.33.14.67.14.95H2.19a1.39,1.39,0,0,0,.41.64.53.53,0,0,1,.17.57l.13-.05c.3.47-.28.25-.14.73H2.35a10.94,10.94,0,0,1-.1,1.74,5,5,0,0,1-.14-1.49c-.1.34-.3,1.19-.17,1.35,0-.13,0-.31.06-.44a2,2,0,0,1-.06,1.47c-.33.06-.5.5-.67,1a6.35,6.35,0,0,1-.69,1.6,5,5,0,0,1-.16.85l-.14.48a2.18,2.18,0,0,0-.12.45,1,1,0,0,0,.11.62,1.13,1.13,0,0,0,.75.53c-.18-.65.37.08.56-.57.29-.07.37-.11.38-.07.19,0,.37.1.52.14s-.25.29-.29.45c.43-.11.08.27.28.43,0-.3.27-.55.39-.52a1.12,1.12,0,0,0-.14-.29c.32-.44.32-.33.33-.15s0,.42.07,0c0,.17-.05.31-.09.46,0-.15,0-.16-.3-.2l-.28-.1a1,1,0,0,1-.35-.24,1.53,1.53,0,0,1-.4-1.19c-.26.16-.85.59-.49,1A1.53,1.53,0,0,1,.33,15a2.65,2.65,0,0,1,0-1.85s0-.07,0-.13l.51-.47,1-.93,1-.89-.05,0-.2-.06a.53.53,0,0,0-.41.06.46.46,0,0,0-.21.33.67.67,0,0,0,0,.2l0,.09c0,.06.13,0-.25.34L1,12.48l-.38.38c-.09.08-.07.08-.07.11V13a2.54,2.54,0,0,0-.07.47,6.61,6.61,0,0,0,0,.89l-.34.16c.22.39.83,0,1,.69-.13.17-.39.33-.26.48.14,0,.49-.07.85-.16a1.94,1.94,0,0,1,.92-.12,5.25,5.25,0,0,1-.65.6,1.33,1.33,0,0,0,1.3-.32c.32-.29.42-.58.33-.8s-.18-.2-.3-.31a3.34,3.34,0,0,1-.7-.44L2.37,14l-.19-.26c-.11-.2-.29-.29-.31-.59l-.08-.38-.05-.18c0-.06-.08-.08.13-.3l1.67-2,.09-.11s0,0,0,0l-.08-.05a1.27,1.27,0,0,0-.3-.11,1.08,1.08,0,0,0-.74.09h0a1.18,1.18,0,0,0-.18.13h0l-1.91.65h0l0,0,.09,0L.76,11l.7.32a11.42,11.42,0,0,0,1.34.48l.64.18c.21.05.29,0,.45.07l.84.11c.56.7,2.35.82,3.52,1.15-.18-.1.05-.33.26-.37s.77-.27.72.13h-.1c.2.41.79.31,1.24.29l0-.53a1.75,1.75,0,0,0,.24.11A1.14,1.14,0,0,0,11,13a1.66,1.66,0,0,0,.79-.17,1.62,1.62,0,0,0,.89-1,1.6,1.6,0,0,0-.28-1.44,3.32,3.32,0,0,0-1.14-.78.86.86,0,0,1-.46-.52c-.31,0-.61-.15-.92-.15L10,8.68a8.56,8.56,0,0,0-.9-.46L8.6,8,8.3,8a5.61,5.61,0,0,0-.55-.13l.37-.12a1.1,1.1,0,0,0-1,.19c-.23.19-.38.36-.68.36A5.34,5.34,0,0,0,6,7.82,7.75,7.75,0,0,0,4.1,8a5.56,5.56,0,0,0-.91.25,3.71,3.71,0,0,0-.4.19.35.35,0,0,0-.12.24l0,0a.77.77,0,0,1-.15-.1c-.07,0-.12-.11-.05-.16l-.16.07c.35.66,1,2,1.53,1.88-.49,0,.79,1.26,1.4,1.68l-.33,0c.75.35.76.2,1.23.58.07.13-.08.24-.15.06.21.43.43.08.72.58l-.27,0c.32.35.36.25.69.28s.61.65.51.88a.58.58,0,0,1,.65.17c0,.09-.15.08-.21.07a1.58,1.58,0,0,0,.69.49c.18.06.31.06.4.16a.28.28,0,0,1,0,.12c-.09,0-.12.08-.13.11L9,15.52l-.2-.16c-.11-.09-.17-.14-.14-.14s0,.24,0,.36l-.08.12s-.05.12-.21.11c.14,0,.12,0,.19-.05a.66.66,0,0,1,.2-.06.71.71,0,0,1,.29,0l.11,0-.07.07h0l-.11,0h0s0,.06,0,.08-.1.08-.11.13H8.74l0,.1v0l0,.05,0,.15a1.93,1.93,0,0,0,0,.34,3.94,3.94,0,0,0,.15.65c.26-.1.37.35.45-.14,0,.06-.06,0-.12-.27a1.09,1.09,0,0,0-.05-.14l0,0a2.82,2.82,0,0,1,0-.73V16l.09.08a1.72,1.72,0,0,1,0,.78,4.11,4.11,0,0,0,.55.3,1.34,1.34,0,0,0,0,.93,2.9,2.9,0,0,1,.21.72c1,.62,2.38.73,2.86.14a.22.22,0,0,1,.24,0l0,0,.44-.73c0-.07.11-.12.14-.18a.47.47,0,0,1,.07.12l.35.67-1,.31a.58.58,0,0,0-.25.11l.25-.07,1-.26-.34-.77a3.81,3.81,0,0,0-.42-.79c-.18-.26-.46-.42-.61-.33-.3-.31-.21-.31-.08-.32s.1,0,.05,0a1,1,0,0,0-.59-.18,1,1,0,0,1,.23-.08,1.33,1.33,0,0,0-1.2.08,1.5,1.5,0,0,0-.65.73,1.71,1.71,0,0,0,.13,1.56c.56.78,1.22.92,1.69,1.74-.08-.11-.12-.16-.1-.23a3,3,0,0,0,1.44.83,1.86,1.86,0,0,0,1.75-.35c.94-.86.82-2.35.5-3.37-.26-.61-.52-.52-.9-.64,0-.1.08-.21.11-.31a3.08,3.08,0,0,0-.72-.09,5.4,5.4,0,0,1-1.14-.59,1.28,1.28,0,0,0-1.51.23l.22.13c-.43.09-1,.78-1.07.58,0,.06.06.24-.12.29L10.65,17a3.48,3.48,0,0,0-.29,1c-.18.32-.32.26-.46.23s-.33,0-.43.64a1.78,1.78,0,0,0,.3.84c.18.23.34.33.37.24s0-.44.16-.47a3.13,3.13,0,0,0,.15.32,2.49,2.49,0,0,0,.68-.13,1.17,1.17,0,0,0,.5-.44,1.6,1.6,0,0,1-.26-.34l.25-.06a1.22,1.22,0,0,0,0,.26c.22-.12.05-.21,0-.37a.44.44,0,0,0,.28-.05,1.84,1.84,0,0,1-.23-.51c.17.07.23.32.43.2-.07-.26-.44-.1-.37-.42.29,0,.36.15.39-.12a.22.22,0,0,1,.1.24c0-.23.29-.29.26-.55.24.15.53-.22.55.24a.48.48,0,0,1,.43-.31c-.2.23-.07.26.06.32s.28.2.09.41a.39.39,0,0,1,.54.07,3.8,3.8,0,0,0,.43.47s-.12,0-.11-.06a.28.28,0,0,1-.19.32c.39,0,.5.18.68.46a.5.5,0,0,1-.41-.18A1,1,0,0,0,14.1,19c.33.1.24.31.47.47-.26-.08-.17,0-.42-.27.29.48,0,.13,0,.45-.24-.25-.12-.48-.23-.34A3.27,3.27,0,0,1,14,19Zm-3.23-3.67h0a.24.24,0,0,0,0,.09l0,.14,0-.14A.94.94,0,0,1,10.75,15.31Zm-.65-1,.3.22a1.07,1.07,0,0,0,.1.22.12.12,0,0,1-.22,0s0,0,0-.14ZM8.72,16.56c-.05-.27,0-.36.08-.39a2.76,2.76,0,0,0,0,.46l0,0A.31.31,0,0,1,8.72,16.56Z"/><path class="cls-4" d="M9.14,17a.79.79,0,0,1,0,.09l0-.15-.1-.06Z"/><path class="cls-4" d="M13.58,7.27h0s0,0,0,0Z"/><polygon class="cls-4" points="9.8 11.43 9.83 11.37 9.73 11.38 9.8 11.43"/><path class="cls-4" d="M10.86,9.41a.34.34,0,0,0,0-.09S10.85,9.37,10.86,9.41Z"/><path class="cls-4" d="M9.72,7.68V7.57l-.93.78L9,8.52,8.8,8.34l.91-.76Z"/><path class="cls-4" d="M10.09,9.38a.29.29,0,0,0,.1-.08h0Z"/><path class="cls-4" d="M10.68,4.19a.09.09,0,0,0-.06,0C10.48,4.11,10.57,4.15,10.68,4.19Z"/><path class="cls-4" d="M13.6,1.45l-.2.14C13.52,1.6,13.6,1.61,13.6,1.45Z"/><polygon class="cls-4" points="8.21 5.92 8.22 5.91 8.2 5.89 8.21 5.92"/><path class="cls-4" d="M13.11,1.66a.43.43,0,0,0,.29-.07A.43.43,0,0,0,13.11,1.66Z"/><path class="cls-4" d="M11.36,14.67l0,.13h0A.42.42,0,0,1,11.36,14.67Z"/><path class="cls-4" d="M11.43,14.79l.06.09S11.46,14.8,11.43,14.79Z"/><path class="cls-4" d="M11.62,15.06l-.13-.18C11.51,15,11.53,15,11.62,15.06Z"/><path class="cls-4" d="M12,12.07l0-.1A.22.22,0,0,0,12,12.07Z"/><path class="cls-4" d="M13,11.76a4.14,4.14,0,0,0-1.1.13L12,12C12.05,11.79,12.89,12,13,11.76Z"/><path class="cls-4" d="M12.19,9.68l.36.55c0-.16,0-.37.24-.15C12.5,9.22,12.72,10.36,12.19,9.68Z"/><path class="cls-4" d="M10.79,8.15c.31.19.1-.12.15-.16C10.69,7.93,10.64,7.92,10.79,8.15Z"/><path class="cls-4" d="M14.77,6.52l.09.24C15.14,6.55,14.81,6.68,14.77,6.52Z"/><path class="cls-4" d="M15.09,3.68a1.45,1.45,0,0,1-.18.17l.22.13C15.12,3.88,15.11,3.78,15.09,3.68Z"/><path class="cls-4" d="M16.42,1.62l.11.12a3.8,3.8,0,0,0-.42-.48A3.65,3.65,0,0,1,16.42,1.62Z"/><path class="cls-4" d="M7.82,2.5l-.1.31C7.91,2.86,8.14,2.58,7.82,2.5Z"/><path class="cls-4" d="M2.61,7.8a.3.3,0,0,0-.22.41C2.48,8,2.63,7.89,2.61,7.8Z"/><path class="cls-4" d="M11.14,13.17l-.31.16a4.1,4.1,0,0,0,.61-.22A1.59,1.59,0,0,1,11.14,13.17Z"/></g><g id="cup"><path class="cls-5" d="M34.69,58.35s.21,1.59,4.2,1.56c3.79,0,4-1.28,4-1.28L44.45,48s-.43,1.48-5.28,1.43c-6.08-.06-5.83-1.29-5.83-1.29Z"/><path class="cls-6" d="M43.17,50.56S45.12,49,46.32,50s-.64,4.82-.64,4.82-1.32,2.15-3.2,1.81"/><ellipse class="cls-7" cx="38.89" cy="48.06" rx="5.08" ry="1.37"/></g><g id="coffee"><path class="cls-5" d="M34.69,58.35s.21,1.59,4.2,1.56c3.79,0,4-1.28,4-1.28L44.45,48s-.43,1.48-5.28,1.43c-6.08-.06-5.83-1.29-5.83-1.29Z"/><path class="cls-6" d="M43.17,50.56S45.12,49,46.32,50s-.64,4.82-.64,4.82-1.32,2.15-3.2,1.81"/><ellipse class="cls-8" cx="38.89" cy="48.06" rx="5.08" ry="1.37"/><path class="cls-9" d="M35.74,44.57s.12.08.11.06l-.14-.1Z"/><path class="cls-9" d="M36.05,44.65a1,1,0,0,0-.3-.22l.22.18s-.06,0-.11,0,0,0,0,.06.14,0,.06,0A.2.2,0,0,1,36.05,44.65Z"/><path class="cls-9" d="M37.13,43.41h0S37.13,43.42,37.13,43.41Z"/><path class="cls-9" d="M36.88,42.48h0Z"/><path class="cls-9" d="M36.83,42.2v0S36.84,42.2,36.83,42.2Z"/><path class="cls-9" d="M37.13,43.41l.08,0C37.15,43.38,37.15,43.4,37.13,43.41Z"/><path class="cls-9" d="M35.83,44.26s0,0,0,0v0Z"/><path class="cls-9" d="M37,43.92h0L37,44Z"/><path class="cls-9" d="M36.83,44.2l-.16-.11.07.06Z"/><path class="cls-9" d="M36.35,44.5v0Z"/><path class="cls-9" d="M37.16,43.68h0Z"/><path class="cls-9" d="M33.61,36.2h0Z"/><polygon class="cls-9" points="34.35 35.92 34.36 35.92 34.44 35.94 34.35 35.92"/><path class="cls-9" d="M36.72,41.88h0S36.73,41.87,36.72,41.88Z"/><path class="cls-9" d="M34.57,40.23c0,.12-.14.1-.19.23C34.41,40.42,34.55,40.32,34.57,40.23Z"/><path class="cls-9" d="M35.85,44.26h0S35.84,44.25,35.85,44.26Z"/><polygon class="cls-9" points="34.38 40.46 34.38 40.47 34.37 40.48 34.38 40.46"/><path class="cls-9" d="M36.14,41.51l0,.05Z"/><path class="cls-9" d="M36.41,42v0S36.41,42,36.41,42Z"/><path class="cls-9" d="M35.82,41.5s0,0,0,0h0S35.82,41.47,35.82,41.5Z"/><polygon class="cls-9" points="35.6 41.32 35.59 41.35 35.6 41.35 35.6 41.32"/><path class="cls-9" d="M33.58,37h.13C33.61,37,33.58,37,33.58,37Z"/><path class="cls-9" d="M35.89,44.3s0,0,0,0h0Z"/><path class="cls-9" d="M35.1,42.34l0,0A.05.05,0,0,0,35.1,42.34Z"/><path class="cls-9" d="M33.37,39h0Z"/><path class="cls-9" d="M35,42.23a.31.31,0,0,0,0-.09l0,0Z"/><path class="cls-9" d="M33.71,37Z"/><path class="cls-9" d="M33.41,36.71s.18,0,.29.07-.14,0-.24,0,.21.08.2.1h-.08c.15,0,0,.1.18.16h0l.25,0s.12,0,0,0l-.09,0,.05,0c-.17,0-.05,0-.18-.05,0,.05.19.11.14.13s-.05-.07-.21,0l.07,0c-.27,0,0,0-.26,0-.06,0,.08.08,0,.13a1.85,1.85,0,0,1,.23,0c.16.1-.43,0-.21.1s.32.06.2.09l-.19,0c0,.06.27.07.14.11s-.06-.05-.08,0,.1,0,.1.07l-.17,0c0,.07.13.15.15.22a.39.39,0,0,0-.15,0c.07.09,0,.18-.15.25l.14,0h-.1c-.06,0,.1,0,.15,0s-.09,0-.13,0c.12.07.25.19.09.23h-.05c-.06,0,.3.08.16.11h0c-.07.09,0,.22-.18.27.21,0-.11.08.18.13-.15,0-.2,0-.31.08s.18.06.21.09l-.15,0,.15,0h-.18l0,0h.12c.06,0-.12.09-.2.08l.12.1a.21.21,0,0,1-.12,0c.15.07-.16,0,0,0l.12,0c-.09,0-.1.06-.07.11l-.1,0c0,.06,0,.15,0,.22a.49.49,0,0,1,.25,0h-.16c.1,0,.06,0,.18,0s-.19,0-.24,0l0,0-.13,0c.1,0-.17,0,0,.08h-.05c0,.08.05.12.05.18s.1,0,.21.08c-.05.06-.17.15-.17.24s.12,0,.2,0c-.13,0-.13.11-.22.08a.3.3,0,0,0,.1.24.49.49,0,0,1,.13-.06s-.06.07-.13.09h0a.05.05,0,0,1,0,0c.11.07-.1.41.19.35h.19c0,.06-.1,0-.12.13.27-.05.15.17.29.1-.2.32.16.1.07.33l0-.07c.07-.06,0,0,0,.08s0-.08.08-.11.17.31.24.48.32-.34.24-.12l-.12.11c.22-.08.19.16.38.11,0,0-.06.06-.07.05s.07.06.13,0-.05.07-.07.12.14-.08.08,0l0,0s0,.06.12-.06c0,.08.11,0,.08.09.12-.1,0,.11.16-.06-.15.18-.06.19,0,.13s0,.07-.1.14.08,0,.15-.09c-.13.24.23-.1,0,.19a1,1,0,0,1,.37,0c-.14.17-.08,0-.23.14.12,0,.28-.14.31,0s-.07.07-.1.09.1.12.24.07l0,0s0,0,.06,0l0,0c.07-.13.24-.21.29-.27-.21.21,0,.11-.26.37a.3.3,0,0,0,.1-.1s0,.06-.08.11.13-.1.16-.07l-.09.09c.08-.06.16-.12.16-.07s0,.06,0,.05.25-.12.25,0c-.16.16,0,.08-.14.22l0,0,.06-.08s.12-.07.09,0l-.07,0h.06l0-.06c.1-.05.18-.16.17-.1s0,0-.06.1h0c.06,0,.13-.06.1,0L36.4,43c.15-.08.08,0,.25-.07l-.16.08.14-.06a.3.3,0,0,1-.13.07s.23-.11.16,0l-.06,0s.15,0,.11.06c-.22.06-.08,0-.26,0h.24s.05,0,0,.05h0c.32,0-.19,0-.05.05h-.13c-.07,0,0,0,.11.11l-.08,0c-.07,0-.06,0-.1.05a.86.86,0,0,0,.15,0c-.41-.08.12.2-.21.12,0,0,0-.06,0-.05v.1l.15.06c.05,0,.09.09.08.11a.44.44,0,0,0-.22-.12l.09.06c-.19-.08.2.12,0,.1l0,0s.07.09,0,.1,0-.05-.14-.11.19.19.06.14,0,0,0-.08-.12,0-.15,0h0c.27.22,0,.1.18.26-.16-.15-.1-.07-.23-.15s-.09,0-.12,0-.11,0,0,.11c-.05,0,0,0-.12-.06s.07,0,.12.08-.23,0-.07.17.18.19.22.28a.3.3,0,0,1-.14-.1c-.08,0-.08,0,0,.06L36,44.32s.14.11.06.1l-.15-.13a1.63,1.63,0,0,0,.11.17c-.08,0-.1-.09-.15-.12a.36.36,0,0,0,.14.19h0s-.1-.05-.12-.07.06,0,.1,0l0,0c.25.13,0-.09,0-.12l.16.13-.12-.13a.56.56,0,0,1,.17.11c.1,0,0-.06.06,0l0,0,0-.06s.13.08.09.08c.13,0-.09-.16.06-.09h0c0-.09-.13-.08-.25-.22l.33.17-.12-.09s0,0,.07,0-.06,0-.13-.1c.14,0,0-.12.2,0-.09-.08-.09,0-.14-.1.23.13,0-.06.11,0s0,.07.15.1c-.19-.13.07,0,.05-.07s0-.09-.06-.16.13,0,.21,0l0,0c-.15-.1-.1-.12-.11-.17A.52.52,0,0,1,37,44l0,0a.28.28,0,0,1-.08-.09l.12.08s-.1-.16,0-.18a1.42,1.42,0,0,1-.39-.2.56.56,0,0,1,.19.1s0,0,0,0l.09.07c.06,0-.08-.05-.06-.06s.08,0,.15,0,0,0,0,0a.35.35,0,0,1,.18,0,.37.37,0,0,1-.13-.07s.13,0,.19,0,0,0-.11-.09c0,0,.08,0,.12,0s.05-.12-.13-.12h0c-.12-.09.18-.13.16-.21h.06c0-.05,0-.1-.1-.11a.57.57,0,0,1,.21-.05s0,0,0,0,0,0,0,0,.09,0,.12,0,.1-.08-.12-.08c.18,0,.16-.07.1-.08l-.08.05a.06.06,0,0,1-.06-.05l.2,0c.11-.17-.53,0-.26-.21-.13,0,0,.09-.18.13s.16-.2.14-.21-.27.09-.27,0a.56.56,0,0,1-.24.16s.14-.21.2-.22,0,0,0,0a.14.14,0,0,0,.1-.06l-.05,0c0-.06,0-.1.05-.16a.09.09,0,0,0-.09.1c0-.11-.09-.08-.1-.16s0,.09-.06.08-.09.07-.15.06.15-.16.06-.14a.41.41,0,0,1,.14-.15c-.11.06,0-.11,0-.14l.05,0a0,0,0,0,1-.05,0l-.06.1a.07.07,0,0,1,0-.07c-.06,0-.12.16-.21.23s-.08,0,0-.12c0,.08.09-.12.15-.11s0,0,0,0l0,0c.05-.15-.13.12-.17.08a.27.27,0,0,0,.08-.13s-.09.12-.15.16-.06,0-.07,0v0c-.06.06-.07,0-.1,0s0,0,.06,0,0-.16,0-.11a1.36,1.36,0,0,0,.12-.17c-.1.06,0-.12,0-.08a.36.36,0,0,1-.15.15l.11,0-.14.11s.08,0,.08,0-.06,0-.11.13c.09-.16-.12,0-.07-.08l.19-.23c0-.13-.17.06-.18,0v0c-.09.08-.05,0-.1,0a.59.59,0,0,0,.11-.17c0,.06,0,0-.17.11l.06-.12c0-.08-.23.18-.25.12s.11-.15.19-.18,0,0-.06,0-.13.07-.08,0-.1.11-.11.09l0,0s-.07,0-.12.13c.15-.28-.14-.09,0-.32a.29.29,0,0,1-.14,0l0,0c0-.1-.21.2-.18.08s.07-.05.1-.1c.2-.26-.08,0,0-.18h0c0-.11-.14,0-.16,0l0,0a.36.36,0,0,1-.27.11.44.44,0,0,0,.13-.14s-.13.17-.18.17a1,1,0,0,1,.13-.24l0,0c.1-.15,0,0,0-.07l0,0c-.06,0-.19.13-.23.08l0,0c-.15.12.05-.11-.07,0l.11-.16a.64.64,0,0,1-.24.1,1.6,1.6,0,0,1,.28-.17s-.07,0-.14,0,.06,0,0,0-.2.14-.24.1c.26-.29,0-.15.14-.4-.15.06-.09-.15-.17-.19-.17.25,0,0-.22.23,0,0,0,0,0,0l.06-.19c.05-.08.06,0,.1-.09s.07-.11.1-.2c-.07.09-.1.12-.08.09l-.09.11c-.13.1.17-.2.05-.09l.07-.06-.23.13a.66.66,0,0,1,.13-.08s-.11,0-.17,0,0,0,0,0l.08,0s-.15,0-.07,0l.08,0s-.13,0-.08,0h.08c.1,0-.2,0-.25,0a1.46,1.46,0,0,0,.33,0h0c0-.09-.16-.18-.24-.27.25,0,.13-.17.27-.25a.38.38,0,0,1-.19,0s-.15-.07,0,0h0c.2,0,.15,0,.16-.07l-.26,0c.39,0-.11-.24.23-.25-.06,0-.06-.05-.12-.08l.14,0c0-.06.06-.08,0-.16l.1,0s-.4-.1-.41-.14l.22,0c0-.07.19-.12,0-.21l.1,0s.16-.11-.13-.13c.18,0,0-.07-.05-.11l.13,0c-.17-.06-.22-.06-.26-.11s.11,0,.07,0-.12,0,0-.07l.09,0s0,0-.13-.07,0-.06.17,0c-.08,0-.18-.05-.14-.06a.14.14,0,0,1,.09,0c.1-.05-.15-.11,0-.14h.08s0,.09,0,.08a1.05,1.05,0,0,1,.33,0c-.09,0-.3-.12-.23-.15h.06s0,0,0,0l0,0c.11,0,.06,0,.07-.06s-.11,0-.23,0a0,0,0,0,1,0,0h0v0c-.06,0-.12,0,0-.06l-.22-.05c.19,0,.3,0,.43,0-.08-.06,0-.14-.3-.21,0,0,.08,0,.12,0l.06,0c-.06,0,0-.1-.2-.13.09,0,.17.05.15,0l0,0c.31-.08-.45-.24,0-.32h-.07c.18-.13-.12-.32.16-.43.06,0-.06,0-.15-.09h.16l-.17-.06c-.12-.07.38-.06.15-.16h-.1s0-.1.06-.08-.1,0-.05,0h.08l-.13-.08c.07,0,.31,0,.34,0a.79.79,0,0,0-.27-.1.23.23,0,0,1-.14,0l0,0a1.78,1.78,0,0,0-.64,0l.14.06h-.11v0c-.11,0,0,0,0,.06h-.13l.22.07a.66.66,0,0,0-.23,0c.1,0,.2,0,.27,0-.11,0-.2,0-.11,0a.29.29,0,0,1-.12,0c.07,0,0,.06.14.09-.13,0,0,.07-.19.05,0,0,.17,0,.17.08-.25-.07,0,.07-.3,0,.23,0,.09.11.22.17l0,0s-.09,0-.14,0a1,1,0,0,1,.35.11c-.19,0-.22,0-.4-.06.15,0,.15.08.28.08a.73.73,0,0,1-.22,0c.24,0,0,0,.18.07-.12,0-.23,0-.16,0A.32.32,0,0,1,33.41,36.71Zm.31,1h0v0Zm0,.08a0,0,0,0,0,0,0l.1,0S33.75,37.8,33.71,37.8Zm1,0s0,0,0,0v0h.05Z"/><path class="cls-9" d="M34.52,37.7h0Z"/><path class="cls-9" d="M37.1,43.42h0Z"/><polygon class="cls-9" points="33.31 38.88 33.35 38.89 33.32 38.88 33.31 38.88"/><path class="cls-9" d="M36.41,43.62l0,0Z"/><path class="cls-9" d="M36.28,43.76h0Z"/><path class="cls-9" d="M36.14,43.85l0,0h0Z"/><path class="cls-9" d="M35.82,42.72h0Z"/><path class="cls-9" d="M36.52,42.88l-.07,0S36.45,42.92,36.52,42.88Z"/><polygon class="cls-9" points="35.1 42.35 35.1 42.35 35.1 42.34 35.1 42.35"/><path class="cls-9" d="M36.44,42.89s0,0,0,0S36.46,42.88,36.44,42.89Z"/><polygon class="cls-9" points="35.75 44.36 35.74 44.37 35.76 44.38 35.75 44.36"/><path class="cls-9" d="M35.76,44.38h0Z"/><path class="cls-9" d="M35.79,44.43l0,0S35.75,44.4,35.79,44.43Z"/><path class="cls-9" d="M35.91,44.23l0,0Z"/><path class="cls-9" d="M35.92,44.17s-.11,0-.09,0l0,0C35.8,44.15,36,44.23,35.92,44.17Z"/><path class="cls-9" d="M36.59,44.3l-.06,0s.12,0,.12.07C36.82,44.43,36.54,44.34,36.59,44.3Z"/><path class="cls-9" d="M36.74,44.21s.07,0,.09.06S36.79,44.21,36.74,44.21Z"/><path class="cls-9" d="M37.48,43l.16,0S37.58,43,37.48,43Z"/><polygon class="cls-9" points="36.55 43.06 36.47 43.1 36.61 43.06 36.55 43.06"/><polygon class="cls-9" points="37.42 42.6 37.45 42.6 37.36 42.59 37.42 42.6"/><path class="cls-9" d="M35.72,41.26l-.09.12S35.77,41.24,35.72,41.26Z"/><path class="cls-9" d="M35,40.86c0-.06.06-.12,0-.07S35,40.87,35,40.86Z"/><polygon class="cls-9" points="34.54 39.25 34.59 39.27 34.55 39.23 34.54 39.25"/><path class="cls-9" d="M43.93,36.83s-.07-.13-.07-.1l.07.15Z"/><path class="cls-9" d="M43.68,36.61a1.33,1.33,0,0,0,.17.34,2.49,2.49,0,0,0-.11-.26s0,0,.08.08,0,0,0-.07-.11-.09-.08,0Z"/><path class="cls-9" d="M42.16,37.21h0Z"/><path class="cls-9" d="M42,38.15h0Z"/><path class="cls-9" d="M41.86,38.42h0S41.85,38.42,41.86,38.42Z"/><path class="cls-9" d="M42.16,37.21l-.08,0C42.13,37.23,42.13,37.21,42.16,37.21Z"/><path class="cls-9" d="M43.71,37.07a.43.43,0,0,1,0,0v0Z"/><path class="cls-9" d="M42.53,36.83h0l0-.06Z"/><path class="cls-9" d="M42.8,36.65a1,1,0,0,0,.08.18.42.42,0,0,1,0-.09Z"/><path class="cls-9" d="M43.36,36.61v0Z"/><path class="cls-9" d="M42.26,37l0,0Z"/><path class="cls-9" d="M41.94,45.23h0Z"/><polygon class="cls-9" points="41.16 45.14 41.16 45.13 41.09 45.09 41.16 45.14"/><path class="cls-9" d="M41.81,38.76Z"/><path class="cls-9" d="M43,41.21c.1-.08.17,0,.28-.11C43.19,41.12,43,41.14,43,41.21Z"/><path class="cls-9" d="M43.69,37.05h0S43.69,37.06,43.69,37.05Z"/><polygon class="cls-9" points="43.24 41.1 43.24 41.1 43.25 41.09 43.24 41.1"/><path class="cls-9" d="M42.15,39.35l.06,0Z"/><path class="cls-9" d="M42.14,38.81v0Z"/><path class="cls-9" d="M42.44,39.52s0,0,0,0h0S42.42,39.53,42.44,39.52Z"/><polygon class="cls-9" points="42.55 39.77 42.57 39.75 42.56 39.75 42.55 39.77"/><path class="cls-9" d="M42.35,44.51l-.11-.06C42.33,44.5,42.34,44.55,42.35,44.51Z"/><path class="cls-9" d="M43.67,37l0,0h0Z"/><path class="cls-9" d="M43.46,39.1v0A0,0,0,0,0,43.46,39.1Z"/><path class="cls-9" d="M43.44,42.88v0S43.46,42.89,43.44,42.88Z"/><path class="cls-9" d="M43.53,39.26l-.08.06h0Z"/><path class="cls-9" d="M42.24,44.45Z"/><path class="cls-9" d="M42.36,44.87s-.14-.12-.22-.19.12.06.21.1-.15-.17-.13-.18l.06,0c-.1-.11,0-.08-.08-.22l0,0L42,44.31s-.08-.1,0,0,0,0,0,.06l0-.05c.16.08,0,.06.14.13s-.12-.18-.06-.18,0,.09.16.14h-.08c.24.13,0,0,.22.15.08,0,0-.1,0-.12a2.31,2.31,0,0,0-.19-.14c-.09-.17.39.19.24,0s-.26-.21-.14-.18l.15.12s-.21-.18-.07-.16,0,.08,0,.08-.07-.08,0-.11l.14.09c0-.06-.05-.19,0-.26a.6.6,0,0,0,.13.09c0-.12.12-.14.25-.15l-.1-.11.08.05c.06,0-.08-.05-.12-.1s.09,0,.11.06-.13-.28,0-.24l0,0c.07,0-.22-.21-.08-.17v0c.11,0,.06-.21.29-.15-.17-.13.13,0-.11-.2.16,0,.19.08.32.07s-.14-.13-.15-.17l.13.08-.11-.12.16.09,0,0-.1,0c0-.07.14,0,.21,0l-.06-.15a.73.73,0,0,1,.09.1c-.11-.13.13.08,0,0a.61.61,0,0,1-.1-.07c.09,0,.12,0,.11-.06l.08.07c.06,0,0-.15.09-.22a.37.37,0,0,1-.21-.14l.14.09c-.07-.07-.06,0-.15-.11s.17.09.2.13l0-.06c.05,0,.06.05.11.08s.17,0,0-.07l0,0c0-.06,0-.12,0-.18s-.08-.07-.16-.16c.08,0,.22-.05.27-.14s-.1-.06-.17-.12c.13,0,.17,0,.23,0a.35.35,0,0,0,0-.27h-.15s.09,0,.16,0h0s0,0,0-.05.28-.31,0-.39h0L44,41.06c0-.06.11,0,.17-.05-.27-.08-.06-.22-.22-.22.33-.2-.09-.17.1-.33l-.08,0c-.09,0,0,0,0-.06s-.06.05-.11.06,0-.36,0-.54-.44.15-.27,0l.16-.05c-.23,0-.09-.23-.29-.27,0,0,.08,0,.09,0s0-.08-.12,0,.08,0,.12-.07-.17,0-.06-.06h0c-.06,0,0-.07-.14,0,0-.07-.09-.06,0-.12-.15,0,0-.1-.16,0,.21-.09.13-.15,0-.13.07,0,.06-.05.15-.08s-.06,0-.17,0c.23-.16-.24,0,.06-.19a1,1,0,0,1-.34-.15c.21-.09.06.08.28,0-.12,0-.32,0-.3-.1s.1,0,.13,0,0-.16-.18-.17H43s0,0-.07,0h0a1.44,1.44,0,0,1-.38.09c.28-.09,0-.09.39-.2a.34.34,0,0,0-.13,0s0,0,.13-.06-.17,0-.18,0l.12,0c-.1,0-.2,0-.17,0s.06,0,.06,0-.28,0-.22-.11c.21-.07.05-.06.23-.13h-.06l-.08,0s-.14,0-.09,0h.08l0,0-.06,0c-.11,0-.23,0-.2,0s0,0,.1-.06h0c-.06,0-.14,0-.1,0h.26c-.17,0-.06,0-.25-.06h.18l-.15,0h.15s-.26,0-.16,0l.06,0s-.13-.09-.07-.11c.23,0,.07,0,.25.07l-.21-.12s0,0,0-.05h0c-.3-.13.19,0,.06,0l.13.06c.07,0,0-.06,0-.14l0,.05c.07,0,.08,0,.12,0a.66.66,0,0,0-.12-.12c.33.26,0-.23.25,0,0,0,0,.07,0,.06l0-.09c-.07-.1-.05,0-.11-.12s0-.12,0-.13.1.16.14.2l0-.09c.14.16-.11-.21,0-.11l0,.05s0-.11,0-.11,0,.06.07.16-.07-.25,0-.15a.27.27,0,0,0,0,.09c.1.12.08.08.12.09h0l.08,0,0,0c-.14-.32,0-.1,0-.32.07.21.06.11.13.25a.43.43,0,0,1,.09.1c0-.12.08.06,0-.11,0,0,0,0,.08.1,0,0,0-.07-.07-.13s.2.12.14-.11-.07-.26-.06-.36a.42.42,0,0,1,.07.16c.07,0,.08,0,.08,0a.34.34,0,0,0,.07.11s-.08-.16,0-.11l.08.18c0-.05,0-.14,0-.2a.37.37,0,0,1,.07.18.28.28,0,0,0,0-.23l0,0s.07.09.07.12-.05,0-.08-.06v0c-.16-.24,0,.08-.09.09l-.09-.19.05.17a.51.51,0,0,1-.09-.18c-.08-.07,0,.08-.07,0a0,0,0,0,1,0,0v.07s-.07-.13,0-.11,0,.18-.09,0h0c0,.09.07.13.11.31l-.22-.31.07.14s0,0,0-.06c0,.11,0,.06.07.15-.1-.1-.05.1-.18-.1,0,.1.08.06.09.15-.15-.22,0,.06-.11,0s0-.07-.08-.16c.1.2-.08,0-.08,0s0,.09,0,.17-.12,0-.19-.08l0,0c.09.16,0,.15,0,.2a.49.49,0,0,1-.09-.18h0a.45.45,0,0,1,0,.11l-.07-.12s0,.18-.1.14c.08.11.24.28.25.37s-.12-.15-.12-.18,0,.05,0,0l-.05-.11s.05.09,0,.09l-.11-.11s0,0,0,0a.3.3,0,0,1-.16-.08.49.49,0,0,1,.08.12s-.1-.08-.17-.1-.05,0,.07.13-.07,0-.11-.06-.1.08.06.17h0c.06.13-.23,0-.24.11l-.06,0s-.06.07,0,.14l-.2-.05s0,0,0,0,0,0,0,0-.09,0-.09-.06-.12,0,.06.12c-.16-.06-.17,0-.12,0h.1s0,0,0,.07l-.2-.05c-.17.1.48.24.14.31.14,0,.06-.07.22,0,0,0-.24.11-.23.13s.28,0,.25.12a.52.52,0,0,1,.28,0s-.22.11-.28.09,0,0,0,0a.12.12,0,0,0-.12,0h.06c-.05,0,0,.11-.11.12a.09.09,0,0,0,.12-.05c-.06.09,0,.12,0,.19l.09,0c0,.1.12,0,.16,0s-.2.08-.11.09a.42.42,0,0,1-.2.08c.13,0,0,.1,0,.13h-.06s0,0,0,0l.11-.06s0,0-.06,0,.18-.08.29-.1c-.05,0,.08,0-.06.1,0-.08-.15.06-.19,0s0,0,0,0h0c-.11.11.18,0,.19,0s-.15.08-.12.08.13-.07.2-.08.06,0,.06,0l0,0c.09,0,.08,0,.12,0s-.05,0-.08,0c.16,0-.12.12,0,.12,0,0-.15.06-.18.1.12,0-.1.09,0,.09a.26.26,0,0,1,.19-.06l-.1,0,.18,0s-.09,0-.08,0a.3.3,0,0,0,.16-.05c-.15.09.12,0,0,.09l-.27.12c-.1.1.18,0,.14.12l0,0c.12,0,0,0,.09,0a.65.65,0,0,0-.17.09c.06,0,0,0,.2,0l-.11.08c0,.08.28-.05.27,0s-.16.07-.24.07,0,0,.06,0,.14,0,.06.05.14-.05.14,0h-.05a.28.28,0,0,0,.17-.05c-.26.17.08.14-.14.28a.35.35,0,0,1,.11.09h0c-.07.08.27-.08.2,0s-.1,0-.14,0c-.3.13.06,0-.1.15h0c-.09.07.14,0,.14.07l0,0a.43.43,0,0,1,.3,0c-.13,0-.07,0-.19.06,0,0,.19-.08.24-.06a1.13,1.13,0,0,1-.23.15l0,0c-.16.08,0,0,0,.07l-.07,0c.05,0,.23,0,.24,0l0,0c.19,0-.09.07.06.05l-.18.09a1.14,1.14,0,0,1,.26,0,1.39,1.39,0,0,1-.32,0s0,.06.13,0-.07,0,0,0,.24,0,.25,0c-.35.14,0,.14-.3.29.16,0,0,.17.06.25.26-.15,0,0,.3-.1,0,0,0,0,0,0l-.15.13c-.07.05-.07,0-.13,0s-.11.07-.17.12c.1,0,.14,0,.11,0L43,41.3c.17,0-.23.09-.07.06l-.1,0H43s.11,0,.17,0,0,0,0,0l-.08,0s.14,0,.06,0l-.09,0s.13,0,.08,0l-.08,0c-.1,0,.18.1.2.16a1.31,1.31,0,0,0-.3-.14l0,0c-.08.07.06.24.08.36-.23-.09-.19.09-.35.09a.47.47,0,0,1,.15.12c-.05,0,.09.14-.07,0h0c-.17-.1-.15,0-.18,0l.22.15c-.37-.15,0,.27-.32.11,0,.05,0,.07.07.13l-.12-.08a.12.12,0,0,0-.1.12l-.08-.07s.31.27.29.3l-.18-.11c0,.06-.23,0-.11.18,0,0-.07,0-.07-.07s-.19,0,0,.18c-.15-.1,0,.05,0,.13L42,42.92c.13.12.17.15.19.21s-.1-.05-.06,0,.09.1,0,.09l-.07-.06s0,0,.09.12-.07,0-.18,0c.06,0,.14.12.1.12L42,43.27c-.12,0,.08.16-.06.12l-.07,0,.06-.06c-.1-.07-.14,0-.27-.18.06.08.2.25.13.24l0,0h0s0,0,0,0h0c-.09-.06-.07,0-.09,0s.08.09.19.14a0,0,0,0,1,0,0h0l0,0s.09.1,0,.07l.17.15c-.17-.09-.29-.1-.39-.17,0,.1,0,.15.16.33,0,0-.08,0-.11-.05s0,0,0,0,0,.09.11.2c-.09,0-.12-.11-.13,0l0,0c-.31-.07.28.42-.1.31l.06,0c-.22,0,0,.33-.34.3-.07,0,0,.07.09.15l-.13-.08.12.13c.07.12-.36-.12-.21.08l.09,0s0,.1-.09,0,.08.07,0,0l-.07,0,.08.13c-.08,0-.26-.18-.31-.13A.66.66,0,0,0,41,45s.06,0,.13.05l0,0a1.78,1.78,0,0,0,.54.33l-.09-.12.1,0,0,0c.1,0,0,0,0-.07l.11,0-.16-.16c.08,0,.14.12.2.13s-.18-.1-.22-.17.17.1.11,0a.25.25,0,0,1,.09.07c0-.05,0-.06-.08-.14.12.06,0-.08.19,0,0,0-.12-.13-.12-.16.2.18.06-.05.29.12-.18-.16,0-.14-.11-.26s0,0,0,0,.09,0,.14,0a1,1,0,0,1-.26-.26c.17.08.18.15.33.24-.13-.09-.1-.14-.21-.2a.65.65,0,0,1,.2.09c-.2-.14,0,0-.13-.14.12,0,.19.12.15,0A.3.3,0,0,1,42.36,44.87Zm.19-1h0v0Zm.05-.06,0,0s-.08,0-.07-.06S42.56,43.75,42.6,43.77Zm-.9-.41s0,0,0,0a0,0,0,0,0,0,0h0Z"/><path class="cls-9" d="M41.83,43.48h0l0,0Z"/><path class="cls-9" d="M42.19,37.22Z"/><polygon class="cls-9" points="43.45 42.99 43.42 42.97 43.44 43 43.45 42.99"/><path class="cls-9" d="M42.89,37.36s0,0,0,0Z"/><path class="cls-9" d="M43.08,37.29l0,0Z"/><path class="cls-9" d="M43.24,37.28l0-.05h0Z"/><path class="cls-9" d="M43,38.44h0Z"/><path class="cls-9" d="M42.45,38h0Z"/><polygon class="cls-9" points="43.47 39.09 43.46 39.09 43.46 39.1 43.47 39.09"/><path class="cls-9" d="M42.53,38s0,0,0,0S42.51,38,42.53,38Z"/><polygon class="cls-9" points="43.83 37.01 43.84 37.01 43.83 36.99 43.83 37.01"/><path class="cls-9" d="M43.82,37v0Z"/><path class="cls-9" d="M43.82,36.93v0S43.84,37,43.82,36.93Z"/><path class="cls-9" d="M43.62,37.05l0,.05Z"/><path class="cls-9" d="M43.58,37.1s.09.07.09,0l0,0C43.68,37.17,43.55,37,43.58,37.1Z"/><path class="cls-9" d="M43.05,36.68h.06s-.08-.1-.07-.12S43.11,36.66,43.05,36.68Z"/><path class="cls-9" d="M42.87,36.69s0-.07,0-.1S42.83,36.66,42.87,36.69Z"/><path class="cls-9" d="M41.67,37.39l-.15-.06S41.58,37.35,41.67,37.39Z"/><polygon class="cls-9" points="42.51 37.79 42.6 37.8 42.46 37.76 42.51 37.79"/><polygon class="cls-9" points="41.53 37.8 41.5 37.78 41.58 37.84 41.53 37.8"/><path class="cls-9" d="M42.41,39.77l.14-.06S42.36,39.77,42.41,39.77Z"/><path class="cls-9" d="M42.88,40.46c-.07,0-.11.08,0,.06S42.9,40.46,42.88,40.46Z"/><polygon class="cls-9" points="42.53 42.1 42.5 42.06 42.51 42.11 42.53 42.1"/><path class="cls-9" d="M40.34,31.41s-.07-.12-.07-.1l.07.15Z"/><path class="cls-9" d="M40.1,31.2a1.1,1.1,0,0,0,.16.34c-.06-.15,0-.1-.1-.27,0,0,.05,0,.07.09s0,0,0-.08-.11-.09-.08,0A.47.47,0,0,1,40.1,31.2Z"/><path class="cls-9" d="M38.57,31.8h0S38.58,31.79,38.57,31.8Z"/><path class="cls-9" d="M38.36,32.74h0Z"/><path class="cls-9" d="M38.28,33v0S38.26,33,38.28,33Z"/><path class="cls-9" d="M38.57,31.8l-.08,0A.1.1,0,0,0,38.57,31.8Z"/><path class="cls-9" d="M40.12,31.65s0,0,0,0v0Z"/><path class="cls-9" d="M38.94,31.42h0l0-.07Z"/><path class="cls-9" d="M39.21,31.24a1,1,0,0,0,.09.17.25.25,0,0,1,0-.09Z"/><path class="cls-9" d="M39.77,31.2v0Z"/><path class="cls-9" d="M38.67,31.55l0,0Z"/><path class="cls-9" d="M38.35,39.82l0,0Z"/><polygon class="cls-9" points="37.57 39.73 37.57 39.72 37.5 39.67 37.57 39.73"/><path class="cls-9" d="M38.22,33.35h0S38.21,33.35,38.22,33.35Z"/><path class="cls-9" d="M39.37,35.8c.1-.08.17,0,.28-.12C39.6,35.71,39.43,35.73,39.37,35.8Z"/><path class="cls-9" d="M40.1,31.64h0Z"/><polygon class="cls-9" points="39.65 35.68 39.65 35.68 39.66 35.67 39.65 35.68"/><path class="cls-9" d="M38.57,33.94l0,0Z"/><path class="cls-9" d="M38.55,33.4h0Z"/><path class="cls-9" d="M38.85,34.1s0,0,0,0h0S38.83,34.12,38.85,34.1Z"/><polygon class="cls-9" points="38.96 34.35 38.98 34.34 38.97 34.34 38.96 34.35"/><path class="cls-9" d="M38.77,39.09,38.66,39C38.74,39.08,38.75,39.14,38.77,39.09Z"/><path class="cls-9" d="M40.08,31.58a.39.39,0,0,1,0,.06h0Z"/><path class="cls-9" d="M39.88,33.68v0A.07.07,0,0,0,39.88,33.68Z"/><path class="cls-9" d="M39.86,37.46v0S39.87,37.48,39.86,37.46Z"/><path class="cls-9" d="M39.94,33.84l-.08.06h0Z"/><path class="cls-9" d="M38.65,39h0Z"/><path class="cls-9" d="M38.77,39.46s-.14-.12-.22-.19.12.06.21.1-.15-.17-.13-.19l.07,0c-.11-.11,0-.09-.09-.22l0,0-.21-.14s-.08-.09,0,0,0,0,.06.06l0,0c.16.08,0,0,.14.12s-.11-.18-.06-.17,0,.09.16.14h-.08c.24.12,0,0,.22.15.08,0,0-.11,0-.13s-.11-.07-.19-.14.39.19.24,0-.26-.2-.14-.17l.15.12c.05,0-.21-.19-.07-.16s0,.07.05.08-.07-.09-.05-.11l.14.09c0-.07,0-.19,0-.26a.35.35,0,0,0,.13.08c0-.12.12-.14.25-.15l-.1-.1s.06,0,.08,0-.08,0-.12-.09.09,0,.12.06c-.07-.12-.13-.29,0-.25l0,0c.07,0-.22-.22-.08-.17v0c.11,0,.07-.22.29-.16-.16-.13.14,0-.1-.2.15,0,.18.08.31.07s-.13-.13-.14-.17l.12.09-.11-.12.16.08,0,0a.29.29,0,0,1-.1,0c0-.07.14,0,.21,0l-.06-.15.09.09c-.1-.13.14.09,0,0a.61.61,0,0,0-.1-.07c.09,0,.12,0,.11-.07l.09.07c.06,0,0-.15.08-.21A.41.41,0,0,1,40,37l.14.08c-.07-.07-.06,0-.15-.11s.17.09.2.13l0-.06.1.09c-.07-.07.17,0,0-.08l0,0c0-.06,0-.12,0-.18s-.08-.08-.16-.17c.08,0,.22,0,.27-.14s-.1-.06-.17-.11c.13,0,.17,0,.23,0a.29.29,0,0,0,0-.26c-.07,0-.1,0-.14,0s.08,0,.15,0h0a0,0,0,0,1,0-.06c-.06-.1.28-.3,0-.39h0l-.19-.09c0-.06.11,0,.17-.06-.27-.08-.06-.22-.21-.22.32-.19-.1-.16.09-.32l-.08,0c-.09,0,0,0,.05-.06s-.06,0-.11.06,0-.35,0-.53-.44.14-.27,0l.16,0c-.23,0-.09-.23-.29-.27,0,0,.08,0,.09,0s0-.09-.12-.05.08,0,.12-.07-.17,0-.06-.05H40c-.06,0,0-.08-.14,0,0-.07-.09-.05,0-.12-.15,0,0-.1-.16,0,.21-.08.14-.14,0-.12.06,0,.05,0,.14-.08s-.06,0-.17,0c.23-.16-.24,0,.06-.19a1.59,1.59,0,0,1-.34-.14c.21-.09.06.07.28,0-.12,0-.32,0-.3-.1s.1,0,.14,0c-.12,0,0-.15-.19-.17h.07s0,0-.08,0h0a1.53,1.53,0,0,1-.38.1c.28-.09,0-.1.4-.2,0,0-.07,0-.14,0a.26.26,0,0,1,.13-.06c-.07,0-.17,0-.18,0l.12,0c-.1,0-.2,0-.17,0s.06,0,.06,0-.28,0-.22-.11.06-.05.23-.12h-.06l-.08,0s-.14,0-.09,0h.08l0,0-.06,0c-.1,0-.23.06-.2,0s0,0,.1-.06h0c-.06,0-.13,0-.09,0l.26,0c-.17,0-.07,0-.26-.06H39s-.26,0-.16,0h.06s-.12-.08-.07-.11c.23.05.07,0,.26.08l-.22-.13s0,0,0,0h0c-.3-.13.19,0,.07,0l.12.06c.07,0,0-.06-.05-.14l.06,0c.07,0,.07,0,.11,0s0,0-.11-.11c.32.26,0-.24.24,0,0,0,0,.06,0,.06l0-.09-.1-.13c0-.06,0-.12,0-.13a.43.43,0,0,0,.14.21l-.06-.1c.14.16-.11-.2,0-.11l0,.06s0-.12,0-.11,0,.06.06.16-.07-.25,0-.15,0,.05,0,.09.09.08.12.09h0l.08,0,0,0c-.14-.32,0-.09,0-.31.07.21.06.11.13.24a.21.21,0,0,1,.09.1c0-.12.09.06,0-.11,0,0,0,0,.09.1,0,0,0-.07-.08-.12s.2.12.14-.12-.07-.25-.06-.35a.44.44,0,0,1,.08.16c.06,0,.07,0,.07,0a.34.34,0,0,0,.07.11s-.07-.16,0-.11.06.12.08.18a1.5,1.5,0,0,1,0-.2.56.56,0,0,1,.07.17.34.34,0,0,0,0-.23l0,0a.44.44,0,0,1,.06.12c0,.11,0,0-.08-.06v0c-.16-.24,0,.08-.08.08l-.1-.19.06.17a.44.44,0,0,1-.1-.17c-.08-.08,0,.07-.06,0s0,0,0,0v.06s-.08-.12-.05-.1,0,.17-.09,0h0c0,.1.07.14.11.32l-.22-.31.07.14s0,0-.05-.06,0,0,.07.15c-.1-.11,0,.1-.18-.11.05.11.08.06.09.15-.14-.22,0,.06-.1,0s0-.08-.09-.17c.1.21-.08,0-.08,0s0,.1,0,.17-.12,0-.19-.08l0,0c.09.17,0,.16,0,.21A.51.51,0,0,1,39,31.4l0,0a.3.3,0,0,1,0,.11l-.07-.12s0,.18-.1.14c.08.1.24.27.25.36s-.12-.14-.12-.18,0,.06,0,0l0-.11c-.05,0,0,.09,0,.09s-.06-.05-.11-.11,0,0,0,0a.3.3,0,0,1-.16-.08s.09.1.08.12-.1-.08-.17-.1,0,0,.07.13-.07,0-.11-.07-.1.09.06.17h0c.06.13-.23,0-.24.12l-.05,0c0,.06-.07.08,0,.14a.51.51,0,0,1-.2-.05s0,0,0,.05,0,0,0,0-.09,0-.1-.07-.12,0,.06.12c-.16-.06-.17,0-.11,0h.09a.09.09,0,0,1,0,.08l-.21-.06c-.17.1.48.25.14.31.14,0,.06-.06.22,0,0,0-.24.11-.23.13s.28,0,.25.12a.67.67,0,0,1,.29,0,.44.44,0,0,1-.29.1s0,0,0,0a.11.11,0,0,0-.12,0h.06s0,.11-.11.12a.09.09,0,0,0,.12,0c-.06.08,0,.11,0,.18s.09-.05.09,0,.12,0,.16,0-.2.07-.11.09a.4.4,0,0,1-.19.07c.12,0,0,.11,0,.14h0a.07.07,0,0,1,0,0l.1-.06s0,0-.06.05a1.63,1.63,0,0,1,.29-.1s.08,0-.06.09c0-.07-.14.07-.19,0s0,0,0,0h0c-.1.1.18-.05.2,0s-.15.08-.13.08.13-.06.2-.07.06,0,.06,0l0,0c.09,0,.09,0,.12,0s0,0-.08,0c.16,0-.12.12,0,.11-.05,0-.15.07-.18.1s-.1.09,0,.1a.35.35,0,0,1,.2-.07l-.11,0,.18,0s-.09,0-.08,0a.31.31,0,0,0,.16-.06c-.15.1.12,0,0,.1l-.27.11c-.1.1.18,0,.14.13l0,0c.11,0,0,0,.08,0a1.09,1.09,0,0,0-.17.1c.07,0,0,.05.2,0l-.11.08c0,.07.28,0,.27,0a1,1,0,0,1-.24.08s0,0,.06,0,.14,0,.06,0,.14,0,.14,0l0,0s.07,0,.16-.06c-.26.18.09.14-.14.29a.38.38,0,0,1,.12.09h0c-.07.08.27-.09.2,0s-.09,0-.14,0c-.3.14.07,0-.09.16h0c-.09.07.15,0,.14.07l0,0a.44.44,0,0,1,.3,0,.73.73,0,0,0-.19.07s.19-.09.24-.06a.84.84,0,0,1-.23.14l0,0c-.16.09,0,0,0,.08l-.07,0c0,.05.23,0,.24,0l.05,0c.2,0-.09.07.06,0l-.18.09a.74.74,0,0,1,.26,0,2,2,0,0,1-.32,0s0,.07.14,0-.08,0-.05,0,.24,0,.25,0c-.35.14,0,.15-.3.29.16,0,0,.18.06.25.26-.14,0,0,.3-.1,0,0,0,0,0,0l-.14.14c-.08,0-.07,0-.14,0s-.11.07-.17.13l.11,0,.13-.06c.16,0-.24.1-.08.06l-.1,0h.11s.11,0,.17,0,0,0,0,0h-.08s.14,0,.06,0l-.08,0s.13,0,.08,0l-.09,0c-.1,0,.19.1.2.16a1.31,1.31,0,0,0-.3-.13l0,0c-.08.06.06.23.08.35-.23-.09-.19.1-.35.1a.36.36,0,0,1,.15.12s.1.13-.07,0h0c-.17-.1-.15,0-.18,0l.22.16c-.37-.15,0,.26-.32.1,0,.06,0,.08.07.13l-.12-.08c-.06,0-.09,0-.1.12L38.58,37s.31.27.3.31l-.18-.11c0,.06-.23,0-.12.18l-.07-.07s-.19,0,.06.18c-.16-.11-.06,0,0,.12l-.11-.08c.13.13.16.16.18.22s-.1-.06-.06,0,.09.1,0,.09l-.07-.06s0,0,.09.12-.07,0-.17,0c.06.05.13.13.09.12a.23.23,0,0,1-.07-.06c-.12,0,.08.17-.06.13l-.07,0s.06-.06.07,0a1.18,1.18,0,0,1-.28-.18c.06.08.21.24.13.24l0,0h0s0,0,0,0h-.05c-.09,0-.07,0-.09,0s.09.09.2.13,0,0,0,0,0,0,0,0h0a.17.17,0,0,1,0-.05c0,.06.09.1,0,.08l.17.15c-.17-.09-.29-.11-.39-.17s0,.14.16.32c0,0-.07,0-.11,0s0,0,0-.06,0,.1.12.21c-.1,0-.13-.12-.14,0l0,0c-.31-.07.28.42-.1.31l.06,0c-.22,0,0,.34-.34.31-.06,0,0,.07.09.14l-.13-.08.12.14c.07.12-.36-.13-.21.07l.09,0s0,.11-.09,0,.08.06,0,0l-.06,0,.07.13c-.08,0-.25-.18-.31-.13a.79.79,0,0,0,.19.22s.06,0,.13,0l0,0a1.73,1.73,0,0,0,.54.32L38,39.93l.1,0v0c.1.05,0,0,0-.07a.41.41,0,0,0,.11.06L38,39.84c.08,0,.14.12.2.12s-.18-.1-.22-.16.17.09.11,0l.1.08c0-.06,0-.07-.09-.14.12.05,0-.08.19,0,0,0-.12-.13-.11-.15.19.18.05,0,.28.11-.18-.15,0-.14-.11-.25l0,0s.09,0,.14,0a2.08,2.08,0,0,1-.26-.26c.17.08.18.14.33.24-.13-.09-.09-.14-.21-.21a1.22,1.22,0,0,1,.2.1c-.2-.14,0,0-.13-.15.12,0,.19.13.15.05A.3.3,0,0,1,38.77,39.46Zm.19-1h0v0Zm0-.07,0,0-.07-.06S39,38.34,39,38.35Zm-.9-.41s0,0,0,0v0h0Z"/><path class="cls-9" d="M38.25,38.07h0l0,0Z"/><path class="cls-9" d="M38.6,31.8Z"/><polygon class="cls-9" points="39.86 37.58 39.83 37.56 39.85 37.58 39.86 37.58"/><path class="cls-9" d="M39.31,32s0,0,0,0Z"/><path class="cls-9" d="M39.49,31.88l0,0Z"/><path class="cls-9" d="M39.65,31.86l0-.05h0Z"/><path class="cls-9" d="M39.42,33Z"/><path class="cls-9" d="M38.86,32.55h.08S38.94,32.54,38.86,32.55Z"/><polygon class="cls-9" points="39.88 33.68 39.87 33.68 39.88 33.68 39.88 33.68"/><path class="cls-9" d="M38.94,32.58s0,0,0,0S38.92,32.58,38.94,32.58Z"/><polygon class="cls-9" points="40.24 31.59 40.25 31.6 40.24 31.58 40.24 31.59"/><path class="cls-9" d="M40.24,31.58v0S40.23,31.56,40.24,31.58Z"/><path class="cls-9" d="M40.23,31.52v0S40.25,31.56,40.23,31.52Z"/><path class="cls-9" d="M40,31.64l0,0Z"/><path class="cls-9" d="M40,31.68s.09.08.09,0l0,0C40.09,31.75,40,31.6,40,31.68Z"/><path class="cls-9" d="M39.46,31.26h.06s-.08-.1-.07-.12S39.53,31.25,39.46,31.26Z"/><path class="cls-9" d="M39.28,31.27s0-.06-.05-.09S39.24,31.24,39.28,31.27Z"/><path class="cls-9" d="M38.08,32l-.15-.06S38,31.94,38.08,32Z"/><polygon class="cls-9" points="38.93 32.37 39.02 32.38 38.87 32.35 38.93 32.37"/><polygon class="cls-9" points="37.94 32.38 37.91 32.37 37.99 32.42 37.94 32.38"/><path class="cls-9" d="M38.82,34.36l.15-.07S38.77,34.36,38.82,34.36Z"/><path class="cls-9" d="M39.29,35.05c-.07,0-.11.08,0,.06S39.31,35.05,39.29,35.05Z"/><polygon class="cls-9" points="38.94 36.69 38.91 36.64 38.93 36.69 38.94 36.69"/></g></g></svg>