<svg xmlns="http://www.w3.org/2000/svg" viewBox="0 0 46.55 58.89"><defs><style>.cls-1{fill:#3f323a;}.cls-2{fill:#b1b5ba;}.cls-3{fill:#929496;}.cls-4,.cls-6{fill:none;}.cls-5{fill:#7285a5;}.cls-6,.cls-7{stroke:#7285a5;stroke-miterlimit:10;}.cls-6{stroke-width:1.5px;}.cls-7{fill:#b29084;}</style></defs><g id="Layer_2" data-name="Layer 2"><g id="pot"><ellipse class="cls-1" cx="20.18" cy="22.65" rx="5.6" ry="4.22"/><path class="cls-2" d="M9.94,45.25s-1-4.34,0-12.15,4.72-11.56,4.72-11.56a8.83,8.83,0,0,0,5.9,1.78c3.84-.1,4.91-1.78,4.91-1.78A30.16,30.16,0,0,1,30.8,32.92c.68,2.8,1.11,10.1.57,12.33a20.41,20.41,0,0,1-9,2.73C17.12,48.28,9.94,45.25,9.94,45.25Z"/><path class="cls-1" d="M30,36.75c3.09,0,4-6.71,4-6.71s.67-5.19-1.62-6-5.09.66-5.09.66L28,26.28s2.09-1.28,3.78-.22c1.27.81,1,3.44.33,5.33a11.72,11.72,0,0,1-2.45,3.38Z"/><polygon class="cls-2" points="14.56 22.16 10.83 21.97 12.69 25.42 14.56 22.16"/><polygon class="cls-3" points="10.83 21.97 14.56 22.16 13.9 23.31 10.83 21.97"/><path class="cls-1" d="M9.71,43.77,7.5,46.47s3.33,3.74,13.05,3.74c9.08,0,13.6-3.73,13.6-3.73l-2.59-2.71s-1.63,2.08-10.34,2.49A22.91,22.91,0,0,1,9.71,43.77Z"/></g><g id="pot_on" data-name="pot on"><path class="cls-4" d="M9.63,18.79a2.72,2.72,0,0,1,2.26-3.36,2.72,2.72,0,0,1,2.78,2.95,1.62,1.62,0,0,1-.51,1c-.76.63-1.89,0-2.69-.55a2.7,2.7,0,0,1-1.15-1.33c-.16-.57.27-1.33.86-1.23s.74.66.88,1.15a2.94,2.94,0,0,1-2.5-.67,1.78,1.78,0,0,1-.17-2.41,18.59,18.59,0,0,1-6-6.19c2.2-.83,4.6.3,6.68,1.41.31.16.66.4.65.75s-.59.62-1,.65A15.39,15.39,0,0,1,1.4,9.19a1.22,1.22,0,0,1,1.91,1.13,1.22,1.22,0,0,1-2.22.08.73.73,0,0,1,0-.44c.22-.64,1.22-.21,1.51.4a3.24,3.24,0,0,1-1.27,4.09,1,1,0,0,1-1.11.05c-.33-.3-.21-.84,0-1.26l2-5.42a3.52,3.52,0,0,0,.3-1.27,4.08,4.08,0,0,0-.2-1,10.91,10.91,0,0,1-.34-2.9c0-.7.23-1.56.91-1.72a1.68,1.68,0,0,1,.93.15A15.11,15.11,0,0,1,8,3.58c.55.47,1.08,1.36.52,1.82A4.53,4.53,0,0,1,7.07,1.49.69.69,0,0,1,7.33.94.78.78,0,0,1,8,1a7.86,7.86,0,0,1,4.3,3.57A4.06,4.06,0,0,1,11,2.46,2.27,2.27,0,0,1,11.06.94a1.81,1.81,0,0,1,2-.89,2.42,2.42,0,0,1,1.64,1.62,2.91,2.91,0,0,1-.81,3,2.91,2.91,0,0,1-3.05.48,3.08,3.08,0,0,1,1.67,1.78,2,2,0,0,1,.1,1.17,1.89,1.89,0,0,1-2.54,1A3.79,3.79,0,0,1,8.19,6.77a11.22,11.22,0,0,1,4.38,4.65l-1.76.47L12,15.63"/></g><g id="coffee"><path class="cls-5" d="M33.76,57.33S34,58.91,38,58.89c3.8,0,4-1.29,4-1.29L43.52,47s-.43,1.48-5.27,1.43c-6.08-.06-5.84-1.29-5.84-1.29Z"/><path class="cls-6" d="M42.25,49.54s1.94-1.57,3.14-.61-.63,4.82-.63,4.82-1.32,2.15-3.21,1.81"/><ellipse class="cls-7" cx="37.96" cy="47.04" rx="5.08" ry="1.37"/><polyline class="cls-4" points="33.39 34.89 32.86 39.31 36.16 42.04 35.1 43.73"/><polyline class="cls-4" points="40.27 44.14 42.78 40.46 41.12 36.52 42.84 35.52"/><polyline class="cls-4" points="36.68 38.73 39.19 35.05 37.53 31.11 39.25 30.1"/></g></g></svg>