<svg xmlns="http://www.w3.org/2000/svg" viewBox="0 0 206.74 205.13"><defs><style>.cls-1{fill:#728fc9;}.cls-2{fill:#3e5dab;}.cls-3{fill:#b1ceec;}.cls-4{fill:#d4e5f3;}.cls-5{fill:#fff;}.cls-6{fill:#9abcdb;}.cls-7{fill:#383838;}.cls-8{fill:#13264a;}.cls-9{fill:#565656;}.cls-10{fill:#7aacd2;}.cls-11{fill:#c1dbec;}.cls-12{fill:#6b4f5b;}.cls-13{fill:#26437e;}.cls-14{fill:#101010;}.cls-15{fill:#323034;}.cls-16{fill:#42323b;}.cls-17{fill:#fde2db;}.cls-18{fill:#dcbab3;}.cls-19{fill:#baa0cc;}.cls-20{fill:#9584ab;}.cls-21{fill:#090909;}.cls-22,.cls-24,.cls-25,.cls-26,.cls-27{fill:none;stroke-miterlimit:10;}.cls-22{stroke:#090909;stroke-width:0.72px;}.cls-23{fill:#382a1e;}.cls-24,.cls-25,.cls-26,.cls-27{stroke:#fff;}.cls-24{stroke-width:1px;}.cls-25{stroke-width:0.77px;}.cls-26{stroke-width:0.5px;}.cls-27{stroke-width:0.44px;}</style></defs><g id="Layer_2" data-name="Layer 2"><g id="Layer_1-2" data-name="Layer 1"><polyline class="cls-1" points="15.02 54.32 15.02 61.35 157.04 139.46 157.06 131.97 15.02 54.32"/><polyline class="cls-1" points="157.04 139.46 135.56 127.65 135.56 167.98 157.06 180.11 157.04 139.46"/><polygon class="cls-2" points="157.06 180.11 157.04 139.46 206.74 109.81 206.38 148.53 157.06 180.11"/><polygon class="cls-1" points="15.02 61.35 15.02 100.45 33.68 109.81 33.68 71.62 15.02 61.35"/><polygon class="cls-2" points="69.87 91.52 33.68 109.81 33.68 71.62 69.87 91.52"/><polygon class="cls-3" points="157.06 131.97 206.74 102.53 65.44 23.04 15.02 54.32 157.06 131.97"/><polygon class="cls-2" points="157.04 139.46 157.06 131.97 206.74 102.53 206.74 109.81 157.04 139.46"/><ellipse class="cls-2" cx="155.82" cy="106.27" rx="6.01" ry="4.49" transform="translate(-22.76 166.95) rotate(-53.06)"/><ellipse class="cls-4" cx="155.47" cy="105.97" rx="6.01" ry="4.49" transform="translate(-22.66 166.55) rotate(-53.06)"/><ellipse class="cls-2" cx="156.15" cy="102.87" rx="1.18" ry="0.58" transform="translate(-19.91 165.86) rotate(-53.06)"/><path class="cls-5" d="M156.21,102.78a1.52,1.52,0,0,1,.55-.75"/><path class="cls-2" d="M119.7,69.82l8.7-7.38L162,81.75l-12,8.78a5.44,5.44,0,0,1-6.07.24L120.18,76.15a3.92,3.92,0,0,1-.48-6.33Z"/><path class="cls-4" d="M119.71,68.83l8.71-7.38L162,80.75l-12,8.79a5.47,5.47,0,0,1-6.08.24L120.19,75.15a3.92,3.92,0,0,1-.48-6.32Z"/><polygon class="cls-2" points="175.35 90.89 180.43 88.07 182.11 39.22 177.01 42.29 175.35 90.89"/><polygon class="cls-1" points="110.73 3.09 115.33 0 182.11 39.22 177.01 42.29 110.73 3.09"/><polygon class="cls-3" points="175.35 90.89 173.79 88.19 175.32 43.6 177.01 42.29 175.35 90.89"/><polygon class="cls-3" points="110.73 3.09 111.5 5.66 175.32 43.6 177.01 42.29 110.73 3.09"/><polyline class="cls-3" points="110.73 3.09 110.52 51.17 111.34 50.61 111.5 5.66 110.73 3.09"/><polygon class="cls-3" points="110.52 51.17 175.35 90.89 173.79 88.19 111.34 50.61 110.52 51.17"/><polyline class="cls-5" points="175.32 43.6 173.79 88.19 111.34 50.61 111.5 5.66 175.32 43.6"/><polygon class="cls-1" points="135.91 66.72 135.67 73.69 142.28 78.45 143.17 71.17 135.91 66.72"/><polygon class="cls-2" points="148.96 74.72 142.28 78.45 143.17 71.17 148.96 74.72"/><path class="cls-2" d="M121.23,109.28l.32-1.29,20.64-7.16-.28,1.39a1,1,0,0,1-.71.79Z"/><polygon class="cls-1" points="79.74 70.23 79.58 70.87 121.23 109.28 121.55 107.99 79.74 70.23"/><polyline class="cls-6" points="142.19 100.83 100.94 62.23 79.74 70.23 121.55 107.99 142.19 100.83"/><polygon class="cls-7" points="97.59 83.79 100.28 82.54 109.61 91.59 106.9 92.81 97.59 83.79"/><polygon class="cls-7" points="132.47 103.62 134.7 102.67 132.8 101.01 130.77 101.98 132.47 103.62"/><polygon class="cls-7" points="129.68 100.94 131.91 99.99 130.01 98.33 127.98 99.31 129.68 100.94"/><polygon class="cls-7" points="126.89 98.26 129.12 97.31 127.22 95.65 125.19 96.63 126.89 98.26"/><polygon class="cls-7" points="124.1 95.58 126.33 94.63 124.43 92.97 122.4 93.95 124.1 95.58"/><polygon class="cls-7" points="129.49 104.86 131.71 103.91 129.81 102.25 127.79 103.22 129.49 104.86"/><polygon class="cls-7" points="126.7 102.18 128.92 101.23 127.02 99.57 125 100.55 126.7 102.18"/><polygon class="cls-7" points="123.91 99.5 126.13 98.55 124.23 96.89 122.21 97.87 123.91 99.5"/><polygon class="cls-7" points="121.12 96.82 123.34 95.87 121.44 94.21 119.42 95.19 121.12 96.82"/><polygon class="cls-7" points="121.31 92.9 123.54 91.95 121.64 90.29 119.61 91.27 121.31 92.9"/><polygon class="cls-7" points="118.52 90.22 120.75 89.27 118.85 87.61 116.82 88.59 118.52 90.22"/><polygon class="cls-7" points="115.73 87.54 117.96 86.59 116.06 84.93 114.03 85.91 115.73 87.54"/><polygon class="cls-7" points="112.94 84.86 115.17 83.91 113.27 82.25 111.24 83.23 112.94 84.86"/><polygon class="cls-7" points="110.15 82.19 112.38 81.23 110.48 79.58 108.45 80.55 110.15 82.19"/><polygon class="cls-7" points="115.36 91.58 117.59 90.63 115.69 88.97 113.66 89.94 115.36 91.58"/><polygon class="cls-7" points="113.89 96.12 111.67 97.08 113.57 98.73 115.59 97.76 113.89 96.12"/><polygon class="cls-7" points="112.58 88.9 114.8 87.95 112.9 86.29 110.87 87.26 112.58 88.9"/><polygon class="cls-7" points="109.78 86.22 112.01 85.27 110.11 83.61 108.08 84.58 109.78 86.22"/><polygon class="cls-7" points="107 83.54 109.22 82.59 107.32 80.93 105.29 81.91 107 83.54"/><polygon class="cls-7" points="107.36 79.51 109.59 78.55 107.69 76.89 105.66 77.87 107.36 79.51"/><polygon class="cls-7" points="117.86 94.18 120.08 93.23 118.18 91.57 116.15 92.55 117.86 94.18"/><polygon class="cls-7" points="111.69 97.09 113.91 96.14 112.01 94.48 109.98 95.46 111.69 97.09"/><polygon class="cls-7" points="95.95 79.13 93.73 80.08 95.63 81.74 97.66 80.76 95.95 79.13"/><polygon class="cls-7" points="93.75 80.1 95.97 79.14 94.07 77.49 92.05 78.46 93.75 80.1"/><polygon class="cls-7" points="103.91 80.79 106.13 79.83 104.23 78.18 102.2 79.15 103.91 80.79"/><polygon class="cls-7" points="104.57 76.83 106.8 75.87 104.9 74.22 102.87 75.19 104.57 76.83"/><polygon class="cls-7" points="101.78 74.15 104.01 73.19 102.11 71.54 100.08 72.51 101.78 74.15"/><polygon class="cls-7" points="128.12 94.81 130.35 93.86 128.45 92.2 126.42 93.18 128.12 94.81"/><polygon class="cls-7" points="125.69 92.37 127.91 91.42 126.01 89.76 123.98 90.74 125.69 92.37"/><polygon class="cls-7" points="123.14 90.11 125.36 89.16 123.46 87.5 121.44 88.47 123.14 90.11"/><polygon class="cls-7" points="120.8 87.71 123.02 86.75 121.12 85.1 119.09 86.07 120.8 87.71"/><polygon class="cls-7" points="118.25 85.44 120.47 84.49 118.57 82.83 116.55 83.81 118.25 85.44"/><polygon class="cls-7" points="115.66 83.15 117.88 82.19 115.98 80.54 113.95 81.51 115.66 83.15"/><polygon class="cls-7" points="113.24 80.84 115.47 79.88 113.57 78.23 111.54 79.2 113.24 80.84"/><polygon class="cls-7" points="110.77 78.48 112.99 77.53 111.09 75.87 109.06 76.85 110.77 78.48"/><polygon class="cls-7" points="108.22 75.99 110.45 75.04 108.55 73.38 106.52 74.36 108.22 75.99"/><polygon class="cls-7" points="105.79 73.55 108.01 72.6 106.11 70.94 104.09 71.92 105.79 73.55"/><polygon class="cls-7" points="98.99 71.47 101.22 70.51 99.32 68.86 97.29 69.83 98.99 71.47"/><polygon class="cls-7" points="96.2 68.79 98.43 67.83 96.53 66.18 94.5 67.15 96.2 68.79"/><polygon class="cls-7" points="101.07 78.29 103.29 77.34 101.39 75.68 99.37 76.66 101.07 78.29"/><polygon class="cls-7" points="98.28 75.61 100.5 74.66 98.6 73 96.58 73.97 98.28 75.61"/><polygon class="cls-7" points="95.49 72.93 97.71 71.98 95.81 70.32 93.79 71.3 95.49 72.93"/><polygon class="cls-7" points="92.7 70.25 94.92 69.3 93.02 67.64 91 68.62 92.7 70.25"/><polygon class="cls-4" points="97.56 83.3 100.24 82.05 109.57 91.1 106.86 92.32 97.56 83.3"/><polygon class="cls-4" points="132.44 103.13 134.66 102.18 132.76 100.52 130.74 101.49 132.44 103.13"/><polygon class="cls-4" points="129.65 100.45 131.87 99.5 129.97 97.84 127.94 98.81 129.65 100.45"/><polygon class="cls-4" points="126.86 97.77 129.08 96.82 127.18 95.16 125.16 96.14 126.86 97.77"/><polygon class="cls-4" points="124.07 95.09 126.29 94.14 124.39 92.48 122.36 93.46 124.07 95.09"/><polygon class="cls-4" points="129.46 104.37 131.68 103.42 129.78 101.76 127.75 102.73 129.46 104.37"/><polygon class="cls-4" points="126.67 101.69 128.89 100.74 126.99 99.08 124.96 100.06 126.67 101.69"/><polygon class="cls-4" points="123.88 99.01 126.1 98.06 124.2 96.4 122.17 97.38 123.88 99.01"/><polygon class="cls-4" points="121.08 96.33 123.31 95.38 121.41 93.72 119.38 94.7 121.08 96.33"/><polygon class="cls-4" points="121.28 92.41 123.5 91.46 121.6 89.8 119.58 90.78 121.28 92.41"/><polygon class="cls-4" points="118.49 89.73 120.71 88.78 118.81 87.12 116.78 88.1 118.49 89.73"/><polygon class="cls-4" points="115.7 87.05 117.92 86.1 116.02 84.44 114 85.42 115.7 87.05"/><polygon class="cls-4" points="112.91 84.37 115.13 83.42 113.23 81.76 111.2 82.74 112.91 84.37"/><polygon class="cls-4" points="110.12 81.69 112.34 80.74 110.44 79.08 108.42 80.06 110.12 81.69"/><polygon class="cls-4" points="115.33 91.09 117.55 90.14 115.65 88.48 113.63 89.45 115.33 91.09"/><polygon class="cls-4" points="113.86 95.63 111.63 96.58 113.53 98.24 115.56 97.27 113.86 95.63"/><polygon class="cls-4" points="112.54 88.41 114.76 87.46 112.86 85.8 110.84 86.77 112.54 88.41"/><polygon class="cls-4" points="109.75 85.73 111.97 84.78 110.07 83.12 108.05 84.09 109.75 85.73"/><polygon class="cls-4" points="106.96 83.05 109.18 82.1 107.28 80.44 105.26 81.42 106.96 83.05"/><polygon class="cls-4" points="107.33 79.02 109.55 78.06 107.65 76.41 105.63 77.38 107.33 79.02"/><polygon class="cls-4" points="117.82 93.69 120.04 92.74 118.14 91.08 116.12 92.06 117.82 93.69"/><polygon class="cls-4" points="111.65 96.6 113.87 95.65 111.97 93.99 109.95 94.97 111.65 96.6"/><polygon class="cls-4" points="95.92 78.64 93.7 79.59 95.59 81.25 97.62 80.27 95.92 78.64"/><polygon class="cls-4" points="93.71 79.61 95.94 78.65 94.04 77 92.01 77.97 93.71 79.61"/><polygon class="cls-4" points="103.87 80.3 106.09 79.34 104.19 77.69 102.17 78.66 103.87 80.3"/><polygon class="cls-4" points="104.54 76.34 106.76 75.38 104.86 73.73 102.83 74.7 104.54 76.34"/><polygon class="cls-4" points="101.75 73.66 103.97 72.7 102.07 71.05 100.05 72.02 101.75 73.66"/><polygon class="cls-4" points="128.09 94.32 130.31 93.37 128.41 91.71 126.38 92.69 128.09 94.32"/><polygon class="cls-4" points="125.65 91.88 127.88 90.93 125.98 89.27 123.95 90.25 125.65 91.88"/><polygon class="cls-4" points="123.1 89.62 125.33 88.67 123.43 87.01 121.4 87.98 123.1 89.62"/><polygon class="cls-4" points="120.76 87.22 122.98 86.26 121.08 84.61 119.06 85.58 120.76 87.22"/><polygon class="cls-4" points="118.21 84.95 120.44 84 118.54 82.34 116.51 83.32 118.21 84.95"/><polygon class="cls-4" points="115.62 82.66 117.85 81.7 115.95 80.05 113.92 81.02 115.62 82.66"/><polygon class="cls-4" points="113.21 80.35 115.43 79.39 113.53 77.74 111.5 78.71 113.21 80.35"/><polygon class="cls-4" points="110.73 77.99 112.95 77.04 111.05 75.38 109.03 76.36 110.73 77.99"/><polygon class="cls-4" points="108.19 75.5 110.41 74.55 108.51 72.89 106.49 73.87 108.19 75.5"/><polygon class="cls-4" points="105.75 73.06 107.98 72.11 106.08 70.45 104.05 71.42 105.75 73.06"/><polygon class="cls-4" points="98.96 70.98 101.18 70.02 99.28 68.37 97.25 69.34 98.96 70.98"/><polygon class="cls-4" points="96.17 68.3 98.39 67.34 96.49 65.69 94.47 66.66 96.17 68.3"/><polygon class="cls-4" points="101.03 77.8 103.26 76.85 101.36 75.19 99.33 76.16 101.03 77.8"/><polygon class="cls-4" points="98.24 75.12 100.47 74.17 98.57 72.51 96.54 73.48 98.24 75.12"/><polygon class="cls-4" points="95.45 72.44 97.68 71.49 95.78 69.83 93.75 70.81 95.45 72.44"/><polygon class="cls-4" points="92.66 69.76 94.89 68.81 92.99 67.15 90.96 68.13 92.66 69.76"/><polygon class="cls-8" points="47.12 43.97 42.57 13.5 80.44 11.25 85.07 38.33 47.12 43.97"/><polygon class="cls-9" points="42.37 13.41 42.57 13.5 80.44 11.25 79.79 11.22 42.37 13.41"/><polygon class="cls-9" points="42.37 13.41 46.79 44.44 47.12 43.97 42.57 13.5 42.37 13.41"/><polyline class="cls-1" points="84.78 39.03 97.36 54.51 57.25 62.12 46.79 44.44"/><polyline class="cls-6" points="47.12 43.97 57.54 61.41 97.65 53.81 85.07 38.33"/><polygon class="cls-9" points="46.79 44.44 47.12 43.97 47.35 44.36 46.79 44.44"/><polygon class="cls-4" points="77.19 48.87 76.14 47.14 67.42 48.76 68.5 50.48 77.19 48.87"/><polygon class="cls-4" points="60.19 49.22 59.29 47.84 60.99 47.62 61.78 48.94 60.19 49.22"/><polygon class="cls-4" points="65.32 48.26 64.42 46.88 66.13 46.65 66.91 47.97 65.32 48.26"/><polygon class="cls-4" points="63.3 49.65 64.2 51.03 62.49 51.26 61.71 49.94 63.3 49.65"/><polygon class="cls-4" points="67.92 47.79 67.02 46.41 68.72 46.18 69.51 47.5 67.92 47.79"/><polygon class="cls-4" points="70.52 47.32 69.62 45.94 71.32 45.72 72.1 47.03 70.52 47.32"/><polygon class="cls-4" points="73.12 46.85 72.21 45.47 73.92 45.25 74.7 46.57 73.12 46.85"/><polygon class="cls-4" points="62.92 48.8 62.02 47.41 63.73 47.19 64.51 48.51 62.92 48.8"/><polygon class="cls-4" points="64.18 51.03 63.28 49.65 64.99 49.43 65.77 50.76 64.18 51.03"/><polygon class="cls-4" points="79.81 46.55 80.71 47.93 79.01 48.15 78.22 46.84 79.81 46.55"/><polygon class="cls-4" points="80.7 47.93 79.79 46.55 81.5 46.33 82.28 47.65 80.7 47.93"/><polygon class="cls-4" points="75.91 46.45 75.01 45.07 76.72 44.85 77.5 46.17 75.91 46.45"/><polygon class="cls-4" points="77.4 48.6 76.34 46.88 67.62 48.49 68.7 50.21 77.4 48.6"/><polygon class="cls-4" points="60.4 48.96 59.5 47.58 61.2 47.35 61.98 48.67 60.4 48.96"/><polygon class="cls-4" points="65.53 47.99 64.63 46.61 66.33 46.39 67.11 47.7 65.53 47.99"/><polygon class="cls-4" points="63.5 49.39 64.41 50.77 62.7 50.99 61.92 49.67 63.5 49.39"/><polygon class="cls-4" points="68.13 47.52 67.22 46.14 68.93 45.92 69.71 47.24 68.13 47.52"/><polygon class="cls-4" points="70.72 47.05 69.82 45.67 71.53 45.45 72.31 46.77 70.72 47.05"/><polygon class="cls-4" points="73.32 46.59 72.42 45.2 74.12 44.98 74.91 46.3 73.32 46.59"/><polygon class="cls-4" points="63.13 48.53 62.23 47.15 63.93 46.92 64.72 48.24 63.13 48.53"/><polygon class="cls-4" points="54.67 50.32 53.77 48.94 55.47 48.72 56.26 50.04 54.67 50.32"/><polygon class="cls-4" points="57.42 49.76 56.45 48.32 58.24 48.11 59.08 49.48 57.42 49.76"/><polygon class="cls-4" points="54.88 50.06 53.97 48.68 55.68 48.45 56.46 49.77 54.88 50.06"/><polygon class="cls-4" points="57.63 49.48 56.66 48.05 58.46 47.84 59.3 49.21 57.63 49.48"/><polygon class="cls-4" points="64.39 50.77 63.49 49.38 65.19 49.17 65.97 50.49 64.39 50.77"/><polygon class="cls-4" points="80.02 46.28 80.92 47.66 79.21 47.89 78.43 46.57 80.02 46.28"/><polygon class="cls-4" points="80.9 47.67 80 46.29 81.7 46.06 82.49 47.38 80.9 47.67"/><polygon class="cls-4" points="76.12 46.19 75.22 44.81 76.92 44.58 77.7 45.9 76.12 46.19"/><polygon class="cls-4" points="78.61 45.96 77.7 44.57 79.41 44.35 80.19 45.67 78.61 45.96"/><polygon class="cls-4" points="81.02 45.45 80.12 44.07 81.82 43.85 82.61 45.17 81.02 45.45"/><polygon class="cls-4" points="83.82 45.06 82.92 43.67 84.62 43.45 85.4 44.77 83.82 45.06"/><polygon class="cls-4" points="78.81 45.69 77.91 44.31 79.61 44.09 80.4 45.41 78.81 45.69"/><polygon class="cls-4" points="81.23 45.19 80.32 43.81 82.03 43.58 82.81 44.9 81.23 45.19"/><polygon class="cls-4" points="84.02 44.79 83.12 43.41 84.83 43.19 85.61 44.51 84.02 44.79"/><polygon class="cls-4" points="58.97 47.05 58.07 45.67 59.77 45.45 60.56 46.77 58.97 47.05"/><polygon class="cls-4" points="64.1 46.09 63.2 44.7 64.91 44.48 65.69 45.8 64.1 46.09"/><polygon class="cls-4" points="66.7 45.62 65.8 44.24 67.5 44.01 68.28 45.33 66.7 45.62"/><polygon class="cls-4" points="69.3 45.15 68.39 43.77 70.1 43.54 70.88 44.86 69.3 45.15"/><polygon class="cls-4" points="71.89 44.68 70.99 43.3 72.7 43.08 73.48 44.4 71.89 44.68"/><polygon class="cls-4" points="61.7 46.63 60.8 45.24 62.51 45.02 63.29 46.34 61.7 46.63"/><polygon class="cls-4" points="74.69 44.28 73.79 42.9 75.49 42.68 76.28 44 74.69 44.28"/><polygon class="cls-4" points="59.18 46.79 58.27 45.41 59.98 45.18 60.76 46.5 59.18 46.79"/><polygon class="cls-4" points="64.31 45.82 63.41 44.44 65.11 44.22 65.89 45.53 64.31 45.82"/><polygon class="cls-4" points="66.91 45.35 66 43.97 67.71 43.75 68.49 45.07 66.91 45.35"/><polygon class="cls-4" points="69.5 44.88 68.6 43.5 70.31 43.28 71.09 44.6 69.5 44.88"/><polygon class="cls-4" points="72.1 44.42 71.2 43.03 72.9 42.81 73.69 44.13 72.1 44.42"/><polygon class="cls-4" points="61.91 46.36 61.01 44.98 62.71 44.75 63.49 46.07 61.91 46.36"/><polygon class="cls-4" points="53.45 48.15 52.55 46.77 54.25 46.55 55.04 47.87 53.45 48.15"/><polygon class="cls-4" points="56.2 47.59 55.23 46.15 57.02 45.94 57.86 47.31 56.2 47.59"/><polygon class="cls-4" points="53.66 47.89 52.75 46.51 54.46 46.28 55.24 47.6 53.66 47.89"/><polygon class="cls-4" points="56.41 47.31 55.44 45.88 57.23 45.66 58.08 47.04 56.41 47.31"/><polygon class="cls-4" points="74.9 44.02 73.99 42.64 75.7 42.41 76.48 43.73 74.9 44.02"/><polygon class="cls-4" points="77.39 43.78 76.48 42.4 78.19 42.18 78.97 43.5 77.39 43.78"/><polygon class="cls-4" points="79.8 43.28 78.9 41.9 80.6 41.68 81.39 43 79.8 43.28"/><polygon class="cls-4" points="82.6 42.89 81.69 41.5 83.4 41.28 84.18 42.6 82.6 42.89"/><polygon class="cls-4" points="77.59 43.52 76.69 42.14 78.39 41.91 79.18 43.23 77.59 43.52"/><polygon class="cls-4" points="80.01 43.02 79.1 41.64 80.81 41.41 81.59 42.73 80.01 43.02"/><polygon class="cls-4" points="82.8 42.62 81.9 41.24 83.6 41.02 84.39 42.34 82.8 42.62"/><polygon class="cls-4" points="63.26 43.91 62.35 42.53 64.06 42.31 64.84 43.63 63.26 43.91"/><polygon class="cls-4" points="65.85 43.45 64.95 42.06 66.66 41.84 67.44 43.16 65.85 43.45"/><polygon class="cls-4" points="68.45 42.98 67.55 41.6 69.25 41.37 70.04 42.69 68.45 42.98"/><polygon class="cls-4" points="71.05 42.51 70.15 41.13 71.85 40.91 72.64 42.23 71.05 42.51"/><polygon class="cls-4" points="60.86 44.45 59.95 43.07 61.66 42.85 62.44 44.17 60.86 44.45"/><polygon class="cls-4" points="73.85 42.11 72.94 40.73 74.65 40.51 75.43 41.83 73.85 42.11"/><polygon class="cls-4" points="63.46 43.65 62.56 42.27 64.26 42.05 65.05 43.36 63.46 43.65"/><polygon class="cls-4" points="66.06 43.18 65.16 41.8 66.86 41.58 67.64 42.9 66.06 43.18"/><polygon class="cls-4" points="68.66 42.71 67.75 41.33 69.46 41.11 70.24 42.43 68.66 42.71"/><polygon class="cls-4" points="71.25 42.24 70.35 40.86 72.06 40.64 72.84 41.96 71.25 42.24"/><polygon class="cls-4" points="61.06 44.19 60.16 42.81 61.87 42.58 62.65 43.9 61.06 44.19"/><polygon class="cls-4" points="74.05 41.85 73.15 40.47 74.85 40.24 75.64 41.56 74.05 41.85"/><path class="cls-10" d="M67.5,51.33l12.08-2.15a.73.73,0,0,1,.68.22l4.06,5a.56.56,0,0,1-.39.9L71.79,57.9a.7.7,0,0,1-.74-.29l-4-5.46A.57.57,0,0,1,67.5,51.33Z"/><polygon class="cls-2" points="57.25 62.12 57.54 61.41 97.65 53.81 97.36 54.51 57.25 62.12"/><path class="cls-2" d="M79.87,60.37s6.76-1.92,11.87,6.14l-6.53,13a24.39,24.39,0,0,0-15.14-3.67Q75,68.08,79.87,60.37Z"/><path class="cls-2" d="M72.57,57.74s-2.08-6.2-11.15-3.25L52.93,68.82c1.86.24,8,1,11,2.55a24.52,24.52,0,0,1,6.31,4.51Z"/><path class="cls-4" d="M63.27,52.07s9.44,0,15.27,7.51L70.23,75.86A21.14,21.14,0,0,0,54.89,67.7Q59.09,59.89,63.27,52.07Z"/><path class="cls-11" d="M78.54,59.58s6.56-2.54,12.39,5L85.64,78.11a24.35,24.35,0,0,0-15.41-2.25Z"/><path class="cls-12" d="M64.69,55.07c.13,0,.72.11.75.24s-.42.44-.5.52A11.85,11.85,0,0,0,63.85,57s0,.12,0,.11L66.36,57l0-.12-1.25.64c-.06,0,0,.12,0,.13l.86,0,0-.13-2.28,1.3c-.06,0,0,.12,0,.13a10.1,10.1,0,0,1,1.23,0c.26,0,.33,0,.12.26a1.58,1.58,0,0,1-.36.26c-.31.21-.61.39-.72.77a.06.06,0,0,0,.05.08c.23.08.47.16.71.22a2.48,2.48,0,0,1,.54.12c.36.29-.38.8-.57,1s-.24.39,0,.61c1.08.94-.51.88-.27,1.64.06.17.23.22.39.28.76.31.3,1-.15,1.45-.06.06,0,.16.1.1.34-.32.77-.76.57-1.28-.09-.23-.2-.22-.37-.36-.61-.5,0-.7.19-1.12a.63.63,0,0,0,.06-.48c-.07-.2-.22-.18-.33-.3-.36-.44.15-.64.39-1a.89.89,0,0,0,.24-.62.08.08,0,0,0,0-.07,4.85,4.85,0,0,1-1.08-.25c-.45-.21,0-.47.25-.65a1.67,1.67,0,0,0,.75-.76s0-.08-.07-.08l-1.64,0,0,.13L66,57.7c.06,0,0-.12,0-.13l-.86,0,0,.13L66.4,57c.06,0,0-.14,0-.13L63.9,57l.05.12a12.49,12.49,0,0,1,1.72-1.69.07.07,0,0,0,0-.11,2.48,2.48,0,0,0-.92-.33c-.09,0-.12.11,0,.13Z"/><path class="cls-12" d="M70.45,61.48l2.08.75c.09,0,.12-.11,0-.14l-2.08-.75c-.09,0-.12.11,0,.14Z"/><path class="cls-12" d="M70.6,62.06l2.23.81c.09,0,.12-.1,0-.13l-2.24-.81c-.08,0-.12.1,0,.13Z"/><path class="cls-12" d="M70.38,62.78l1.41.51c.09,0,.12-.1,0-.13l-1.41-.51c-.09,0-.12.1,0,.13Z"/><path class="cls-12" d="M59.62,64.45l1.38.49c.08,0,.12-.1,0-.13l-1.37-.5c-.08,0-.12.11,0,.14Z"/><path class="cls-12" d="M59.53,65l1.22.43c.08,0,.12-.1,0-.13l-1.21-.44c-.09,0-.12.11,0,.14Z"/><path class="cls-12" d="M58.79,65.52l2.08.75c.09,0,.12-.1,0-.13l-2.08-.75c-.09,0-.12.1,0,.13Z"/><path class="cls-12" d="M87.13,67.19c-.67-.63-1.7-.12-2.23.44a2.34,2.34,0,0,0-.52,2.5,1.9,1.9,0,0,0,2.11,1.13,2.15,2.15,0,0,0,1.65-2A3.19,3.19,0,0,0,86,66.94c-.08,0-.12.1,0,.13a3.45,3.45,0,0,1,1.88,1.72,1.36,1.36,0,0,1-.09,1.31,2.51,2.51,0,0,1-.93.87,1.71,1.71,0,0,1-2.19-.6,2.11,2.11,0,0,1,.06-2.31c.43-.65,1.57-1.46,2.3-.77.07.06.17,0,.1-.1Z"/><path class="cls-12" d="M78.79,61.93c.32.09.64.18,1,.3.08,0,.12-.11,0-.14-.31-.11-.63-.21-1-.3-.09,0-.13.12,0,.14Z"/><path class="cls-12" d="M78.77,62.32l1.74.63c.08,0,.12-.1,0-.13l-1.73-.63c-.08,0-.12.1,0,.13Z"/><path class="cls-12" d="M78.53,62.81l1.1.4c.08,0,.12-.11,0-.14l-1.09-.39c-.08,0-.12.1,0,.13Z"/><path class="cls-12" d="M78.36,63.42c.41.16.82.31,1.24.45.08,0,.12-.1,0-.13-.41-.14-.83-.29-1.23-.46-.09,0-.12.1,0,.14Z"/><path class="cls-12" d="M79.79,65.24A5.25,5.25,0,0,1,83,67.51a.07.07,0,1,0,.12-.07,5.42,5.42,0,0,0-3.29-2.34c-.09,0-.13.12,0,.14Z"/><path class="cls-12" d="M82.65,67.63l.47.18a.6.6,0,0,0,.23.06c.07,0,.1-.09.12-.15l.44-.94c0-.08-.08-.15-.12-.07l-.39.85-.05.1,0,0s0,0,0,0a.3.3,0,0,1-.1,0l-.1,0-.45-.16c-.08,0-.12.1,0,.13Z"/><path class="cls-12" d="M85.44,69.43a4.07,4.07,0,0,1-2.62,2.32,8.46,8.46,0,0,1-4.24,0,.07.07,0,0,0,0,.13,8.38,8.38,0,0,0,4.5-.08,4.17,4.17,0,0,0,2.52-2.36c0-.08-.1-.12-.13,0Z"/><path class="cls-12" d="M78.67,70.91a8.56,8.56,0,0,0-1.35.77.07.07,0,0,0,0,.12,4.46,4.46,0,0,1,1.41,1.55c0,.08.16,0,.12-.07a4.57,4.57,0,0,0-1.46-1.6v.12A8.56,8.56,0,0,1,78.74,71c.08,0,0-.16-.07-.12Z"/><path class="cls-12" d="M75.19,71.07l.67.24a.07.07,0,0,0,.08,0,.06.06,0,0,0,0-.08l-.68-.25a.07.07,0,0,0-.08,0,.08.08,0,0,0,0,.09Z"/><path class="cls-12" d="M74.9,71.5l2,.71c.09,0,.12-.1,0-.13l-2-.72c-.08,0-.12.11,0,.14Z"/><path class="cls-12" d="M74.77,72.21l.75.27a.07.07,0,1,0,0-.13l-.75-.27s-.08,0-.08,0a.06.06,0,0,0,0,.08Z"/><polygon class="cls-13" points="29.61 144.43 51.66 166.66 50.58 170.25 28.45 147.23 29.61 144.43"/><polygon class="cls-13" points="83.17 159.63 53 168.02 52.16 171.69 82.78 162.64 83.17 159.63"/><polygon class="cls-2" points="85.47 170.24 102.95 113.76 103.89 116.16 87.16 171.69 85.47 170.24"/><polygon class="cls-2" points="18.16 153.18 40.46 102.15 102.95 113.76 85.47 170.25 18.16 153.18"/><polygon class="cls-3" points="13.05 155.47 11.5 151.41 85.47 170.25 85.06 172.88 13.05 155.47"/><polygon class="cls-3" points="0 58.75 22.17 29.01 29.06 28.56 7.44 60.27 0 58.75"/><path class="cls-3" d="M11.57,152C11.49,150.74,0,58.75,0,58.75l7.44,1.53,10.72,92.9Z"/><polygon class="cls-2" points="29.06 28.56 35.36 67.53 10.32 109.89 7.44 60.27 29.06 28.56"/><polygon class="cls-1" points="10.32 109.89 18.16 153.18 40.46 102.15 35.36 67.53 10.32 109.89"/><polygon class="cls-3" points="85.06 172.88 87.16 171.69 85.47 170.25 85.06 172.88"/><polygon class="cls-13" points="21.4 186.62 49.02 171.87 52.16 173.94 23.75 188.52 21.4 186.62"/><polygon class="cls-13" points="78.68 189.84 51.66 174.01 51.78 170.25 79.07 186.83 78.68 189.84"/><polygon class="cls-13" points="18.81 160.19 48.98 168.58 49.82 172.25 19.2 163.2 18.81 160.19"/><path class="cls-13" d="M49,164.17v7.7a2.25,2.25,0,0,0,3.14,2.07h0a2.24,2.24,0,0,0,1.36-2.07v-6.61"/><circle class="cls-14" cx="77.79" cy="190.53" r="3.95"/><circle class="cls-14" cx="23.83" cy="189.57" r="3.95"/><circle class="cls-14" cx="17.7" cy="163.97" r="3.95"/><path class="cls-15" d="M38.86,128,87.4,172.79l8,32.34-6-35-43.13-48Z"/><path class="cls-16" d="M48.21,124l1.69-15.29,47.19,56.94,2.46,29.84-4.1,9.6-6-35Q68.86,147.09,48.21,124Z"/><path class="cls-16" d="M63.49,105.63l49,39.09,9.55,40.93-4.77,3.21q-5.62-18.42-11.24-36.86L70.63,133.35,58.17,120.89Z"/><path class="cls-15" d="M64.25,125.12l12.13,14,29.82,17.74q5.2,16,10.4,32l4.74,2.37-11.56-39.49Z"/><polygon class="cls-17" points="99.51 195.09 94.58 198.78 95.41 205.13 99.95 199.96 99.51 195.09"/><polyline class="cls-18" points="93.89 198.8 94.58 198.78 95.41 205.13 93.92 198.99"/><polygon class="cls-17" points="122.23 185.18 117.29 188.87 118.12 195.22 122.66 190.05 122.23 185.18"/><polyline class="cls-18" points="116.6 188.88 117.29 188.87 118.12 195.22 116.64 189.07"/><path class="cls-17" d="M71.25,64.53l49.61,22.55-11.12,3.41L74.17,74.83Z"/><polygon class="cls-18" points="32.4 76.62 63.23 61.69 76.11 66.54 46.13 78.28 32.4 76.62"/><ellipse class="cls-17" cx="54.26" cy="50.49" rx="17.11" ry="20.21"/><polygon class="cls-19" points="46.13 75.38 76.11 66.54 74.59 115.5 48.42 128.35 46.13 75.38"/><polygon class="cls-20" points="46.13 77.81 32.4 76.62 39.27 127.68 48.42 128.35 46.13 77.81"/><polygon class="cls-17" points="33.46 87.58 28.19 142.06 32.4 152.86 43.62 84.35 33.46 87.58"/><ellipse class="cls-21" cx="54.08" cy="53.21" rx="0.98" ry="1.95"/><ellipse class="cls-21" cx="65.12" cy="51.85" rx="0.98" ry="1.95"/><path class="cls-22" d="M58.34,61.07a11.34,11.34,0,0,1,2.26-.73,11.83,11.83,0,0,1,2.18-.24"/><path class="cls-23" d="M68.24,45.53c1,1,1.5,7.34,1.51,8.89.06,5-3.21,9.17-4,14.09a55.69,55.69,0,0,0-.32,16,5.3,5.3,0,0,0,.46,1.8A4.14,4.14,0,0,0,67,87.58l2.73,2.23a6.84,6.84,0,0,0,2.41,1.47c1.61.43,3.64-.36,4.68,1.21.47.73.7,1.9,1.45,2s1.2-1,1.37-1.87c.79-4.18.12-8.58-.94-12.66s-2.5-8-3.32-12.2c-.56-2.84-.82-5.74-1.18-8.63-.49-4-1.18-8-2-12-.51-2.42-1.74-4.75-3.58-5.77-2.21-1.23-4.44-2.63-3.7-4.73"/><polygon class="cls-18" points="51.99 72.62 61.12 79.95 65.12 69.78 51.99 72.62"/><path class="cls-18" d="M43.86,56.84c-.44-1.63-2.55-2.25-2.47-2.45s3.19-.15,3.91,1.79-1,4-1.79,3.92l-.09,0c-.68-.24-1.15-1.24-.88-1.66s.88,0,1.23-.47A1.29,1.29,0,0,0,43.86,56.84Z"/><path class="cls-23" d="M50.75,42c1.85.69,2.22-1.54,2.67.38.18.79,1.24.53,1.36,1.32A3.78,3.78,0,0,0,61,46a2,2,0,0,1,.91-.58,1.59,1.59,0,0,1,.68.14,10.79,10.79,0,0,1,4.23,2.35,4,4,0,0,0,.79.75,2,2,0,0,0,1.87,0c2-.92,2.21-3.86,1.15-5.81S70.51,38.7,69.14,37a20.13,20.13,0,0,0-4.72-4.2,46.71,46.71,0,0,0-6.88-3.29c-2.74-1-5.24-.85-8.17-.9A13.21,13.21,0,0,0,41.11,31c-2.84,2.17-4.38,5.61-5.45,9a51.17,51.17,0,0,0-2.33,17.12c.18,5,1,10.38-1.22,14.88-.76,1.51-1.83,2.83-2.63,4.32-1.52,2.84-2,6.12-2.32,9.33-.29,2.72-.5,5.58.54,8.11A11.88,11.88,0,0,0,32.27,99,19.08,19.08,0,0,0,44.67,102a3.76,3.76,0,0,0,1.75-.52,3.52,3.52,0,0,0,1-1.46c2.11-4.48,2-6.38,2-6.38a64.58,64.58,0,0,0-3.62-27.46c-2.7-6.49-4.93-8.5-3.7-11.2,1.52-3.34,8.11-7.25,8-8.78a10.63,10.63,0,0,1,0-1.65c0-.24.05-.44.1-.84s.06-.61.08-.79"/><path class="cls-5" d="M42.06,58.17c-.27.19-.08,1.2,1.64,4.49a.61.61,0,0,1-.29.48.54.54,0,0,1-.49,0l-.2-.45c-.56-1.2-1.76-3.47-2.09-4.33a1.32,1.32,0,0,1-.09-.47,1.65,1.65,0,0,1,.17-.63,4.73,4.73,0,0,1,.41-.91,1.64,1.64,0,0,1,.75-.45,1.73,1.73,0,0,1,1.34.09A1.41,1.41,0,0,1,44,57.5a1.17,1.17,0,0,1-.7.61C42.66,58.34,42.25,58,42.06,58.17Z"/><ellipse class="cls-5" cx="25.71" cy="48.53" rx="1.73" ry="1.51" transform="translate(-17.38 14.48) rotate(-23.77)"/><line class="cls-24" x1="26.84" y1="48.08" x2="24.89" y2="41.12"/><line class="cls-24" x1="25.13" y1="41.42" x2="27.28" y2="42.68"/><ellipse class="cls-5" cx="34.85" cy="32.54" rx="1.33" ry="1.17" transform="translate(-0.23 0.25) rotate(-0.41)"/><line class="cls-25" x1="35.78" y1="32.57" x2="36.53" y2="27.06"/><line class="cls-25" x1="36.6" y1="27.34" x2="37.74" y2="28.89"/><ellipse class="cls-5" cx="33.74" cy="22.3" rx="0.87" ry="0.76" transform="translate(-5.79 13.78) rotate(-21.3)"/><line class="cls-26" x1="34.32" y1="22.09" x2="33.49" y2="18.55"/><line class="cls-26" x1="33.6" y1="18.71" x2="34.66" y2="19.38"/><ellipse class="cls-5" cx="38.96" cy="10.83" rx="0.67" ry="0.76" transform="translate(25.27 48.89) rotate(-85.75)"/><line class="cls-27" x1="39.5" y1="10.89" x2="40.18" y2="7.78"/><line class="cls-27" x1="40.21" y1="7.94" x2="40.79" y2="8.88"/></g></g></svg>