<svg xmlns="http://www.w3.org/2000/svg" viewBox="0 0 63.25 189.58"><defs><style>.cls-1{fill:#fad4e5;}.cls-2{fill:#af2260;}.cls-3{fill:#f06299;}.cls-4{fill:#f38bb0;}.cls-5{fill:#d12d6c;}.cls-6{fill:#f283a9;}</style></defs><g id="Layer_2" data-name="Layer 2"><g id="Layer_1-2" data-name="Layer 1"><polyline class="cls-1" points="8.6 9.14 56.27 36.53 56.29 185.32 8.59 154.9 8.57 9.52"/><polyline class="cls-2" points="5.59 157.69 8.61 154.97 8.6 9.14 5.59 7.41 5.59 157.69"/><polygon class="cls-3" points="10.34 94.45 10.34 92.19 18.71 96.94 18.15 98.88 10.34 94.45"/><polygon class="cls-2" points="18.65 98.58 18.15 98.88 18.71 96.94 19.22 96.68 18.65 98.58"/><polygon class="cls-2" points="10.34 92.19 10.83 92.02 19.22 96.68 18.71 96.94 10.34 92.19"/><polygon class="cls-3" points="10.83 92.02 11.69 91.68 13.75 92.81 13.04 93.25 10.83 92.02"/><polygon class="cls-2" points="13.84 93.69 13.75 92.81 13.04 93.25 13.84 93.69"/><polygon class="cls-4" points="51.47 39.06 16.97 19.43 16.97 89.81 51.47 109.68 51.47 39.06"/><polygon class="cls-4" points="17.39 100.05 51.47 119.54 51.47 133.24 16.97 113.92 17.39 100.05"/><polygon class="cls-4" points="17.39 123.33 51.47 143.33 51.47 166.9 17.39 147.44 17.39 123.33"/><polygon class="cls-2" points="15.76 90.76 16.97 89.81 51.47 109.68 51.47 111.77 15.76 90.76"/><polygon class="cls-2" points="15.76 19.14 16.97 19.43 16.97 89.81 15.76 90.76 15.76 19.14"/><polygon class="cls-2" points="15.76 114.63 16.97 113.92 51.47 133.24 51.47 135.42 15.76 114.63"/><polygon class="cls-2" points="17.39 100.05 16.01 99.55 15.76 114.63 16.97 113.92 17.39 100.05"/><polygon class="cls-2" points="15.76 148.64 17.39 147.44 51.47 166.9 51.47 169.1 15.76 148.64"/><polygon class="cls-2" points="17.39 123.33 16.04 122.51 15.76 148.64 17.39 147.44 17.39 123.33"/><polygon class="cls-5" points="62.93 189.58 63.25 32.35 56.29 36.6 56.29 187.06 62.93 189.58"/><polygon class="cls-4" points="5.59 157.69 0.48 153.4 0 4.19 5.59 7.41 5.59 157.69"/><polygon class="cls-6" points="6.13 0 63.25 32.35 56.29 36.6 0 4.19 6.13 0"/></g></g></svg>