<svg xmlns="http://www.w3.org/2000/svg" viewBox="0 0 605.56 569.75"><defs><style>.cls-1{fill:#a6bfe4;}.cls-2{fill:#588ecb;}.cls-3{fill:#b1b7dd;}.cls-4{fill:#d9dadb;}.cls-5{fill:#ccc;}.cls-6{fill:#a9a8a8;}.cls-33,.cls-7{fill:#b1ceec;}.cls-8{fill:#3e5dab;}.cls-9{fill:#728fc9;}.cls-10{fill:#587db7;}.cls-11{fill:#d4e5f3;}.cls-12{fill:#c1dbec;}.cls-13{fill:#f4c1da;}.cls-14{fill:#e5e5e5;}.cls-15{fill:#fff;}.cls-16{fill:#f0efef;}.cls-17{fill:#7697ce;}.cls-18{fill:#6081b2;}.cls-19{fill:#94afd8;}.cls-20{fill:#4a4a4a;}.cls-21{fill:#e2e2e2;}.cls-22{fill:#252867;}.cls-23{fill:#ededee;}.cls-24,.cls-32,.cls-34,.cls-54,.cls-55{fill:none;}.cls-24{stroke:#fff;stroke-width:2.39px;}.cls-24,.cls-32,.cls-33,.cls-34,.cls-54,.cls-55{stroke-miterlimit:10;}.cls-25{fill:#284783;}.cls-26{fill:#cbdff0;}.cls-27{fill:#cfcfce;}.cls-28{fill:#595a5a;}.cls-29{fill:#dadceb;}.cls-30{fill:#c8c9dc;}.cls-31{fill:#343132;}.cls-32{stroke:#4f152a;stroke-width:0.2px;}.cls-33,.cls-34{stroke:#3e5dab;}.cls-35{fill:#9abcdb;}.cls-36{fill:#383838;}.cls-37{fill:#13264b;}.cls-38{fill:#565656;}.cls-39{fill:#7aacd2;}.cls-40{fill:#6b4f5b;}.cls-41{fill:#26437e;}.cls-42{fill:#101010;}.cls-43{fill:#231f20;}.cls-44{fill:#c8deed;}.cls-45{fill:#323034;}.cls-46{fill:#42323b;}.cls-47{fill:#fde2db;}.cls-48{fill:#dcbab3;}.cls-49{fill:#baa0cc;}.cls-50{fill:#9584ab;}.cls-51{fill:#382a1e;}.cls-52{fill:#090909;}.cls-53{fill:#cdb1ac;}.cls-54{stroke:#090909;stroke-width:0.75px;}.cls-55{stroke:#b49793;stroke-width:0.25px;}</style></defs><g id="Layer_2" data-name="Layer 2"><g id="Layer_4" data-name="Layer 4"><polygon class="cls-1" points="236.27 13.45 236.27 168.62 582.42 390.63 594.36 231.49 236.27 13.45"/><polygon class="cls-2" points="236.34 13.53 236.34 168.7 15.91 311.13 11.94 151.99 236.34 13.53"/><polygon class="cls-3" points="236.34 168.7 15.91 311.13 363.65 545.88 582.48 390.71 236.34 168.7"/><polygon class="cls-4" points="236.34 0 236.34 13.53 594.42 231.56 605.56 220.42 236.34 0"/><polygon class="cls-5" points="236.34 13.53 236.34 0 0 143.23 11.94 151.99 236.34 13.53"/><polygon class="cls-6" points="0 143.23 11.94 151.99 15.91 311.13 2.63 318.44 0 143.23"/><polygon class="cls-5" points="594.42 231.56 605.56 220.42 594.42 398.67 582.48 390.71 594.42 231.56"/><polygon class="cls-6" points="2.63 318.44 15.91 311.13 363.65 545.88 363.65 569.75 2.63 318.44"/><polygon class="cls-4" points="582.48 390.71 594.42 398.67 363.65 569.75 363.65 545.88 582.48 390.71"/><polygon class="cls-7" points="121.75 213.26 151.99 195.75 172.68 209.28 143.23 227.58 121.75 213.26"/><polygon class="cls-8" points="121.75 213.26 121.75 242.7 143.23 257.02 143.23 227.58 121.75 213.26"/><polygon class="cls-9" points="143.23 227.58 172.68 209.28 172.68 237.13 143.23 257.02 143.23 227.58"/><polygon class="cls-7" points="145.62 229.17 171.08 213.26 171.08 223.6 145.62 239.52 145.62 229.17"/><polygon class="cls-8" points="156.76 227.26 156.76 229.17 163.13 224.72 163.13 222.81 156.76 227.26"/><polygon class="cls-7" points="145.62 241.11 171.08 225.19 171.08 235.54 145.62 251.45 145.62 241.11"/><polygon class="cls-8" points="156.76 239.2 156.76 241.11 163.13 236.65 163.13 234.74 156.76 239.2"/><polygon class="cls-9" points="32.63 249.86 32.63 309.54 116.97 255.43 118.57 196.55 32.63 249.86"/><polygon class="cls-8" points="32.63 249.86 25.46 244.29 25.46 303.97 32.63 309.54 32.63 249.86"/><polygon class="cls-7" points="25.46 244.29 112.2 191.77 118.57 196.55 32.63 249.86 25.46 244.29"/><polygon class="cls-10" points="32.63 298.4 140.05 371.61 218.83 309.54 116.97 244.29 32.63 298.4"/><polygon class="cls-8" points="32.63 298.4 32.63 309.54 140.05 381.96 140.05 371.61 32.63 298.4"/><polygon class="cls-8" points="218.83 309.54 218.83 319.89 140.05 381.96 140.05 371.61 218.83 309.54"/><polygon class="cls-11" points="37.4 277.2 110.61 232.36 208.48 294.42 140.85 347.74 37.4 277.2"/><polygon class="cls-12" points="37.4 277.2 37.4 294.04 140.85 361.27 140.85 345.35 37.4 277.2"/><polygon class="cls-13" points="140.85 345.35 208.48 294.42 208.48 309.54 140.85 361.27 140.85 345.35"/><polygon class="cls-14" points="47.74 267.59 66.99 279.5 66.99 284.08 47.74 272.17 47.74 267.59"/><polygon class="cls-15" points="47.74 267.59 70.65 253.84 88.98 263.92 66.99 279.5 47.74 267.59"/><polygon class="cls-16" points="66.99 279.5 66.99 284.08 88.98 268.5 88.98 263.92 66.99 279.5"/><polygon class="cls-14" points="79.57 247.48 97.4 258.45 97.4 262.75 79.31 251.56 79.57 247.48"/><polygon class="cls-15" points="79.57 247.48 100.79 234.74 117.77 244.08 97.4 258.51 79.57 247.48"/><polygon class="cls-16" points="97.4 258.51 97.4 262.75 117.77 248.32 117.77 244.08 97.4 258.51"/><polygon class="cls-7" points="62.86 296.02 136.07 245.09 215.65 292.04 141.64 350.92 62.86 296.02"/><polygon class="cls-8" points="62.86 296.02 62.86 313.52 141.64 365.25 141.64 347.74 62.86 296.02"/><polygon class="cls-9" points="141.64 347.74 215.65 292.04 215.65 307.95 141.64 365.25 141.64 347.74"/><polygon class="cls-17" points="142.09 202.92 142.09 207.16 154.05 209.87 154.05 205.59 142.09 202.92"/><polygon class="cls-18" points="154.05 205.59 157.07 202.3 157.07 205.32 154.05 209.87 154.05 205.59"/><polygon class="cls-19" points="154.05 205.59 157.07 202.3 146.13 200.5 142.09 202.92 154.05 205.59"/><ellipse class="cls-20" cx="149.75" cy="202.74" rx="1.08" ry="3.55" transform="translate(-70.38 325.52) rotate(-82.7)"/><polygon class="cls-21" points="147.09 202.3 146.68 199.08 154.19 200.15 152.73 203.04 147.09 202.3"/><polygon class="cls-22" points="124.14 121.97 179.84 86.44 179.84 157.5 125.64 192.58 124.14 121.97"/><polygon class="cls-23" points="181.54 158.61 174.61 154.12 174.45 89.88 182.26 84.89 181.54 158.61"/><polygon class="cls-2" points="181.54 158.61 174.61 154.12 125.5 185.96 125.69 194.75 181.54 158.61"/><line class="cls-24" x1="118.17" y1="121.07" x2="177.14" y2="84.29"/><polygon class="cls-25" points="163.72 87.13 166.9 93.46 184.41 84.29 185.61 75.99 163.72 87.13"/><polygon class="cls-8" points="166.9 93.46 172.96 170.86 191.48 157.5 184.41 84.29 166.9 93.46"/><polygon class="cls-25" points="111.01 117.82 114.19 124.15 131.7 114.98 132.91 106.68 111.01 117.82"/><polygon class="cls-8" points="114.19 124.15 120.25 201.55 140.85 190 131.7 114.98 114.19 124.15"/><polyline class="cls-26" points="267.14 47.88 313.18 74.33 313.2 218 267.13 188.63 267.12 48.25"/><polyline class="cls-8" points="264.25 191.31 267.15 188.7 267.14 47.88 264.25 46.22 264.25 191.31"/><polygon class="cls-27" points="268.82 130.25 268.82 128.07 276.91 132.66 276.37 134.53 268.82 130.25"/><polygon class="cls-28" points="276.85 134.24 276.37 134.53 276.91 132.66 277.4 132.41 276.85 134.24"/><polygon class="cls-28" points="268.82 128.07 269.3 127.91 277.4 132.41 276.91 132.66 268.82 128.07"/><polygon class="cls-27" points="269.3 127.91 270.13 127.58 272.12 128.67 271.43 129.09 269.3 127.91"/><polygon class="cls-28" points="272.2 129.52 272.12 128.67 271.43 129.09 272.2 129.52"/><polygon class="cls-7" points="308.54 76.78 275.23 57.82 275.23 125.78 308.54 144.96 308.54 76.78"/><polygon class="cls-7" points="275.64 135.66 308.54 154.48 308.54 167.71 275.23 149.06 275.64 135.66"/><polygon class="cls-7" points="275.64 158.14 308.54 177.45 308.54 200.21 275.64 181.42 275.64 158.14"/><polygon class="cls-26" points="274.06 126.69 275.23 125.78 308.54 144.96 308.54 146.98 274.06 126.69"/><polygon class="cls-8" points="274.06 57.53 275.23 57.82 275.23 125.78 274.06 126.69 274.06 57.53"/><polygon class="cls-8" points="274.06 149.74 275.23 149.06 308.54 167.71 308.54 169.81 274.06 149.74"/><polygon class="cls-8" points="275.64 135.66 274.31 135.18 274.06 149.74 275.23 149.06 275.64 135.66"/><polygon class="cls-8" points="274.06 182.58 275.64 181.42 308.54 200.21 308.54 202.33 274.06 182.58"/><polygon class="cls-8" points="275.64 158.14 274.33 157.35 274.06 182.58 275.64 181.42 275.64 158.14"/><polygon class="cls-8" points="319.61 222.11 319.91 70.29 313.2 74.4 313.2 219.67 319.61 222.11"/><polygon class="cls-9" points="264.25 191.31 259.31 187.18 258.84 43.1 264.25 46.22 264.25 191.31"/><polygon class="cls-9" points="264.76 39.06 319.91 70.29 313.2 74.4 258.84 43.1 264.76 39.06"/><polygon class="cls-20" points="141.9 211.55 136.95 218.18 142.98 220.19 147.23 212.62 141.9 211.55"/><polygon class="cls-29" points="147.23 212.62 147.23 213.29 142.97 220.82 142.98 220.19 147.23 212.62"/><polygon class="cls-30" points="136.95 218.18 136.95 218.74 142.97 220.82 142.98 220.19 136.95 218.18"/><polyline class="cls-7" points="330.11 253.72 329.87 134.07 331.38 134.98 331.54 254.57"/><polyline class="cls-9" points="328.87 130.36 358.28 113.85 385.75 130.36 356.34 146.52 328.87 130.36"/><polyline class="cls-8" points="356.34 150.03 385.75 133.5 385.75 130.36 356.34 146.52 356.34 150.03"/><polyline class="cls-8" points="357.98 149.1 385.75 133.5 385.75 258.5 356.34 272.67 356.34 150.03"/><polyline class="cls-8" points="356.34 269.16 385.75 255.69 385.75 258.5 356.34 272.67 356.34 269.16"/><polyline class="cls-9" points="331.54 254.57 356.34 230.91 356.34 269.16"/><polygon class="cls-7" points="331.41 155.54 356.34 169.98 356.34 167.81 331.4 153.63 331.41 155.54"/><polygon class="cls-7" points="331.48 216.47 356.4 230.91 356.4 228.84 331.49 214.79 331.48 216.47"/><polygon class="cls-7" points="331.54 185.94 356.4 199.47 356.4 197.4 331.56 183.32 331.54 185.94"/><polyline class="cls-8" points="331.38 134.98 348.84 145.51 331.4 153.63"/><polygon class="cls-9" points="331.4 153.63 348.84 145.51 356.34 150.03 356.34 167.81 331.4 153.63"/><polygon class="cls-8" points="331.45 185.96 331.49 214.79 356.34 207.28 356.34 199.53 331.45 185.96"/><polygon class="cls-9" points="331.49 214.79 356.34 207.28 356.4 228.84 331.49 214.79"/><polyline class="cls-8" points="331.58 254.27 331.51 216.21 356.44 230.65 356.44 240.59 331.58 254.27"/><polygon class="cls-8" points="331.41 155.54 331.56 183.32 356.34 174.24 356.34 169.98 331.41 155.54"/><polygon class="cls-9" points="356.4 197.4 356.34 174.24 331.56 183.32 356.4 197.4"/><polygon class="cls-7" points="328.87 256.11 328.87 253 356.34 269.16 356.34 272.67 328.87 256.11"/><polygon class="cls-7" points="328.87 133.47 328.87 130.36 356.34 146.52 356.34 150.03 328.87 133.47"/><polyline class="cls-7" points="360.65 271.29 360.41 151.64 361.92 152.55 362.09 272.14"/><polyline class="cls-9" points="359.42 147.93 388.82 131.42 416.3 147.93 386.88 164.09 359.42 147.93"/><polyline class="cls-8" points="386.88 167.6 416.3 151.06 416.3 147.93 386.88 164.09 386.88 167.6"/><polyline class="cls-8" points="388.52 166.68 416.3 151.06 416.3 276.07 386.88 290.24 386.88 167.6"/><polyline class="cls-8" points="386.88 286.73 416.3 273.26 416.3 276.07 386.88 290.24 386.88 286.73"/><polyline class="cls-9" points="362.09 272.14 386.88 248.48 386.88 286.73"/><polygon class="cls-7" points="361.95 173.11 386.88 187.55 386.88 185.38 361.94 171.2 361.95 173.11"/><polygon class="cls-7" points="362.02 234.04 386.95 248.48 386.95 246.41 362.03 232.36 362.02 234.04"/><polygon class="cls-7" points="362.09 203.51 386.95 217.03 386.95 214.97 362.1 200.89 362.09 203.51"/><polyline class="cls-8" points="361.92 152.55 379.38 163.08 361.94 171.2"/><polygon class="cls-9" points="361.94 171.2 379.38 163.08 386.88 167.6 386.88 185.38 361.94 171.2"/><polygon class="cls-8" points="361.99 203.53 362.03 232.36 386.88 224.85 386.88 217.1 361.99 203.53"/><polygon class="cls-9" points="362.03 232.36 386.88 224.85 386.95 246.41 362.03 232.36"/><polyline class="cls-8" points="362.12 271.84 362.06 233.78 386.99 248.22 386.99 258.16 362.12 271.84"/><polygon class="cls-8" points="361.95 173.11 362.1 200.89 386.88 191.81 386.88 187.55 361.95 173.11"/><polygon class="cls-9" points="386.95 214.97 386.88 191.81 362.1 200.89 386.95 214.97"/><polygon class="cls-7" points="359.42 273.68 359.42 270.57 386.88 286.73 386.88 290.24 359.42 273.68"/><polygon class="cls-7" points="359.42 151.04 359.42 147.93 386.88 164.09 386.88 167.6 359.42 151.04"/><polygon class="cls-31" points="433.48 214.51 441.3 217.42 438.51 224.13 432.09 220.36 433.48 214.51"/><polygon class="cls-9" points="433.88 212.91 441.3 217.42 436.69 222.99 430.76 218.8 433.88 212.91"/><polygon class="cls-31" points="475.76 226.53 483.58 229.45 480.79 236.16 474.37 232.39 475.76 226.53"/><polygon class="cls-9" points="476.16 224.93 483.58 229.45 478.97 235.02 473.04 230.82 476.16 224.93"/><polygon class="cls-31" points="448.81 212.43 456.62 215.34 453.83 222.05 447.41 218.28 448.81 212.43"/><polygon class="cls-8" points="449.21 210.83 456.62 215.34 452.02 220.91 446.09 216.72 449.21 210.83"/><polygon class="cls-31" points="464.32 212.43 472.14 215.34 469.35 222.05 462.93 218.28 464.32 212.43"/><polygon class="cls-7" points="464.72 210.83 472.14 215.34 467.53 220.91 461.6 216.72 464.72 210.83"/><polygon class="cls-31" points="448.27 197.59 456.08 200.51 453.3 207.22 446.88 203.45 448.27 197.59"/><polygon class="cls-8" points="448.67 195.99 456.08 200.51 451.48 206.08 445.55 201.88 448.67 195.99"/><polygon class="cls-31" points="420.64 229.13 428.46 232.04 425.67 238.75 419.25 234.98 420.64 229.13"/><polygon class="cls-8" points="421.05 227.53 428.46 232.04 423.85 237.61 417.92 233.42 421.05 227.53"/><polygon class="cls-31" points="436.41 229.47 444.22 232.38 441.43 239.09 435.01 235.32 436.41 229.47"/><polygon class="cls-7" points="436.81 227.86 444.22 232.38 439.62 237.95 433.69 233.75 436.81 227.86"/><polygon class="cls-31" points="446.94 225.73 454.76 228.65 451.97 235.36 445.55 231.59 446.94 225.73"/><polygon class="cls-9" points="447.35 224.13 454.76 228.65 450.15 234.22 444.22 230.02 447.35 224.13"/><line class="cls-32" x1="465.78" y1="213.32" x2="469.23" y2="215.6"/><line class="cls-32" x1="465.31" y1="214.03" x2="468.76" y2="216.31"/><line class="cls-32" x1="464.85" y1="214.73" x2="468.3" y2="217.01"/><line class="cls-32" x1="464.36" y1="215.37" x2="467.8" y2="217.65"/><line class="cls-32" x1="463.95" y1="215.99" x2="465.56" y2="217.05"/><polyline class="cls-9" points="374.66 286.26 374.66 293.29 516.68 371.4 516.7 363.91 374.66 286.26"/><polyline class="cls-9" points="516.68 371.4 495.2 359.59 495.2 399.92 516.7 412.05 516.68 371.4"/><polygon class="cls-8" points="516.7 412.05 516.68 371.4 566.38 341.75 566.02 380.47 516.7 412.05"/><polygon class="cls-9" points="374.66 293.29 374.66 332.39 393.32 341.75 393.32 303.56 374.66 293.29"/><polygon class="cls-8" points="429.5 323.46 393.32 341.75 393.32 303.56 429.5 323.46"/><polygon class="cls-7" points="516.7 363.91 566.38 334.47 425.07 254.98 374.66 286.26 516.7 363.91"/><polygon class="cls-8" points="516.68 371.4 516.7 363.91 566.38 334.47 566.38 341.75 516.68 371.4"/><ellipse class="cls-33" cx="536.65" cy="232.95" rx="10.6" ry="14.03"/><polyline class="cls-34" points="537.81 223.45 536.1 231.94 540.98 240.21"/><ellipse class="cls-8" cx="515.45" cy="338.21" rx="6.01" ry="4.49" transform="translate(-64.64 546.95) rotate(-53.06)"/><ellipse class="cls-11" cx="515.11" cy="337.9" rx="6.01" ry="4.49" transform="translate(-64.53 546.56) rotate(-53.06)"/><ellipse class="cls-8" cx="515.79" cy="334.81" rx="1.18" ry="0.58" transform="translate(-61.78 545.86) rotate(-53.06)"/><path class="cls-15" d="M515.84,334.72a1.59,1.59,0,0,1,.55-.75"/><path class="cls-8" d="M479.34,301.76l8.7-7.38,33.55,19.3-12,8.79a5.46,5.46,0,0,1-6.08.24l-23.71-14.63a3.92,3.92,0,0,1-.47-6.32Z"/><path class="cls-11" d="M479.35,300.77l8.71-7.38,33.54,19.3-12,8.78a5.44,5.44,0,0,1-6.07.25l-23.71-14.63a3.91,3.91,0,0,1-.48-6.32Z"/><polygon class="cls-8" points="534.98 322.83 540.07 320.01 541.75 271.16 536.65 274.23 534.98 322.83"/><polygon class="cls-9" points="470.37 235.03 474.97 231.94 541.75 271.16 536.65 274.23 470.37 235.03"/><polygon class="cls-7" points="534.98 322.83 533.43 320.13 534.96 275.54 536.65 274.23 534.98 322.83"/><polygon class="cls-7" points="470.37 235.03 471.14 237.6 534.96 275.54 536.65 274.23 470.37 235.03"/><polyline class="cls-7" points="470.37 235.03 470.15 283.11 470.98 282.55 471.14 237.6 470.37 235.03"/><polygon class="cls-7" points="470.15 283.11 534.98 322.83 533.43 320.13 470.98 282.55 470.15 283.11"/><polyline class="cls-15" points="534.96 275.54 533.43 320.13 470.98 282.55 471.14 237.6 534.96 275.54"/><polygon class="cls-9" points="495.54 298.66 495.3 305.63 501.92 310.38 502.8 303.11 495.54 298.66"/><polygon class="cls-8" points="508.6 306.66 501.92 310.38 502.8 303.11 508.6 306.66"/><path class="cls-8" d="M480.87,341.22l.32-1.29,20.63-7.16-.27,1.39a1.06,1.06,0,0,1-.71.79Z"/><polygon class="cls-9" points="439.38 302.17 439.22 302.81 480.87 341.22 481.19 339.93 439.38 302.17"/><polyline class="cls-35" points="501.82 332.77 460.58 294.17 439.38 302.17 481.19 339.93 501.82 332.77"/><polygon class="cls-36" points="457.23 315.73 459.91 314.48 469.25 323.53 466.54 324.75 457.23 315.73"/><polygon class="cls-36" points="492.11 335.56 494.33 334.61 492.44 332.95 490.41 333.92 492.11 335.56"/><polygon class="cls-36" points="489.32 332.88 491.54 331.93 489.64 330.27 487.62 331.24 489.32 332.88"/><polygon class="cls-36" points="486.53 330.2 488.75 329.25 486.85 327.59 484.83 328.56 486.53 330.2"/><polygon class="cls-36" points="483.74 327.52 485.96 326.57 484.06 324.91 482.04 325.88 483.74 327.52"/><polygon class="cls-36" points="489.13 336.8 491.35 335.85 489.45 334.19 487.43 335.16 489.13 336.8"/><polygon class="cls-36" points="486.34 334.12 488.56 333.17 486.66 331.51 484.63 332.48 486.34 334.12"/><polygon class="cls-36" points="483.55 331.44 485.77 330.49 483.87 328.83 481.85 329.81 483.55 331.44"/><polygon class="cls-36" points="480.76 328.76 482.98 327.81 481.08 326.15 479.06 327.13 480.76 328.76"/><polygon class="cls-36" points="480.95 324.84 483.17 323.89 481.27 322.23 479.25 323.21 480.95 324.84"/><polygon class="cls-36" points="478.16 322.16 480.38 321.21 478.48 319.55 476.46 320.53 478.16 322.16"/><polygon class="cls-36" points="475.37 319.48 477.59 318.53 475.69 316.87 473.67 317.85 475.37 319.48"/><polygon class="cls-36" points="472.58 316.8 474.8 315.85 472.9 314.19 470.88 315.17 472.58 316.8"/><polygon class="cls-36" points="469.79 314.12 472.01 313.17 470.11 311.51 468.09 312.49 469.79 314.12"/><polygon class="cls-36" points="475 323.52 477.23 322.56 475.33 320.91 473.3 321.88 475 323.52"/><polygon class="cls-36" points="473.53 328.06 471.3 329.01 473.2 330.67 475.23 329.7 473.53 328.06"/><polygon class="cls-36" points="472.21 320.84 474.44 319.88 472.54 318.23 470.51 319.2 472.21 320.84"/><polygon class="cls-36" points="469.42 318.16 471.64 317.21 469.75 315.55 467.72 316.52 469.42 318.16"/><polygon class="cls-36" points="466.63 315.48 468.86 314.53 466.96 312.87 464.93 313.85 466.63 315.48"/><polygon class="cls-36" points="467 311.44 469.22 310.49 467.32 308.83 465.3 309.81 467 311.44"/><polygon class="cls-36" points="477.49 326.12 479.71 325.17 477.82 323.51 475.79 324.49 477.49 326.12"/><polygon class="cls-36" points="471.32 329.03 473.55 328.08 471.65 326.42 469.62 327.39 471.32 329.03"/><polygon class="cls-36" points="455.59 311.07 453.37 312.02 455.27 313.68 457.29 312.7 455.59 311.07"/><polygon class="cls-36" points="453.39 312.04 455.61 311.08 453.71 309.43 451.68 310.4 453.39 312.04"/><polygon class="cls-36" points="463.54 312.73 465.76 311.77 463.87 310.12 461.84 311.09 463.54 312.73"/><polygon class="cls-36" points="464.21 308.76 466.43 307.81 464.53 306.15 462.51 307.13 464.21 308.76"/><polygon class="cls-36" points="461.42 306.09 463.64 305.13 461.74 303.48 459.72 304.45 461.42 306.09"/><polygon class="cls-36" points="487.76 326.75 489.98 325.8 488.08 324.14 486.06 325.12 487.76 326.75"/><polygon class="cls-36" points="485.32 324.31 487.55 323.36 485.65 321.7 483.62 322.68 485.32 324.31"/><polygon class="cls-36" points="482.78 322.05 485 321.1 483.1 319.44 481.07 320.41 482.78 322.05"/><polygon class="cls-36" points="480.43 319.65 482.66 318.69 480.76 317.04 478.73 318.01 480.43 319.65"/><polygon class="cls-36" points="477.88 317.38 480.11 316.43 478.21 314.77 476.18 315.75 477.88 317.38"/><polygon class="cls-36" points="475.3 315.09 477.52 314.13 475.62 312.48 473.59 313.45 475.3 315.09"/><polygon class="cls-36" points="472.88 312.78 475.1 311.82 473.2 310.17 471.18 311.14 472.88 312.78"/><polygon class="cls-36" points="470.4 310.42 472.63 309.47 470.73 307.81 468.7 308.79 470.4 310.42"/><polygon class="cls-36" points="467.86 307.93 470.08 306.98 468.19 305.32 466.16 306.3 467.86 307.93"/><polygon class="cls-36" points="465.43 305.49 467.65 304.54 465.75 302.88 463.72 303.85 465.43 305.49"/><polygon class="cls-36" points="458.63 303.41 460.85 302.45 458.95 300.8 456.93 301.77 458.63 303.41"/><polygon class="cls-36" points="455.84 300.73 458.06 299.77 456.16 298.12 454.14 299.09 455.84 300.73"/><polygon class="cls-36" points="460.71 310.23 462.93 309.27 461.03 307.62 459 308.59 460.71 310.23"/><polygon class="cls-36" points="457.92 307.55 460.14 306.6 458.24 304.94 456.21 305.91 457.92 307.55"/><polygon class="cls-36" points="455.13 304.87 457.35 303.92 455.45 302.26 453.42 303.24 455.13 304.87"/><polygon class="cls-36" points="452.34 302.19 454.56 301.24 452.66 299.58 450.63 300.56 452.34 302.19"/><polygon class="cls-11" points="457.19 315.24 459.88 313.99 469.21 323.04 466.5 324.26 457.19 315.24"/><polygon class="cls-11" points="492.07 335.07 494.3 334.12 492.4 332.46 490.37 333.43 492.07 335.07"/><polygon class="cls-11" points="489.29 332.39 491.51 331.44 489.61 329.78 487.58 330.75 489.29 332.39"/><polygon class="cls-11" points="486.5 329.71 488.72 328.76 486.82 327.1 484.79 328.07 486.5 329.71"/><polygon class="cls-11" points="483.7 327.03 485.93 326.08 484.03 324.42 482 325.39 483.7 327.03"/><polygon class="cls-11" points="489.09 336.31 491.32 335.36 489.42 333.7 487.39 334.67 489.09 336.31"/><polygon class="cls-11" points="486.3 333.63 488.53 332.68 486.63 331.02 484.6 331.99 486.3 333.63"/><polygon class="cls-11" points="483.51 330.95 485.74 330 483.84 328.34 481.81 329.31 483.51 330.95"/><polygon class="cls-11" points="480.72 328.27 482.95 327.32 481.05 325.66 479.02 326.63 480.72 328.27"/><polygon class="cls-11" points="480.92 324.35 483.14 323.4 481.24 321.74 479.21 322.72 480.92 324.35"/><polygon class="cls-11" points="478.13 321.67 480.35 320.72 478.45 319.06 476.42 320.04 478.13 321.67"/><polygon class="cls-11" points="475.33 318.99 477.56 318.04 475.66 316.38 473.63 317.36 475.33 318.99"/><polygon class="cls-11" points="472.55 316.31 474.77 315.36 472.87 313.7 470.84 314.68 472.55 316.31"/><polygon class="cls-11" points="469.75 313.63 471.98 312.68 470.08 311.02 468.05 312 469.75 313.63"/><polygon class="cls-11" points="474.97 323.03 477.19 322.07 475.29 320.42 473.26 321.39 474.97 323.03"/><polygon class="cls-11" points="473.49 327.57 471.27 328.52 473.17 330.18 475.19 329.2 473.49 327.57"/><polygon class="cls-11" points="472.18 320.35 474.4 319.39 472.5 317.74 470.47 318.71 472.18 320.35"/><polygon class="cls-11" points="469.39 317.67 471.61 316.71 469.71 315.06 467.68 316.03 469.39 317.67"/><polygon class="cls-11" points="466.6 314.99 468.82 314.04 466.92 312.38 464.89 313.35 466.6 314.99"/><polygon class="cls-11" points="466.96 310.95 469.19 310 467.29 308.34 465.26 309.32 466.96 310.95"/><polygon class="cls-11" points="477.46 325.63 479.68 324.68 477.78 323.02 475.75 324 477.46 325.63"/><polygon class="cls-11" points="471.29 328.54 473.51 327.59 471.61 325.93 469.58 326.9 471.29 328.54"/><polygon class="cls-11" points="455.56 310.58 453.33 311.53 455.23 313.19 457.26 312.21 455.56 310.58"/><polygon class="cls-11" points="453.35 311.55 455.57 310.59 453.68 308.94 451.65 309.91 453.35 311.55"/><polygon class="cls-11" points="463.51 312.24 465.73 311.28 463.83 309.63 461.8 310.6 463.51 312.24"/><polygon class="cls-11" points="464.18 308.27 466.4 307.32 464.5 305.67 462.47 306.64 464.18 308.27"/><polygon class="cls-11" points="461.38 305.6 463.61 304.64 461.71 302.99 459.68 303.96 461.38 305.6"/><polygon class="cls-11" points="487.72 326.26 489.95 325.31 488.05 323.65 486.02 324.63 487.72 326.26"/><polygon class="cls-11" points="485.29 323.82 487.51 322.87 485.61 321.21 483.59 322.19 485.29 323.82"/><polygon class="cls-11" points="482.74 321.56 484.96 320.61 483.06 318.95 481.04 319.92 482.74 321.56"/><polygon class="cls-11" points="480.4 319.16 482.62 318.2 480.72 316.55 478.69 317.52 480.4 319.16"/><polygon class="cls-11" points="477.85 316.89 480.07 315.94 478.17 314.28 476.15 315.26 477.85 316.89"/><polygon class="cls-11" points="475.26 314.6 477.48 313.64 475.58 311.99 473.56 312.96 475.26 314.6"/><polygon class="cls-11" points="472.84 312.29 475.07 311.33 473.17 309.68 471.14 310.65 472.84 312.29"/><polygon class="cls-11" points="470.37 309.93 472.59 308.98 470.69 307.32 468.67 308.3 470.37 309.93"/><polygon class="cls-11" points="467.83 307.44 470.05 306.49 468.15 304.83 466.12 305.81 467.83 307.44"/><polygon class="cls-11" points="465.39 305 467.62 304.05 465.71 302.39 463.69 303.36 465.39 305"/><polygon class="cls-11" points="458.6 302.92 460.82 301.96 458.92 300.31 456.89 301.28 458.6 302.92"/><polygon class="cls-11" points="455.81 300.24 458.03 299.28 456.13 297.63 454.1 298.6 455.81 300.24"/><polygon class="cls-11" points="460.67 309.74 462.89 308.79 461 307.13 458.97 308.1 460.67 309.74"/><polygon class="cls-11" points="457.88 307.06 460.1 306.11 458.2 304.45 456.18 305.42 457.88 307.06"/><polygon class="cls-11" points="455.09 304.38 457.31 303.43 455.41 301.77 453.39 302.75 455.09 304.38"/><polygon class="cls-11" points="452.3 301.7 454.52 300.75 452.62 299.09 450.6 300.06 452.3 301.7"/><polygon class="cls-37" points="406.76 275.91 402.21 245.44 440.08 243.19 444.71 270.27 406.76 275.91"/><polygon class="cls-38" points="402.01 245.35 402.21 245.44 440.08 243.19 439.43 243.16 402.01 245.35"/><polygon class="cls-38" points="402.01 245.35 406.43 276.38 406.76 275.91 402.21 245.44 402.01 245.35"/><polyline class="cls-9" points="444.42 270.97 457 286.45 416.88 294.06 406.43 276.38"/><polyline class="cls-35" points="406.76 275.91 417.17 293.35 457.29 285.75 444.71 270.27"/><polygon class="cls-38" points="406.43 276.38 406.76 275.91 406.99 276.3 406.43 276.38"/><polygon class="cls-11" points="436.83 280.8 435.78 279.08 427.05 280.7 428.13 282.42 436.83 280.8"/><polygon class="cls-11" points="419.83 281.16 418.93 279.78 420.63 279.56 421.42 280.88 419.83 281.16"/><polygon class="cls-11" points="424.96 280.19 424.06 278.81 425.76 278.59 426.55 279.91 424.96 280.19"/><polygon class="cls-11" points="422.93 281.59 423.84 282.97 422.13 283.2 421.35 281.88 422.93 281.59"/><polygon class="cls-11" points="427.56 279.73 426.65 278.35 428.36 278.12 429.14 279.44 427.56 279.73"/><polygon class="cls-11" points="430.16 279.26 429.25 277.88 430.96 277.65 431.74 278.97 430.16 279.26"/><polygon class="cls-11" points="432.75 278.79 431.85 277.41 433.56 277.19 434.34 278.5 432.75 278.79"/><polygon class="cls-11" points="422.56 280.74 421.66 279.35 423.36 279.13 424.15 280.45 422.56 280.74"/><polygon class="cls-11" points="423.82 282.97 422.92 281.59 424.63 281.37 425.4 282.69 423.82 282.97"/><polygon class="cls-11" points="439.45 278.49 440.35 279.87 438.65 280.09 437.86 278.77 439.45 278.49"/><polygon class="cls-11" points="440.33 279.87 439.43 278.49 441.14 278.27 441.92 279.59 440.33 279.87"/><polygon class="cls-11" points="435.55 278.39 434.65 277.01 436.35 276.79 437.13 278.11 435.55 278.39"/><polygon class="cls-11" points="437.04 280.54 435.98 278.81 427.26 280.43 428.34 282.15 437.04 280.54"/><polygon class="cls-11" points="420.04 280.9 419.13 279.52 420.84 279.29 421.62 280.61 420.04 280.9"/><polygon class="cls-11" points="425.17 279.93 424.26 278.55 425.97 278.32 426.75 279.64 425.17 279.93"/><polygon class="cls-11" points="423.14 281.32 424.04 282.71 422.34 282.93 421.55 281.61 423.14 281.32"/><polygon class="cls-11" points="427.76 279.46 426.86 278.08 428.57 277.86 429.35 279.18 427.76 279.46"/><polygon class="cls-11" points="430.36 278.99 429.46 277.61 431.16 277.39 431.95 278.71 430.36 278.99"/><polygon class="cls-11" points="432.96 278.53 432.06 277.14 433.76 276.92 434.54 278.24 432.96 278.53"/><polygon class="cls-11" points="422.77 280.47 421.87 279.09 423.57 278.86 424.35 280.18 422.77 280.47"/><polygon class="cls-11" points="414.31 282.26 413.41 280.88 415.11 280.66 415.89 281.98 414.31 282.26"/><polygon class="cls-11" points="417.06 281.69 416.09 280.26 417.88 280.05 418.72 281.42 417.06 281.69"/><polygon class="cls-11" points="414.51 282 413.61 280.62 415.32 280.39 416.1 281.71 414.51 282"/><polygon class="cls-11" points="417.27 281.42 416.3 279.99 418.09 279.77 418.93 281.15 417.27 281.42"/><polygon class="cls-11" points="424.02 282.71 423.13 281.32 424.83 281.11 425.61 282.43 424.02 282.71"/><polygon class="cls-11" points="439.65 278.22 440.56 279.61 438.85 279.83 438.07 278.51 439.65 278.22"/><polygon class="cls-11" points="440.54 279.61 439.64 278.23 441.34 278 442.13 279.32 440.54 279.61"/><polygon class="cls-11" points="435.75 278.13 434.85 276.75 436.56 276.52 437.34 277.84 435.75 278.13"/><polygon class="cls-11" points="438.24 277.89 437.34 276.51 439.05 276.29 439.83 277.61 438.24 277.89"/><polygon class="cls-11" points="440.66 277.39 439.76 276.01 441.46 275.79 442.24 277.11 440.66 277.39"/><polygon class="cls-11" points="443.45 277 442.55 275.61 444.26 275.39 445.04 276.71 443.45 277"/><polygon class="cls-11" points="438.45 277.63 437.55 276.25 439.25 276.02 440.03 277.34 438.45 277.63"/><polygon class="cls-11" points="440.86 277.13 439.96 275.75 441.67 275.52 442.45 276.84 440.86 277.13"/><polygon class="cls-11" points="443.66 276.73 442.76 275.35 444.46 275.13 445.25 276.44 443.66 276.73"/><polygon class="cls-11" points="418.61 278.99 417.71 277.61 419.41 277.39 420.19 278.71 418.61 278.99"/><polygon class="cls-11" points="423.74 278.02 422.84 276.64 424.54 276.42 425.32 277.74 423.74 278.02"/><polygon class="cls-11" points="426.34 277.56 425.43 276.18 427.14 275.95 427.92 277.27 426.34 277.56"/><polygon class="cls-11" points="428.94 277.09 428.03 275.71 429.74 275.48 430.52 276.8 428.94 277.09"/><polygon class="cls-11" points="431.53 276.62 430.63 275.24 432.33 275.01 433.12 276.33 431.53 276.62"/><polygon class="cls-11" points="421.34 278.56 420.44 277.18 422.14 276.96 422.93 278.28 421.34 278.56"/><polygon class="cls-11" points="434.33 276.22 433.43 274.84 435.13 274.62 435.91 275.94 434.33 276.22"/><polygon class="cls-11" points="418.81 278.73 417.91 277.35 419.62 277.12 420.4 278.44 418.81 278.73"/><polygon class="cls-11" points="423.94 277.76 423.04 276.38 424.75 276.15 425.53 277.47 423.94 277.76"/><polygon class="cls-11" points="426.54 277.29 425.64 275.91 427.35 275.69 428.13 277.01 426.54 277.29"/><polygon class="cls-11" points="429.14 276.82 428.24 275.44 429.94 275.22 430.73 276.54 429.14 276.82"/><polygon class="cls-11" points="431.74 276.36 430.83 274.97 432.54 274.75 433.32 276.07 431.74 276.36"/><polygon class="cls-11" points="421.55 278.3 420.64 276.92 422.35 276.69 423.13 278.01 421.55 278.3"/><polygon class="cls-11" points="413.09 280.09 412.19 278.71 413.89 278.49 414.67 279.81 413.09 280.09"/><polygon class="cls-11" points="415.83 279.52 414.87 278.09 416.66 277.88 417.5 279.25 415.83 279.52"/><polygon class="cls-11" points="413.29 279.83 412.39 278.44 414.1 278.22 414.88 279.54 413.29 279.83"/><polygon class="cls-11" points="416.05 279.25 415.08 277.81 416.87 277.6 417.71 278.98 416.05 279.25"/><polygon class="cls-11" points="434.53 275.96 433.63 274.58 435.34 274.35 436.12 275.67 434.53 275.96"/><polygon class="cls-11" points="437.02 275.73 436.12 274.34 437.82 274.12 438.61 275.44 437.02 275.73"/><polygon class="cls-11" points="439.44 275.22 438.54 273.84 440.24 273.62 441.02 274.94 439.44 275.22"/><polygon class="cls-11" points="442.23 274.82 441.33 273.44 443.04 273.22 443.82 274.54 442.23 274.82"/><polygon class="cls-11" points="437.23 275.46 436.32 274.08 438.03 273.85 438.81 275.17 437.23 275.46"/><polygon class="cls-11" points="439.64 274.96 438.74 273.57 440.44 273.35 441.23 274.67 439.64 274.96"/><polygon class="cls-11" points="442.44 274.56 441.54 273.18 443.24 272.95 444.02 274.27 442.44 274.56"/><polygon class="cls-11" points="422.89 275.85 421.99 274.47 423.7 274.25 424.48 275.57 422.89 275.85"/><polygon class="cls-11" points="425.49 275.39 424.59 274 426.29 273.78 427.08 275.1 425.49 275.39"/><polygon class="cls-11" points="428.09 274.92 427.19 273.54 428.89 273.31 429.67 274.63 428.09 274.92"/><polygon class="cls-11" points="430.69 274.45 429.78 273.07 431.49 272.84 432.27 274.16 430.69 274.45"/><polygon class="cls-11" points="420.5 276.39 419.59 275.01 421.3 274.79 422.08 276.11 420.5 276.39"/><polygon class="cls-11" points="433.48 274.05 432.58 272.67 434.29 272.45 435.07 273.77 433.48 274.05"/><polygon class="cls-11" points="423.1 275.59 422.2 274.21 423.9 273.98 424.69 275.3 423.1 275.59"/><polygon class="cls-11" points="425.7 275.12 424.79 273.74 426.5 273.51 427.28 274.83 425.7 275.12"/><polygon class="cls-11" points="428.29 274.65 427.39 273.27 429.1 273.05 429.88 274.37 428.29 274.65"/><polygon class="cls-11" points="430.89 274.18 429.99 272.8 431.69 272.58 432.48 273.9 430.89 274.18"/><polygon class="cls-11" points="420.7 276.13 419.8 274.75 421.5 274.52 422.29 275.84 420.7 276.13"/><polygon class="cls-11" points="433.69 273.79 432.79 272.4 434.49 272.18 435.27 273.5 433.69 273.79"/><path class="cls-39" d="M427.14,283.27l12.08-2.15a.7.7,0,0,1,.67.22l4.06,5a.56.56,0,0,1-.38.9l-12.15,2.58a.68.68,0,0,1-.73-.3l-4-5.45A.56.56,0,0,1,427.14,283.27Z"/><polygon class="cls-8" points="416.88 294.06 417.17 293.35 457.29 285.75 457 286.45 416.88 294.06"/><path class="cls-8" d="M439.5,292.31s6.77-1.92,11.87,6.14l-6.52,13a24.4,24.4,0,0,0-15.15-3.67Z"/><path class="cls-8" d="M432.21,289.68s-2.08-6.2-11.15-3.25l-8.5,14.33c1.87.24,8,1,11,2.55a24.1,24.1,0,0,1,6.31,4.51Q431.06,298.75,432.21,289.68Z"/><path class="cls-11" d="M422.91,284s9.44,0,15.27,7.51l-8.32,16.28a21.1,21.1,0,0,0-15.33-8.16Z"/><path class="cls-12" d="M438.18,291.52s6.56-2.54,12.39,5l-5.29,13.52a24.37,24.37,0,0,0-15.42-2.25Q434,299.67,438.18,291.52Z"/><path class="cls-40" d="M424.33,287c.13,0,.72.11.75.24s-.42.44-.5.52a13,13,0,0,0-1.09,1.14.07.07,0,0,0,.05.12L426,289l0-.13-1.24.65c-.07,0,0,.12,0,.12l.87,0,0-.13-2.28,1.3c-.06,0,0,.12,0,.12.4,0,.83,0,1.23,0s.33,0,.12.25a1.54,1.54,0,0,1-.36.27,1.42,1.42,0,0,0-.72.77.06.06,0,0,0,0,.08c.24.08.47.16.71.22a2.25,2.25,0,0,1,.54.12c.36.29-.37.8-.56,1s-.24.39,0,.61c1.09.94-.51.88-.26,1.64,0,.17.23.22.38.28.76.31.31,1-.14,1.45-.06.06,0,.16.1.1.34-.32.77-.76.57-1.28-.09-.23-.2-.22-.37-.36-.62-.5,0-.7.19-1.12a.64.64,0,0,0,.05-.49c-.06-.19-.22-.17-.32-.29-.36-.44.15-.64.39-.95a.84.84,0,0,0,.23-.62.08.08,0,0,0-.05-.07,4.48,4.48,0,0,1-1.08-.26c-.45-.2,0-.46.25-.64a1.65,1.65,0,0,0,.76-.76s0-.08-.07-.09h-1.64l0,.12,2.28-1.29c.06,0,0-.12,0-.13l-.87,0,0,.12L426,289a.06.06,0,0,0,0-.12l-2.46.05,0,.12a12.49,12.49,0,0,1,1.72-1.69.07.07,0,0,0,0-.11,2.68,2.68,0,0,0-.92-.34c-.09,0-.13.12,0,.14Z"/><path class="cls-40" d="M430.09,293.42l2.08.75c.08,0,.12-.11,0-.14l-2.08-.75c-.08,0-.12.11,0,.14Z"/><path class="cls-40" d="M430.23,294l2.24.81c.08,0,.12-.11,0-.14l-2.24-.8c-.08,0-.12.1,0,.13Z"/><path class="cls-40" d="M430,294.72l1.41.51c.08,0,.12-.1,0-.13l-1.42-.51c-.08,0-.12.1,0,.13Z"/><path class="cls-40" d="M419.26,296.39l1.37.49c.09,0,.12-.1,0-.13l-1.37-.5c-.09,0-.12.11,0,.14Z"/><path class="cls-40" d="M419.17,296.88l1.21.44a.07.07,0,1,0,0-.13l-1.21-.44a.07.07,0,1,0,0,.13Z"/><path class="cls-40" d="M418.43,297.46l2.08.75c.08,0,.12-.1,0-.13l-2.08-.75a.07.07,0,1,0,0,.13Z"/><path class="cls-40" d="M446.77,299.13c-.67-.63-1.7-.12-2.23.44a2.32,2.32,0,0,0-.52,2.5,1.9,1.9,0,0,0,2.11,1.13,2.16,2.16,0,0,0,1.65-2,3.19,3.19,0,0,0-2.1-2.33c-.09,0-.12.1,0,.13a3.48,3.48,0,0,1,1.88,1.72,1.41,1.41,0,0,1-.09,1.31,2.51,2.51,0,0,1-.93.87,1.71,1.71,0,0,1-2.19-.6,2.11,2.11,0,0,1,.06-2.31c.43-.65,1.57-1.46,2.3-.77.06.06.16,0,.1-.1Z"/><path class="cls-40" d="M438.43,293.87a8,8,0,0,1,.95.3c.09,0,.12-.11,0-.14q-.46-.16-1-.3c-.08,0-.12.11,0,.14Z"/><path class="cls-40" d="M438.41,294.26l1.73.63c.09,0,.12-.11,0-.14l-1.73-.62c-.09,0-.12.1,0,.13Z"/><path class="cls-40" d="M438.17,294.75l1.09.4c.09,0,.12-.11,0-.14l-1.09-.39c-.09,0-.12.1,0,.13Z"/><path class="cls-40" d="M438,295.36c.4.16.82.31,1.24.45.08,0,.12-.1,0-.13-.42-.14-.83-.29-1.24-.46-.08,0-.12.1,0,.14Z"/><path class="cls-40" d="M439.43,297.18a5.24,5.24,0,0,1,3.21,2.27c.05.07.17,0,.12-.07a5.41,5.41,0,0,0-3.3-2.34c-.08,0-.12.12,0,.14Z"/><path class="cls-40" d="M442.28,299.57l.48.18a.6.6,0,0,0,.22.06c.08,0,.1-.09.13-.15l.44-.94c0-.09-.08-.16-.12-.07l-.39.85-.05.1,0,0s0,0,0,0a.36.36,0,0,1-.11,0l-.1,0-.44-.16c-.08,0-.12.1,0,.13Z"/><path class="cls-40" d="M445.08,301.37a4.07,4.07,0,0,1-2.62,2.32,8.57,8.57,0,0,1-4.24,0c-.09,0-.12.11,0,.13a8.42,8.42,0,0,0,4.51-.08,4.2,4.2,0,0,0,2.52-2.36c0-.08-.1-.12-.13,0Z"/><path class="cls-40" d="M438.3,302.85a7.75,7.75,0,0,0-1.34.77.07.07,0,0,0,0,.12,4.34,4.34,0,0,1,1.4,1.55.07.07,0,1,0,.12-.07,4.45,4.45,0,0,0-1.45-1.6v.12a7.75,7.75,0,0,1,1.34-.77c.08,0,0-.16-.07-.12Z"/><path class="cls-40" d="M434.82,303l.68.24a.07.07,0,0,0,.08-.05.08.08,0,0,0-.05-.09l-.67-.24a.07.07,0,0,0-.08.05.08.08,0,0,0,0,.09Z"/><path class="cls-40" d="M434.53,303.44l2,.71c.08,0,.12-.1,0-.13l-2-.72c-.08,0-.12.11,0,.14Z"/><path class="cls-40" d="M434.41,304.15l.75.27a.07.07,0,0,0,.09-.05.07.07,0,0,0-.05-.08l-.75-.27a.07.07,0,0,0-.09.05.07.07,0,0,0,.05.08Z"/><polygon class="cls-41" points="389.24 376.37 411.3 398.59 410.21 402.19 388.09 379.17 389.24 376.37"/><polygon class="cls-41" points="442.8 391.57 412.64 399.96 411.8 403.63 442.42 394.58 442.8 391.57"/><polygon class="cls-8" points="445.1 402.17 462.59 345.69 463.52 348.1 446.79 403.63 445.1 402.17"/><polygon class="cls-8" points="377.8 385.12 400.09 334.09 462.59 345.69 445.1 402.19 377.8 385.12"/><polygon class="cls-7" points="372.69 387.41 371.14 383.35 445.1 402.19 444.7 404.82 372.69 387.41"/><polygon class="cls-7" points="359.64 290.69 381.81 260.95 388.7 260.5 367.07 292.21 359.64 290.69"/><path class="cls-7" d="M371.2,383.91c-.08-1.23-11.56-93.22-11.56-93.22l7.43,1.52,10.73,92.91Z"/><polygon class="cls-8" points="388.7 260.5 395 299.47 369.96 341.83 367.07 292.21 388.7 260.5"/><polygon class="cls-9" points="369.96 341.83 377.8 385.12 400.09 334.09 395 299.47 369.96 341.83"/><polygon class="cls-7" points="444.7 404.82 446.79 403.63 445.1 402.19 444.7 404.82"/><polygon class="cls-41" points="381.04 418.56 408.66 403.81 411.8 405.88 383.39 420.46 381.04 418.56"/><polygon class="cls-41" points="438.32 421.78 411.3 405.95 411.42 402.19 438.71 418.77 438.32 421.78"/><polygon class="cls-41" points="378.45 392.13 408.61 400.52 409.46 404.18 378.84 395.14 378.45 392.13"/><path class="cls-41" d="M408.66,396.11v7.7a2.25,2.25,0,0,0,3.13,2.07h0a2.25,2.25,0,0,0,1.37-2.07v-6.62"/><circle class="cls-42" cx="437.43" cy="422.47" r="3.95"/><circle class="cls-42" cx="383.47" cy="421.51" r="3.95"/><circle class="cls-42" cx="377.34" cy="395.9" r="3.95"/><path class="cls-29" d="M136.75,119.78a.15.15,0,0,0,0-.3.15.15,0,0,0,0,.3Z"/><path class="cls-29" d="M142.67,117.54a.15.15,0,0,0,0-.3.15.15,0,0,0,0,.3Z"/><path class="cls-29" d="M139.31,126a.15.15,0,0,0,0-.3.15.15,0,0,0,0,.3Z"/><path class="cls-29" d="M142.19,121.38a.15.15,0,0,0,0-.3.15.15,0,0,0,0,.3Z"/><path class="cls-29" d="M151.61,124.09a.15.15,0,1,0,0-.3.15.15,0,0,0,0,.3Z"/><path class="cls-29" d="M144.42,136.08a.15.15,0,1,0,0-.3.15.15,0,0,0,0,.3Z"/><path class="cls-29" d="M140,131.76a.15.15,0,0,0,0-.3.15.15,0,0,0,0,.3Z"/><path class="cls-29" d="M162.32,115.47a.15.15,0,0,0,0-.3.15.15,0,0,0,0,.3Z"/><path class="cls-29" d="M159.76,128.25a.15.15,0,0,0,0-.3.15.15,0,0,0,0,.3Z"/><path class="cls-29" d="M155.45,112.43a.15.15,0,0,0,0-.3.15.15,0,0,0,0,.3Z"/><path class="cls-29" d="M162,108.75a.15.15,0,0,0,0-.3.15.15,0,0,0,0,.3Z"/><path class="cls-29" d="M149.38,129.05a.15.15,0,0,0,0-.3.15.15,0,1,0,0,.3Z"/><path class="cls-29" d="M154.49,143.27a.15.15,0,0,0,0-.3.15.15,0,0,0,0,.3Z"/><path class="cls-29" d="M142.83,153.49a.15.15,0,0,0,0-.3.15.15,0,0,0,0,.3Z"/><path class="cls-29" d="M142.83,144.55a.15.15,0,0,0,0-.3.15.15,0,0,0,0,.3Z"/><path class="cls-29" d="M152.89,149.18a.15.15,0,1,0,0-.3.15.15,0,0,0,0,.3Z"/><path class="cls-29" d="M145.06,161.32a.15.15,0,0,0,0-.3.15.15,0,0,0,0,.3Z"/><path class="cls-29" d="M166.15,151.58a.15.15,0,1,0,0-.3.15.15,0,0,0,0,.3Z"/><path class="cls-29" d="M165.2,138a.15.15,0,0,0,0-.3.15.15,0,1,0,0,.3Z"/><path class="cls-29" d="M153.69,133a.15.15,0,0,0,0-.3.15.15,0,0,0,0,.3Z"/><path class="cls-29" d="M150.34,112.43a.15.15,0,0,0,0-.3.15.15,0,0,0,0,.3Z"/><path class="cls-12" d="M64.54,291.82q-.93-7.71-1.85-15.42a39.8,39.8,0,0,0,4.75-.75,40.92,40.92,0,0,0,5.75-1.74q1.94,7.8,3.88,15.59c-2,.18-4.16.46-6.47.9S66.38,291.3,64.54,291.82Z"/><path class="cls-43" d="M66,277.22a1.37,1.37,0,0,0-1.07.54,1.14,1.14,0,0,0-.15,1.21,1.11,1.11,0,0,0,1.27.26,1.2,1.2,0,0,0,.72-1.08,1,1,0,0,0-.24-.71.73.73,0,0,0-.68-.23c-.13,0-.07.22.06.2.4-.08.66.34.66.69a1,1,0,0,1-.53.91,1.08,1.08,0,0,1-.56.1.69.69,0,0,1-.51-.22.91.91,0,0,1,.09-1,1.16,1.16,0,0,1,.94-.51.1.1,0,0,0,0-.2Z"/><path class="cls-43" d="M66.63,277.68a3.07,3.07,0,0,0,1.83-.35l-.15-.06a4.14,4.14,0,0,0,.61,1.51c.07.11.25,0,.18-.1a3.78,3.78,0,0,1-.59-1.46.1.1,0,0,0-.15-.06,3,3,0,0,1-1.73.32c-.13,0-.13.19,0,.2Z"/><path class="cls-43" d="M69.05,280a4.59,4.59,0,0,0-.33-1.36l-.06.15,1.08-.34.54-.17.24-.07c.06,0,.22-.1.27-.08l-.06-.05a1.19,1.19,0,0,1,.1.32l.09.34.19.69.07-.13a15.37,15.37,0,0,0-2.3.73c-.11.05-.06.25.06.2a14.18,14.18,0,0,1,2.29-.73.1.1,0,0,0,.07-.13l-.26-1a1.38,1.38,0,0,0-.13-.42c-.08-.1-.22,0-.32,0l-2,.63c-.07,0-.08.08-.06.14a4.23,4.23,0,0,1,.31,1.26c0,.13.21.13.2,0Z"/><path class="cls-43" d="M68.77,279.61a6.8,6.8,0,0,0-1.74.16c-.12,0-.07.23.06.2a6.31,6.31,0,0,1,1.68-.16c.13,0,.13-.19,0-.2Z"/><path class="cls-43" d="M67.36,280.71a2.63,2.63,0,0,0-.09-1c0-.12-.06-.29-.21-.31s-.25.1-.35.16a5.23,5.23,0,0,1-1.79.66.1.1,0,0,0-.06.15l.39.74a.65.65,0,0,0,.17.26.33.33,0,0,0,.32,0l1.61-.57c.13-.05.07-.24,0-.2l-1.39.5-.15.05a.67.67,0,0,1-.18.07c-.1,0-.16-.21-.2-.29L65,280.3l-.06.14a5.64,5.64,0,0,0,1.55-.51l.35-.2s.14-.1.16-.09a.84.84,0,0,1,0,.17,2.75,2.75,0,0,1,.08.9c0,.13.19.13.2,0Z"/><path class="cls-43" d="M67.66,279.9a5.73,5.73,0,0,0,.51,2.08c.06.12.23,0,.18-.1a5.39,5.39,0,0,1-.49-2c0-.13-.21-.13-.2,0Z"/><path class="cls-43" d="M66.36,283.74l0-.84a1.77,1.77,0,0,1,0-.23c0-.09.09-.08.19-.11l.42-.12,1.74-.48c.57-.16,1.13-.32,1.7-.46.2-.05.26,0,.31.16a2.29,2.29,0,0,0,.12.37,4.42,4.42,0,0,0,.34.69l.06-.14-4.62,1.22a.1.1,0,1,0,.05.19l4.62-1.22a.1.1,0,0,0,.06-.15,3.8,3.8,0,0,1-.42-1c0-.18-.08-.37-.29-.39a1,1,0,0,0-.38.07l-.57.15-1,.28-2.07.57c-.2.06-.4.06-.43.29a5.24,5.24,0,0,0,0,.56l0,.56c0,.13.21.13.2,0Z"/><path class="cls-43" d="M67.82,283.74a3.77,3.77,0,0,0,.21,1.15c0,.12.24.07.19-.06a4,4,0,0,1-.2-1.09c0-.13-.21-.13-.2,0Z"/><path class="cls-43" d="M67.16,285.29q1.07-.19,2.1-.45l-.11-.15a5.51,5.51,0,0,0-.87,1.85l.17,0a10.52,10.52,0,0,1-1.57-1.7c-.08-.1-.25,0-.17.1a10.5,10.5,0,0,0,1.59,1.74.1.1,0,0,0,.17-.05,5.51,5.51,0,0,1,.85-1.8.1.1,0,0,0-.11-.15c-.7.18-1.4.33-2.1.46-.13,0-.08.21,0,.19Z"/><path class="cls-43" d="M71.78,284.56A8.11,8.11,0,0,0,73,284.5a.1.1,0,1,0,0-.2,8.11,8.11,0,0,1-1.21.06c-.13,0-.13.2,0,.2Z"/><path class="cls-43" d="M72.05,285.06l1.25,0a.1.1,0,0,0,0-.2l-1.25,0a.1.1,0,0,0,0,.2Z"/><path class="cls-43" d="M72.15,285.68l2-.05c.13,0,.13-.21,0-.21l-2,.06a.1.1,0,0,0,0,.2Z"/><path class="cls-43" d="M72.33,286l.62,0s.11,0,.1-.1a.1.1,0,0,0-.1-.1l-.62,0c-.06,0-.11,0-.1.1a.1.1,0,0,0,.1.1Z"/><path class="cls-43" d="M71.56,278.16a1.49,1.49,0,0,1,1.62,1.19,2,2,0,0,1-.79,2c-.1.08,0,.22.14.14a2.21,2.21,0,0,0,.84-2.22A1.69,1.69,0,0,0,71.56,278c-.12,0-.13.21,0,.2Z"/><path class="cls-43" d="M71.88,281c0,.34,0,.69,0,1a.1.1,0,0,0,.13.09,6.18,6.18,0,0,1,1.06-.18s.1,0,.1-.1,0-.11-.1-.1a6.1,6.1,0,0,0-1.12.19l.13.1c0-.35,0-.7,0-1a.1.1,0,0,0-.2,0Z"/><path class="cls-43" d="M69,287.41a4.8,4.8,0,0,1-2-.17,3.1,3.1,0,0,1-1.36-1.07,5.25,5.25,0,0,1-.74-1.5,3.37,3.37,0,0,1-.2-2c0-.12-.16-.17-.2-.05a3.7,3.7,0,0,0,.2,2.08,5.67,5.67,0,0,0,.81,1.61,3.23,3.23,0,0,0,1.28,1,4.74,4.74,0,0,0,2.24.24c.13,0,.13-.21,0-.2Z"/><path class="cls-43" d="M64.44,282.15a2.09,2.09,0,0,0,.74-.12l-.13-.1a4.21,4.21,0,0,0,.08.87.1.1,0,0,0,.13.07.1.1,0,0,0,.07-.12,3.21,3.21,0,0,1-.07-.82.11.11,0,0,0-.13-.1,2,2,0,0,1-.69.12.1.1,0,0,0,0,.2Z"/><path class="cls-44" d="M87.47,300.46l-15.62-5.4,5.37-12.65,16.87,7.06S88.33,294,87.47,300.46Z"/><path class="cls-43" d="M77.53,294.13a8.32,8.32,0,0,1-2.49-.69l0,.09a7.87,7.87,0,0,1,.7-2.46l-.14,0a13.9,13.9,0,0,0,2.52.87l-.06-.15a10.93,10.93,0,0,0-.76,2.07c0,.13.16.18.19.06a11.2,11.2,0,0,1,.74-2,.1.1,0,0,0-.06-.15,12.65,12.65,0,0,1-2.47-.85.11.11,0,0,0-.14,0,8.15,8.15,0,0,0-.72,2.56.11.11,0,0,0,0,.09,8.59,8.59,0,0,0,2.59.71c.13,0,.13-.18,0-.2Z"/><path class="cls-43" d="M79.17,289.25a7.39,7.39,0,0,1-1.92-.81l0,.14a9.23,9.23,0,0,0,1.1-2.17c0-.07.05-.24.14-.25s.22.14.28.18l.55.32q.59.33,1.2.6l0-.14A16,16,0,0,0,79.16,290c0,.12.15.18.2.05a15.08,15.08,0,0,1,1.33-2.85.1.1,0,0,0,0-.14c-.45-.21-.89-.43-1.33-.68l-.64-.39c-.12-.07-.25-.13-.36,0a2,2,0,0,0-.21.55,6.21,6.21,0,0,1-.28.66,8.62,8.62,0,0,1-.72,1.25.11.11,0,0,0,0,.14,7.87,7.87,0,0,0,2,.84.1.1,0,0,0,0-.2Z"/><path class="cls-43" d="M81.08,295.13,80,294.75l-.56-.2c-.12,0-.24-.06-.2-.22l.1-.27.86-2.24-.15.06,2.22,1,0-.12a15.06,15.06,0,0,1-.81,2.15c-.06.11.12.22.17.1a14.54,14.54,0,0,0,.84-2.19.11.11,0,0,0,0-.12l-2.22-1a.1.1,0,0,0-.15.06l-.49,1.29-.24.63a5.55,5.55,0,0,0-.24.64c-.08.38.44.45.7.54l1.33.46c.12,0,.17-.15,0-.2Z"/><path class="cls-43" d="M83.4,290.6a9.34,9.34,0,0,1-2.49-.71l0,.11,1-3.07-.15.06,2.5,1.08.14.06c.07,0,.08,0,0,.1l-.14.32-.28.62-.59,1.27c-.06.12.12.22.17.1l.67-1.44.32-.69c0-.13.15-.28,0-.39a.77.77,0,0,0-.24-.12l-.35-.15-.72-.31-1.44-.63a.11.11,0,0,0-.15.06l-1,3.08a.09.09,0,0,0,0,.11,9.93,9.93,0,0,0,2.55.74c.13,0,.18-.18.05-.2Z"/><path class="cls-43" d="M85.18,296.38a6.73,6.73,0,0,1-2-.72l0,.14a25,25,0,0,0,1-2.4l-.13.07c.82.2,1.62.43,2.42.67l-.07-.13-.71,1.78c0,.12.14.18.19.06l.72-1.78a.11.11,0,0,0-.07-.13c-.8-.24-1.61-.46-2.42-.66a.11.11,0,0,0-.13.07,25,25,0,0,1-.94,2.35.11.11,0,0,0,0,.14,6.71,6.71,0,0,0,2,.73c.13,0,.19-.17.06-.19Z"/><path class="cls-43" d="M87.79,291.13l-1-.28-.51-.15-.26-.08s-.21,0-.23-.08.06-.14.08-.18.07-.15.11-.22l.19-.43c.12-.31.23-.62.32-.94l-.13.07,2.27.52-.07-.13c-.2.7-.41,1.39-.64,2.07a.1.1,0,0,0,.19.06c.24-.69.45-1.38.64-2.07a.11.11,0,0,0-.07-.13l-2.26-.51a.11.11,0,0,0-.13.07,7.82,7.82,0,0,1-.37,1.06c-.08.17-.15.34-.24.5s-.16.25-.09.38.29.13.41.17l.57.16,1.17.34c.13,0,.18-.16.05-.2Z"/><path class="cls-43" d="M75.92,293.1a5.29,5.29,0,0,1-.15-1.11l-.17.07q.23.29.42.57a.1.1,0,0,0,.18,0l.11-.29-.12.07a.55.55,0,0,1,.18.19.7.7,0,0,0,.2.22.3.3,0,0,0,.46-.13c0-.12-.15-.17-.19-.05s-.07,0-.1,0a.34.34,0,0,1-.16-.13c-.1-.13-.18-.27-.34-.33a.09.09,0,0,0-.12.07l-.11.28.18,0c-.14-.21-.29-.41-.45-.61a.1.1,0,0,0-.17.07,5.05,5.05,0,0,0,.15,1.16.1.1,0,0,0,.2,0Z"/><path class="cls-43" d="M78.49,288.29a.51.51,0,0,1,0-.36l-.07.07s0,0,0,.07l0,.09.11.23.2.46.42.9c0,.1.18,0,.19-.05a8.19,8.19,0,0,0-.21-2l-.15.12c.14.09.29,0,.36-.15s0-.15.11-.2a.25.25,0,0,1,.25,0c.12,0,.17-.15,0-.2a.48.48,0,0,0-.4.06.5.5,0,0,0-.14.15s-.07.24-.13.2a.11.11,0,0,0-.15.12,7.25,7.25,0,0,1,.2,2l.19-.05-.49-1.08-.23-.52c-.06-.13-.11-.27-.28-.25a.08.08,0,0,0-.07.07.77.77,0,0,0,.06.52c.06.12.24,0,.18-.1Z"/><path class="cls-43" d="M83.05,289.1l-.32-.32a.11.11,0,0,0-.16,0,1.05,1.05,0,0,0-.16.49.7.7,0,0,1-.16.44l.16,0a7.66,7.66,0,0,1-.45-.66.1.1,0,0,0-.18,0l-.14.36a.11.11,0,0,0,.07.13.1.1,0,0,0,.12-.07l.14-.37-.18,0c.14.22.29.44.45.65a.11.11,0,0,0,.16,0,.93.93,0,0,0,.2-.49,1.1,1.1,0,0,1,.14-.49l-.16,0,.33.32c.09.09.24-.05.14-.14Z"/><path class="cls-43" d="M80.26,294.44l.17-.17s0,0,.06-.07,0,0,0,0h0l0,0c.11.11.24,0,.34,0a4.12,4.12,0,0,0,.61-.57c.09-.1,0-.24-.14-.14a3.62,3.62,0,0,1-.61.56l-.06,0s0,0,0,0l0,0a.21.21,0,0,0-.17-.06.43.43,0,0,0-.17.13l-.16.16c-.09.1,0,.24.14.15Z"/><path class="cls-43" d="M85.53,294.63a4.27,4.27,0,0,1-.38-.36.1.1,0,0,0-.17.08l-.07.73v.08s0,0,0,0a.23.23,0,0,1-.12-.06,2,2,0,0,0-.24-.16.31.31,0,0,0-.46.18c-.08.23-.13.47-.19.7l.12-.07-.11,0c-.12-.05-.18.15-.05.19l.11,0a.09.09,0,0,0,.12-.07l.1-.36a3.57,3.57,0,0,1,.1-.35c.08-.21.34.08.44.14a.31.31,0,0,0,.28,0c.1,0,.11-.14.11-.24l.07-.75-.17.07a4.26,4.26,0,0,0,.38.35c.09.09.24-.06.14-.14Z"/><path class="cls-43" d="M87.32,290.28l-.14-.21a.52.52,0,0,0-.12-.17.21.21,0,0,0-.3.09.85.85,0,0,0,.14.81.12.12,0,0,0,.12.05,3.88,3.88,0,0,0,1-.59l.44-.36.24-.19s.21-.2.26-.16.21-.1.11-.17-.37.07-.5.18l-.5.41a4.09,4.09,0,0,1-1.11.68l.12.05a.85.85,0,0,1-.17-.48s0-.12,0-.14h0l0,.07.17.24c.07.11.24,0,.17-.1Z"/><path class="cls-11" d="M89.27,297.2,78.21,284.92a20.16,20.16,0,0,0,9.51-6.65l12.66,12.52c-2.11,1.12-4.27,2.33-6.47,3.61C92.32,295.33,90.77,296.27,89.27,297.2Z"/><path class="cls-43" d="M97.5,290.26a5,5,0,0,0-2.72,1.58c-.08.1.1.2.18.1a4.89,4.89,0,0,1,2.59-1.49.1.1,0,0,0,0-.19Z"/><path class="cls-43" d="M95.88,289.06a2.21,2.21,0,0,0-1.53.56c-.21.2-.37.44-.56.66a1.31,1.31,0,0,1-.86.48,2.85,2.85,0,0,0-1.41.88,6,6,0,0,1-1.93,1.12c-.12.05-.07.24.06.2a6.65,6.65,0,0,0,1.66-.89c.5-.38.93-1,1.57-1.1a1.67,1.67,0,0,0,.75-.25,2.84,2.84,0,0,0,.5-.54,2.09,2.09,0,0,1,1.75-.92c.13,0,.13-.19,0-.2Z"/><path class="cls-43" d="M95,288c-.62.26-1.23.57-1.83.87s-1.3.61-1.91,1a2.58,2.58,0,0,0-.6.49c-.19.24-.27.55-.54.72s-.86.23-1.14.62c-.08.11.1.21.17.1.27-.37.83-.34,1.17-.61a2.42,2.42,0,0,0,.4-.55,2,2,0,0,1,.72-.64c.56-.31,1.15-.58,1.72-.87s1.25-.63,1.9-.9c.11-.05.06-.25-.06-.2Z"/><path class="cls-43" d="M90.78,286.48a4.45,4.45,0,0,0-.88-.67c-.16-.1-.33-.19-.5-.28l-.27-.14a.47.47,0,0,1-.12-.07l-.06,0a.23.23,0,0,1,.06-.12,5.24,5.24,0,0,1,.44-.5l.44-.49.92-1-.16,0c.27.36.54.71.83,1l.47.54.23.25c.07.08.22.16.14.26a3.08,3.08,0,0,1-.5.45c-.17.16-.35.31-.54.46-.38.31-.77.6-1.17.89-.1.07,0,.25.11.17.41-.29.81-.6,1.21-.92l.62-.53a2,2,0,0,0,.5-.47c.09-.16,0-.27-.15-.37s-.36-.39-.53-.59c-.37-.41-.71-.85-1-1.29,0-.05-.12-.08-.16,0-.36.37-.71.76-1,1.14-.17.18-.33.37-.49.55s-.36.32-.41.5.08.21.19.27l.6.32a4.67,4.67,0,0,1,1.12.8c.1.09.24-.05.15-.14Z"/><path class="cls-43" d="M84.76,287.56a7.15,7.15,0,0,1-1.69-1.65V286c.5-.48,1-.95,1.56-1.4h-.15l1.79,2v-.15a18.39,18.39,0,0,1-1.52,1.41c-.1.08,0,.23.14.14.53-.44,1-.91,1.53-1.4a.12.12,0,0,0,0-.15l-1.79-2a.12.12,0,0,0-.15,0c-.53.45-1,.92-1.55,1.4,0,0,0,.09,0,.12a6.85,6.85,0,0,0,1.76,1.72c.1.07.21-.1.1-.17Z"/><path class="cls-43" d="M89.15,283.5a1.59,1.59,0,0,0-.75,0l-.81.2a1.84,1.84,0,0,0-1.09.59c-.08.1.1.2.17.1a1.78,1.78,0,0,1,1-.51l.67-.16a1.3,1.3,0,0,1,.73-.05.1.1,0,0,0,.06-.2Z"/><path class="cls-43" d="M86.86,284.77l-.4.11a1.67,1.67,0,0,1-.32.08.27.27,0,0,1-.23,0,.06.06,0,0,1,0,0s0-.06,0-.08l.09-.13a4,4,0,0,1,1-1c.1-.08,0-.25-.1-.18a4,4,0,0,0-.94.9,2.35,2.35,0,0,0-.19.25.37.37,0,0,0-.1.3c.06.19.3.22.47.2a2,2,0,0,0,.33-.08l.41-.12a.1.1,0,1,0,0-.19Z"/><path class="cls-43" d="M86.05,288.52a4.48,4.48,0,0,1,1-.78c.12-.06,0-.24-.1-.17a4.55,4.55,0,0,0-1.09.81c-.09.09,0,.24.14.14Z"/><path class="cls-43" d="M86.44,288.81l1.22-.59c.12-.06,0-.24-.1-.18l-1.23.6c-.11.06,0,.23.11.17Z"/><path class="cls-43" d="M87,289.39l.64-.26a.11.11,0,0,0,.07-.13.1.1,0,0,0-.12-.07l-.64.27s-.09.06-.07.12a.1.1,0,0,0,.12.07Z"/><path class="cls-43" d="M83.4,283.06a15,15,0,0,0,1.49-1.14c.1-.09,0-.23-.14-.15a15.46,15.46,0,0,1-1.45,1.11c-.11.07,0,.25.1.18Z"/></g><g id="Layer_2-2" data-name="Layer 2"><path class="cls-45" d="M391.74,356.22l48.54,44.84,8.05,32.34-6-35-43.13-48Z"/><path class="cls-46" d="M401.1,352.31,402.78,337,450,394l2.46,29.84-4.1,9.6-6-35Z"/><path class="cls-46" d="M416.37,333.9l49,39.09,9.54,40.93-4.77,3.21q-5.61-18.42-11.24-36.86l-35.42-18.65q-6.22-6.24-12.46-12.46Z"/><path class="cls-45" d="M417.13,353.39l12.13,14,29.82,17.74q5.21,16,10.4,32l4.75,2.37L462.66,380Z"/><polygon class="cls-47" points="452.39 423.36 447.46 427.05 448.29 433.4 452.83 428.23 452.39 423.36"/><polyline class="cls-48" points="446.77 427.07 447.46 427.05 448.29 433.4 446.8 427.25"/><polygon class="cls-47" points="475.11 413.45 470.17 417.13 471 423.48 475.55 418.31 475.11 413.45"/><polyline class="cls-48" points="469.48 417.15 470.17 417.13 471 423.48 469.52 417.34"/><path class="cls-47" d="M419.21,316.43l17.36-65.37,3.26,9.81c-4,15.55-7.34,33.51-11.31,49.06C424.94,312.47,422.79,313.89,419.21,316.43Z"/><polygon class="cls-48" points="385.29 304.89 416.11 289.95 428.99 294.81 399.01 306.55 385.29 304.89"/><ellipse class="cls-47" cx="407.14" cy="278.76" rx="17.11" ry="20.21"/><polygon class="cls-49" points="399.01 303.65 428.99 294.81 427.47 343.77 401.3 356.63 399.01 303.65"/><polygon class="cls-50" points="399.01 306.08 385.29 304.89 392.15 355.95 401.3 356.63 399.01 306.08"/><polygon class="cls-47" points="397.17 308.03 363.23 265.09 352.72 260.22 392.08 317.4 397.17 308.03"/><path class="cls-51" d="M421.13,273.8c.95,1,1.49,7.34,1.51,8.89.05,5-3.22,9.17-4,14.09a56,56,0,0,0-.32,16.05,5.3,5.3,0,0,0,.46,1.8,4.14,4.14,0,0,0,1.13,1.22l2.73,2.22a6.68,6.68,0,0,0,2.42,1.48c1.6.42,3.63-.36,4.67,1.21.48.72.71,1.9,1.45,2s1.2-1,1.37-1.86c.79-4.18.12-8.58-.94-12.66s-2.5-8-3.32-12.2c-.55-2.84-.82-5.75-1.17-8.63-.5-4-1.19-8-2-12-.5-2.42-1.74-4.75-3.58-5.77-2.2-1.23-4.44-2.63-3.69-4.73"/><polygon class="cls-48" points="404.88 300.89 414 308.22 418 298.05 404.88 300.89"/><path class="cls-51" d="M403.63,270.23c1.85.69,2.22-1.54,2.67.38.18.79,1.24.53,1.36,1.32a3.79,3.79,0,0,0,6.23,2.33,1.85,1.85,0,0,1,.91-.58,1.55,1.55,0,0,1,.67.14,10.79,10.79,0,0,1,4.23,2.35,4,4,0,0,0,.79.75,2,2,0,0,0,1.87,0c2-.92,2.21-3.86,1.16-5.81s-.13-4.18-1.5-5.93a19.91,19.91,0,0,0-4.72-4.2,47.08,47.08,0,0,0-6.87-3.29c-2.75-1-5.25-.85-8.18-.9A13.23,13.23,0,0,0,394,259.3c-2.83,2.17-4.38,5.61-5.45,9a51.51,51.51,0,0,0-2.32,17.13c.17,5,1,10.38-1.23,14.88-.76,1.5-1.83,2.83-2.63,4.31-1.52,2.85-2,6.13-2.32,9.34-.29,2.72-.5,5.58.55,8.11a11.91,11.91,0,0,0,4.56,5.14,19.11,19.11,0,0,0,12.41,3.08,3.72,3.72,0,0,0,1.74-.52,3.63,3.63,0,0,0,1.06-1.46c2.11-4.48,2-6.38,2-6.38a64.58,64.58,0,0,0-3.62-27.46c-2.69-6.49-4.93-8.5-3.7-11.2,1.52-3.34,8.11-7.25,8-8.78a10.63,10.63,0,0,1,0-1.65c0-.24.05-.44.1-.84s.06-.61.08-.79"/><ellipse class="cls-52" cx="404.21" cy="281.65" rx="1.22" ry="2.45"/><path class="cls-53" d="M405.38,280.89H403c.16-1,.62-1.69,1.16-1.69S405.21,279.91,405.38,280.89Z"/><ellipse class="cls-52" cx="418.06" cy="279.93" rx="1.22" ry="2.45"/><path class="cls-54" d="M415,289a2,2,0,0,0-2.41.12,5.84,5.84,0,0,0-1.58,2"/><path class="cls-53" d="M419.22,279.17h-2.33c.16-1,.61-1.68,1.16-1.68S419.06,278.19,419.22,279.17Z"/><path class="cls-55" d="M403.05,284.63a2.32,2.32,0,0,0,2.77-.54"/><path class="cls-55" d="M402.8,285a2.91,2.91,0,0,0,3.47-.67"/><path class="cls-55" d="M416.6,282.38a2.33,2.33,0,0,0,2.83,0"/><path class="cls-55" d="M416.29,282.69a2.91,2.91,0,0,0,3.54,0"/></g><g id="Layer_3" data-name="Layer 3"><path class="cls-51" d="M387.93,268.33s2.8,1.27-1.74,4.13a36.41,36.41,0,0,1-7.87,3.86s5.65-.9,8.51-2.39a6.49,6.49,0,0,0,3.39-4Z"/><path class="cls-51" d="M401.86,259.1s-1.27,2.81-4.13-1.74a36.41,36.41,0,0,1-3.86-7.87s.9,5.65,2.39,8.51a6.52,6.52,0,0,0,4,3.4Z"/><path class="cls-51" d="M392.89,260.48s1.27,2.81,4.12-1.74a36.21,36.21,0,0,0,3.87-7.87s-.9,5.65-2.39,8.51a6.52,6.52,0,0,1-4,3.4Z"/><path class="cls-51" d="M386.36,291.35s5,1.5-2,7.32a61.1,61.1,0,0,1-12.34,8.27s9.28-2.79,13.74-5.94a11,11,0,0,0,4.79-7.52Z"/><path class="cls-51" d="M387.28,291.08s5.21.28-.2,7.58A61.41,61.41,0,0,1,377,309.59s8.36-4.89,12-9a11,11,0,0,0,2.89-8.43Z"/><path class="cls-51" d="M409,313.42s-1.43,5-7.35-1.87a61.4,61.4,0,0,1-8.44-12.23s2.92,9.24,6.13,13.66a11,11,0,0,0,7.58,4.69Z"/><path class="cls-51" d="M391.08,314.16s5,1.49-2,7.32a61.65,61.65,0,0,1-12.34,8.27s9.28-2.79,13.74-5.94a11,11,0,0,0,4.79-7.53Z"/><path class="cls-51" d="M418.47,298.16s3.14,0,.13,4.56a37.37,37.37,0,0,1-5.68,6.9s4.86-3.22,6.89-5.8a6.64,6.64,0,0,0,1.46-5.17Z"/><path class="cls-51" d="M426.74,306.89s.48-3,4.44.58A36.06,36.06,0,0,1,437,314s-2.37-5.21-4.56-7.57a6.54,6.54,0,0,0-4.78-2.21Z"/><path class="cls-51" d="M428,313.57s-2.28-2.07-3.1,3.23a36.33,36.33,0,0,0-.41,8.76S423,320,423.25,316.8a6.48,6.48,0,0,1,2.34-4.71Z"/><path class="cls-51" d="M424.67,264.94s-3.62,1.94.23,5.8a23.59,23.59,0,0,0,7.12,5.13s-5.87-1-8.43-3-2.11-5.57-2.11-5.57Z"/><path class="cls-51" d="M424.7,290.19s-2.07,3.55,3.24,4.82a23.25,23.25,0,0,0,8.75.64s-5.54,2.21-8.75,1.86-4.72-3.64-4.72-3.64Z"/><path class="cls-51" d="M409.06,254.67s-1.64,3.77,3.77,4.41a23.64,23.64,0,0,0,8.78-.37s-5.25,2.83-8.49,2.85-5.1-3.07-5.1-3.07Z"/></g></g></svg>