<svg xmlns="http://www.w3.org/2000/svg" viewBox="0 0 679.79 695.83"><defs><style>.cls-1{fill:#a3b8d6;}.cls-2{fill:#c2d2f2;}.cls-3{fill:#7285a5;}.cls-4{fill:#d9dadb;}.cls-5{fill:#ccc;}.cls-6{fill:#a8a8a8;}.cls-16,.cls-19,.cls-20,.cls-22,.cls-23,.cls-31,.cls-42,.cls-45,.cls-48,.cls-50,.cls-7{fill:none;}.cls-7{stroke:#fff;}.cls-12,.cls-13,.cls-16,.cls-19,.cls-20,.cls-22,.cls-23,.cls-31,.cls-41,.cls-42,.cls-45,.cls-46,.cls-48,.cls-50,.cls-7{stroke-miterlimit:10;}.cls-16,.cls-22,.cls-31,.cls-50,.cls-7{stroke-width:0.5px;}.cls-13,.cls-8{fill:#efefef;}.cls-12,.cls-9{fill:#e2e2e2;}.cls-10{fill:#fcfcfc;}.cls-11{fill:#a3a3a3;}.cls-12{stroke:#c6c6c6;}.cls-12,.cls-13,.cls-19,.cls-20,.cls-23,.cls-48{stroke-width:0.25px;}.cls-13{stroke:#d3d3d3;}.cls-14{fill:#c1c1c1;}.cls-15{fill:#ffeac5;}.cls-16,.cls-20{stroke:#e2e2e2;}.cls-17{fill:#e2c89a;}.cls-18{fill:#f4ddb8;}.cls-19{stroke:#c1c1c1;}.cls-21{fill:#33262d;}.cls-22,.cls-23{stroke:#dbdbdb;}.cls-24{fill:#313033;}.cls-25{fill:#3f323a;}.cls-26{fill:#d6bbb4;}.cls-27{fill:#ffe5dc;}.cls-28{fill:#b4a1d1;}.cls-29{fill:#9185a8;}.cls-30{fill:#070707;}.cls-31{stroke:#070707;}.cls-32{fill:#352a1f;}.cls-33{fill:#c4c4c4;}.cls-34{fill:#a3a7aa;}.cls-35{fill:#8e8e8e;}.cls-36{fill:#fffafc;}.cls-37{fill:#7a7a7a;}.cls-38{fill:#e8e8e8;}.cls-39{fill:#878787;}.cls-40{fill:#d1d1d1;}.cls-41{fill:#eef5ff;}.cls-41,.cls-42{stroke:#9199e5;stroke-width:2px;}.cls-43{fill:#b1b5ba;}.cls-44{fill:#929496;}.cls-45,.cls-46{stroke:#7285a5;}.cls-45{stroke-width:1.5px;}.cls-46{fill:#556377;}.cls-47{fill:#382a32;}.cls-48{stroke:#261d22;}.cls-49{fill:#2b1f26;}.cls-50{stroke:#3f323a;}</style></defs><g id="Layer_2" data-name="Layer 2"><g id="room"><polygon class="cls-1" points="348.38 19.94 348.38 248.68 652.54 436.2 663.69 211.93 348.38 19.94"/><polygon class="cls-2" points="348.38 19.94 348.38 248.68 23.46 458.64 17.59 224.04 348.38 19.94"/><polygon class="cls-3" points="348.38 248.68 23.46 458.64 323.52 661.2 652.54 436.2 348.38 248.68"/><polygon class="cls-4" points="348.38 0 348.38 19.94 663.69 211.93 679.79 203.37 348.38 0"/><polygon class="cls-5" points="348.38 19.94 348.38 0 0 211.14 17.59 224.04 348.38 19.94"/><polygon class="cls-6" points="0 211.14 17.59 224.04 23.46 458.64 3.88 469.41 0 211.14"/><polygon class="cls-5" points="663.69 211.93 679.79 203.37 670.13 449.5 652.54 437.77 663.69 211.93"/><polygon class="cls-6" points="3.88 469.41 23.46 458.64 323.52 661.2 323.52 695.83 3.88 469.41"/><polygon class="cls-4" points="652.54 436.2 670.13 449.5 323.52 695.83 323.52 660.64 652.54 436.2"/></g><g id="tiles"><line class="cls-7" x1="97.1" y1="410.55" x2="400.34" y2="608.04"/><line class="cls-7" x1="166.34" y1="368.27" x2="466.02" y2="563.43"/><line class="cls-7" x1="231.34" y1="324.31" x2="530.89" y2="519.39"/><line class="cls-7" x1="291.82" y1="285.23" x2="589.58" y2="479.15"/><line class="cls-7" x1="73.17" y1="490.13" x2="395.99" y2="275.22"/><line class="cls-7" x1="132.66" y1="532.25" x2="447.41" y2="319.21"/><line class="cls-7" x1="197.31" y1="574.35" x2="508.89" y2="356.59"/><line class="cls-7" x1="258.78" y1="619.04" x2="576.59" y2="394.98"/></g><g id="fridge"><polygon class="cls-8" points="308.99 154.83 349.39 136.35 398.75 161.68 357.65 179.94 308.99 154.83"/><polygon class="cls-9" points="398.75 161.68 357.65 179.94 352.61 307.13 396.58 282.93 398.75 161.68"/><polygon class="cls-10" points="308.99 154.83 306.34 275.84 352.61 307.13 357.65 179.94 308.99 154.83"/><path class="cls-11" d="M349.63,203.79a14.18,14.18,0,0,1,.95,1.73c0,.57-.05,1.14-.07,1.7l-.12,3.41-.11,3.4-.06,1.7a14.54,14.54,0,0,1-1.06,1.67,16.48,16.48,0,0,1-.94-1.74l.06-1.7.12-3.4.11-3.4c0-.57.05-1.14.05-1.71A12.9,12.9,0,0,1,349.63,203.79Z"/><path class="cls-11" d="M348.73,233.84c.38,1.19.63,2.37.89,3.56l-.13,3.52-.24,7-.24,7-.12,3.52c-.34,1.17-.68,2.33-1.12,3.49-.36-1.19-.61-2.37-.88-3.55l.12-3.53.24-7,.24-7.05.11-3.52C347.94,236.16,348.28,235,348.73,233.84Z"/><polygon class="cls-12" points="357.65 179.94 360.5 178.09 356.37 304.06 352.61 307.13 357.65 179.94"/><polygon class="cls-13" points="308.99 154.83 312.21 152.93 360.5 178.09 357.65 179.94 308.99 154.83"/><polygon class="cls-14" points="358.96 227.24 355.66 229.83 307.9 204.81 307.83 207.67 355.53 233.4 358.87 230.98 358.96 227.24"/></g><g id="counter"><polygon class="cls-10" points="365.59 266.14 365.59 319.8 550.66 437.04 550.66 381.44 365.59 266.14"/><polygon class="cls-9" points="550.66 381.44 599.87 352.03 599.87 410.86 550.66 437.04 550.66 381.44"/><polygon class="cls-15" points="365.59 256.88 416.28 233.49 599.87 345.74 550.06 372.71 365.59 256.88"/><line class="cls-16" x1="391.53" y1="276.4" x2="391.53" y2="336.23"/><line class="cls-16" x1="479.63" y1="330.88" x2="479.63" y2="391.3"/><line class="cls-16" x1="511.34" y1="350.43" x2="511.34" y2="412.46"/><line class="cls-16" x1="434.72" y1="302.26" x2="435.63" y2="364.17"/><polygon class="cls-17" points="550.06 372.71 550.66 381.44 599.87 352.94 599.87 345.74 550.06 372.71"/><polygon class="cls-18" points="550.06 372.71 550.66 381.44 365.59 266.14 365.59 256.88 550.06 372.71"/><path class="cls-11" d="M445.7,322.48c1.18.25,2.3.59,3.43.94l2.89,1.8,5.8,3.6,5.79,3.59,2.9,1.79c.81.86,1.62,1.71,2.37,2.65-1.18-.26-2.3-.61-3.42-1l-2.9-1.79-5.8-3.59-5.79-3.6-2.91-1.78A35.52,35.52,0,0,1,445.7,322.48Z"/><line class="cls-19" x1="412.76" y1="295.94" x2="412.76" y2="349.7"/><path class="cls-11" d="M417.09,303.1a8.2,8.2,0,0,1,.51,1v6.18a7.5,7.5,0,0,1-.5,1,10.84,10.84,0,0,1-.5-1v-6.18A9.72,9.72,0,0,1,417.09,303.1Z"/><path class="cls-11" d="M408.87,297.29a7.57,7.57,0,0,1,.51,1v6.18a8.86,8.86,0,0,1-.5,1,8.86,8.86,0,0,1-.5-1v-6.18A7.5,7.5,0,0,1,408.87,297.29Z"/><path class="cls-11" d="M373.93,276.54a10,10,0,0,1,1.26.21l1,.64,2,1.27,2,1.27,1,.64a11.58,11.58,0,0,1,.72,1.06,12.24,12.24,0,0,1-1.26-.22l-1-.63-2-1.28-2-1.27-1-.63A8.9,8.9,0,0,1,373.93,276.54Z"/><path class="cls-11" d="M373.5,287a12.26,12.26,0,0,1,1.26.21l1,.64,2,1.27,2,1.28,1,.63a11.58,11.58,0,0,1,.72,1.06c-.43-.05-.84-.13-1.26-.22l-1-.63-2-1.27-2-1.28-1-.63A9.36,9.36,0,0,1,373.5,287Z"/><path class="cls-11" d="M373.93,298a12.26,12.26,0,0,1,1.26.21l1,.64,2,1.28,2,1.27,1,.63a11.58,11.58,0,0,1,.72,1.06,10,10,0,0,1-1.26-.22l-1-.63-2-1.27-2-1.27-1-.64A8.15,8.15,0,0,1,373.93,298Z"/><path class="cls-11" d="M373.5,307.8a8.49,8.49,0,0,1,1.26.21l1,.64,2,1.27,2,1.27,1,.64a11.42,11.42,0,0,1,.72,1.05c-.43,0-.84-.13-1.26-.21l-1-.64-2-1.27-2-1.27-1-.63A11.58,11.58,0,0,1,373.5,307.8Z"/><line class="cls-20" x1="365.59" y1="276.4" x2="391.24" y2="292.87"/><line class="cls-20" x1="365.59" y1="287.89" x2="391.24" y2="304.36"/><line class="cls-20" x1="365.59" y1="298.67" x2="391.53" y2="315.32"/><path class="cls-11" d="M517.2,368.8a9.07,9.07,0,0,1,.5,1.23v7.36a12.69,12.69,0,0,1-.5,1.23,12.69,12.69,0,0,1-.5-1.23V370A10.67,10.67,0,0,1,517.2,368.8Z"/><path class="cls-11" d="M506,360.91a10.67,10.67,0,0,1,.51,1.23v7.36a10.58,10.58,0,0,1-.5,1.23c-.2-.41-.34-.82-.5-1.23v-7.36A12.69,12.69,0,0,1,506,360.91Z"/></g><g id="stove"><polygon class="cls-21" points="479.7 272.08 435.63 293.17 477.42 319.8 521.27 297.51 479.7 272.08"/><ellipse class="cls-22" cx="461.79" cy="291.79" rx="8.24" ry="4.15"/><ellipse class="cls-23" cx="461.79" cy="291.79" rx="4.5" ry="2.26"/><ellipse class="cls-22" cx="480.04" cy="302.5" rx="7.8" ry="3.93"/><ellipse class="cls-23" cx="480.04" cy="302.5" rx="4.26" ry="2.14"/><ellipse class="cls-23" cx="479.63" cy="285.41" rx="4.66" ry="2.23"/><ellipse class="cls-23" cx="496.83" cy="295.99" rx="4.66" ry="2.23"/></g><g id="person"><polygon class="cls-24" points="281.46 325.89 284.47 401.8 287.8 326.71 281.46 325.89"/><polygon class="cls-25" points="287.8 328.5 295.91 321.99 290.03 396.45 284.47 401.8 287.8 328.5"/><polygon class="cls-25" points="304.12 317.55 312.69 393.58 294.28 334.21 294.28 322.3 304.12 317.55"/><polygon class="cls-26" points="276.7 292.28 298.06 281.93 306.98 285.29 286.21 293.43 276.7 292.28"/><ellipse class="cls-27" cx="291.84" cy="274.17" rx="11.85" ry="14"/><polygon class="cls-26" points="305.82 294.58 315.63 328.11 309.32 324.13 304.39 299.18 305.82 294.58"/><polygon class="cls-28" points="286.21 291.42 306.98 285.29 305.93 319.21 287.8 328.11 286.21 291.42"/><polygon class="cls-29" points="286.21 293.1 276.7 292.28 281.46 327.64 287.8 328.11 286.21 293.1"/><polygon class="cls-27" points="277.44 299.87 273.79 337.61 276.7 345.08 284.47 297.63 277.44 299.87"/><polygon class="cls-24" points="295.17 327.23 294.28 339.71 306.98 389.68 312.69 394.21 295.17 327.23"/><ellipse class="cls-30" cx="291.72" cy="276.06" rx="0.68" ry="1.35"/><ellipse class="cls-30" cx="299.37" cy="275.11" rx="0.68" ry="1.35"/><path class="cls-31" d="M295.37,279.64a1.12,1.12,0,0,0,1.33,0,3.31,3.31,0,0,0,.94-1.06"/><path class="cls-32" d="M301.53,270.74c.66.69,1,5.08,1.05,6.16,0,3.48-2.23,6.35-2.8,9.76a39,39,0,0,0-.22,11.11,3.65,3.65,0,0,0,.32,1.25,2.89,2.89,0,0,0,.78.85l1.89,1.54a4.75,4.75,0,0,0,1.68,1c1.11.29,2.52-.25,3.23.84.33.5.49,1.31,1,1.39s.83-.66.95-1.29a20.52,20.52,0,0,0-.65-8.77c-.73-2.83-1.73-5.56-2.3-8.45-.39-2-.57-4-.82-6-.34-2.79-.82-5.56-1.39-8.29a5.93,5.93,0,0,0-2.47-4c-1.53-.85-3.08-1.82-2.57-3.27"/><path class="cls-32" d="M289.41,268.27c1.29.47,1.54-1.07,1.85.26.13.54.86.36.94.92a2.63,2.63,0,0,0,4.32,1.61,1.26,1.26,0,0,1,.63-.4,1.09,1.09,0,0,1,.47.09,7.61,7.61,0,0,1,2.93,1.63,3,3,0,0,0,.54.52,1.39,1.39,0,0,0,1.3,0c1.39-.63,1.53-2.67.8-4s-.09-2.9-1-4.1a14,14,0,0,0-3.27-2.92,33,33,0,0,0-4.76-2.27c-1.9-.72-3.63-.59-5.66-.63a9.25,9.25,0,0,0-5.73,1.71,12.25,12.25,0,0,0-3.77,6.25,35.54,35.54,0,0,0-1.61,11.86c.12,3.49.71,7.19-.85,10.31-.52,1-1.27,2-1.82,3a17.42,17.42,0,0,0-1.61,6.46,11.46,11.46,0,0,0,.38,5.62,8.24,8.24,0,0,0,3.16,3.56,13.2,13.2,0,0,0,8.59,2.13,2.41,2.41,0,0,0,1.21-.36,2.37,2.37,0,0,0,.73-1,20.67,20.67,0,0,0,1.37-4.43,79.84,79.84,0,0,0,1.28-25.89c-.33-2.88-.7-4.07-.84-7A8.76,8.76,0,0,1,289,269"/><polygon class="cls-27" points="290.52 392.45 284.84 395.23 284.47 401.8 290.03 397.45 290.52 392.45"/><polyline class="cls-26" points="284.14 395.12 284.84 395.23 284.47 401.8 284.14 395.32"/><polygon class="cls-26" points="290.28 289.5 296.6 294.58 299.37 287.54 290.28 289.5"/></g><g id="island"><polygon class="cls-10" points="302.25 370.84 302.35 423.53 401.88 488.63 403.68 435.85 302.25 370.84"/><polygon class="cls-9" points="403.68 435.85 449.09 415.38 445.22 465.47 401.88 488.63 403.68 435.85"/><polygon class="cls-17" points="403.95 427.82 403.68 435.85 449.09 415.38 449.4 406.38 403.95 427.82"/><polygon class="cls-18" points="403.95 427.82 403.68 435.85 302.25 370.84 302.55 361.98 403.95 427.82"/><polygon class="cls-15" points="302.55 361.85 346.18 345.08 449.4 406.25 403.95 427.69 302.55 361.85"/></g><g id="chairs"><polygon class="cls-21" points="352.79 463.97 350.98 528.43 353.55 526.63 355.01 462.6 352.79 463.97"/><polygon class="cls-25" points="352.79 463.97 350.85 462.6 348.91 526.27 350.98 528.43 352.79 463.97"/><polygon class="cls-21" points="347.93 427.1 346.12 491.56 348.69 489.77 350.15 425.73 347.93 427.1"/><polygon class="cls-25" points="347.93 427.1 345.99 425.73 344.05 489.4 346.12 491.56 347.93 427.1"/><polygon class="cls-21" points="325.7 444.84 323.89 509.3 326.46 507.5 327.49 446.08 325.7 444.84"/><polygon class="cls-25" points="325.7 444.84 323.77 443.47 321.83 507.14 323.89 509.3 325.7 444.84"/><polygon class="cls-21" points="375.96 449.69 374.15 514.15 376.72 512.36 378.18 448.32 375.96 449.69"/><polygon class="cls-25" points="375.96 449.69 373.95 450.68 372.08 511.99 374.15 514.15 375.96 449.69"/><polygon class="cls-21" points="312.69 435.85 310.92 499.52 312.99 498.07 315.07 434.33 312.69 435.85"/><polygon class="cls-25" points="312.69 435.85 310.46 434.5 309.21 497.73 310.92 499.52 312.69 435.85"/><polygon class="cls-21" points="333.8 422.36 332.04 485.69 334.12 484.25 336.19 420.83 333.8 422.36"/><polygon class="cls-25" points="333.8 422.36 331.69 423.7 330.33 483.9 332.04 485.69 333.8 422.36"/><polygon class="cls-21" points="287.95 418.1 286.18 481.77 288.26 480.33 289.76 419.57 287.95 418.1"/><polygon class="cls-25" points="287.95 418.1 285.72 416.75 284.47 479.98 286.18 481.77 287.95 418.1"/><polygon class="cls-21" points="308.48 401.8 306.7 465.47 308.78 464.02 310.28 403.27 308.48 401.8"/><polygon class="cls-25" points="308.48 401.8 306.25 400.45 304.99 463.68 306.7 465.47 308.48 401.8"/><polygon class="cls-17" points="378.16 442.22 352.79 457.93 352.79 463.97 378.16 448.26 378.16 442.22"/><polygon class="cls-15" points="378.16 442.22 347.96 424.1 323.79 437.39 352.79 457.93 378.16 442.22"/><polygon class="cls-18" points="352.79 457.93 352.79 463.97 323.79 443.43 323.79 437.39 352.79 457.93"/><polygon class="cls-17" points="336.19 415.7 312.69 430.25 312.69 435.85 336.19 420.83 336.19 415.7"/><polygon class="cls-15" points="336.19 415.7 308.21 398.92 285.83 411.23 312.69 430.25 336.19 415.7"/><polygon class="cls-18" points="312.69 430.25 312.69 435.85 285.83 416.82 285.83 411.23 312.69 430.25"/></g><g id="sink"><path class="cls-33" d="M532.83,313.69l-25.9,12.39a6.82,6.82,0,0,0-.72,11.9l24.59,15.67a6.83,6.83,0,0,0,6.76.33l25.77-13.1a6.82,6.82,0,0,0,.47-11.9l-24.47-15A6.82,6.82,0,0,0,532.83,313.69Z"/><path class="cls-34" d="M533.29,316.59l-20.58,9.85a5.41,5.41,0,0,0-.58,9.45l19.55,12.46a5.4,5.4,0,0,0,5.36.26l20.49-10.41a5.42,5.42,0,0,0,.37-9.45l-19.45-11.89A5.41,5.41,0,0,0,533.29,316.59Z"/><path class="cls-35" d="M533.9,327.48l-13.48,6.45a3.55,3.55,0,0,0-.37,6.19l12.79,8.16a3.57,3.57,0,0,0,3.52.17l13.41-6.82a3.55,3.55,0,0,0,.24-6.19l-12.73-7.79A3.56,3.56,0,0,0,533.9,327.48Z"/><path class="cls-33" d="M549.74,319.93a3.87,3.87,0,0,0,2.22.44c1.46-.18,1.46-.69,1.46-.69l-.18-21.89s.35-7.53-7-7.54c-6.42,0-6.21,6.67-6.21,6.67l2.43.15s-.51-4.37,3.68-4.33c4.57.05,4.11,5.35,4.11,5.35Z"/><path class="cls-34" d="M545.79,292.76s4-.71,5.23,1.51c2.4,4.12.94,26.1.94,26.1a5.58,5.58,0,0,1-1.19-.06,8.71,8.71,0,0,1-1-.38s.59-17.72.47-23.48a4.62,4.62,0,0,0-1.26-2.52C547.07,292.32,545.79,292.76,545.79,292.76Z"/><path class="cls-33" d="M554,315.58l2.23.79,1.13-4.73,1.53.27-3,10-3.32-1.29a7.47,7.47,0,0,1,.45-2.57A19.34,19.34,0,0,1,554,315.58Z"/><path class="cls-34" d="M554,315.58a9.55,9.55,0,0,0-1,2.31c-.23,1.08-.51,2.74-.51,2.74l3.32,1.29a9.47,9.47,0,0,1-1.75-2.84A8,8,0,0,1,554,315.58Z"/><polygon class="cls-34" points="557.4 311.64 558.03 311.75 556.27 316.37 557.4 311.64"/></g><g id="door"><polyline class="cls-36" points="196.76 212.74 150.82 239.14 150.8 382.52 196.77 353.2 196.78 213.1"/><polyline class="cls-37" points="199.66 355.89 196.75 353.28 196.76 212.74 199.66 211.07 199.66 355.89"/><polygon class="cls-9" points="195.09 294.95 195.09 292.77 187.02 297.35 187.56 299.21 195.09 294.95"/><polygon class="cls-37" points="187.08 298.93 187.56 299.21 187.02 297.35 186.53 297.1 187.08 298.93"/><polygon class="cls-37" points="195.09 292.77 194.61 292.61 186.53 297.1 187.02 297.35 195.09 292.77"/><polygon class="cls-9" points="194.61 292.61 193.79 292.28 191.8 293.37 192.49 293.79 194.61 292.61"/><polygon class="cls-37" points="191.71 294.22 191.8 293.37 192.49 293.79 191.71 294.22"/><polygon class="cls-38" points="155.45 241.57 188.69 222.65 188.69 290.48 155.45 309.63 155.45 241.57"/><polygon class="cls-38" points="188.29 300.35 155.45 319.13 155.45 332.33 188.69 313.71 188.29 300.35"/><polygon class="cls-38" points="188.29 322.78 155.45 342.05 155.45 364.77 188.29 346.01 188.29 322.78"/><polygon class="cls-37" points="189.86 291.39 188.69 290.48 155.45 309.63 155.45 311.64 189.86 291.39"/><polygon class="cls-37" points="189.86 222.37 188.69 222.65 188.69 290.48 189.86 291.39 189.86 222.37"/><polygon class="cls-37" points="189.86 314.4 188.69 313.71 155.45 332.33 155.45 334.43 189.86 314.4"/><polygon class="cls-37" points="188.29 300.35 189.62 299.87 189.86 314.4 188.69 313.71 188.29 300.35"/><polygon class="cls-37" points="189.86 347.18 188.29 346.01 155.45 364.77 155.45 366.88 189.86 347.18"/><polygon class="cls-37" points="188.29 322.78 189.59 321.99 189.86 347.18 188.29 346.01 188.29 322.78"/><polygon class="cls-39" points="144.4 386.62 144.1 235.1 150.8 239.21 150.8 384.19 144.4 386.62"/><polygon class="cls-38" points="199.66 355.89 204.58 351.76 205.05 207.97 199.66 211.07 199.66 355.89"/><polygon class="cls-40" points="199.14 203.93 144.1 235.1 150.8 239.21 205.05 207.97 199.14 203.93"/></g><g id="clock"><ellipse class="cls-41" cx="80.74" cy="239.29" rx="20.16" ry="16.89" transform="translate(-170.86 261.17) rotate(-76.32)"/><polyline class="cls-42" points="85.76 226.47 80.24 237.68 84.98 251.06"/></g><g id="pot"><ellipse class="cls-25" cx="352.4" cy="338.71" rx="5.6" ry="4.22"/><path class="cls-43" d="M342.16,361.32s-1-4.35,0-12.15,4.72-11.56,4.72-11.56a8.86,8.86,0,0,0,5.9,1.77c3.83-.1,4.91-1.77,4.91-1.77A30.16,30.16,0,0,1,363,349c.68,2.8,1.1,10.1.56,12.34a20.25,20.25,0,0,1-9,2.72C349.33,364.34,342.16,361.32,342.16,361.32Z"/><path class="cls-25" d="M362.23,352.81c3.1,0,4-6.71,4-6.71s.66-5.18-1.62-6-5.09.66-5.09.66l.69,1.59s2.09-1.28,3.77-.22c1.28.81,1,3.44.33,5.34a11.57,11.57,0,0,1-2.44,3.38Z"/><polygon class="cls-43" points="346.77 338.22 343.05 338.03 344.91 341.49 346.77 338.22"/><polygon class="cls-44" points="343.05 338.03 346.77 338.22 346.12 339.37 343.05 338.03"/><path class="cls-25" d="M341.93,359.84l-2.21,2.69s3.33,3.75,13,3.75c9.08,0,13.6-3.74,13.6-3.74l-2.6-2.7s-1.62,2.07-10.33,2.48A23,23,0,0,1,341.93,359.84Z"/></g><g id="cup"><path class="cls-3" d="M366,373.39s.21,1.59,4.2,1.56c3.8,0,4-1.28,4-1.28l1.6-10.63s-.43,1.48-5.27,1.43c-6.09-.06-5.84-1.29-5.84-1.29Z"/><path class="cls-45" d="M374.47,365.6s1.94-1.57,3.14-.61-.64,4.82-.64,4.82-1.31,2.15-3.2,1.81"/><ellipse class="cls-46" cx="370.18" cy="363.1" rx="5.08" ry="1.37"/></g><g id="microwave"><polygon class="cls-25" points="398.75 249.59 398.75 220.55 436.62 243.34 436.62 272.08 398.75 249.59"/><polygon class="cls-21" points="436.62 243.34 460.33 233.49 460.63 260.61 436.62 272.08 436.62 243.34"/><polygon class="cls-47" points="398.75 220.55 436.62 243.34 460.33 233.49 423.11 210.59 398.75 220.55"/><polyline class="cls-48" points="403.5 218.6 441.45 241.33 441.45 269.77"/><polygon class="cls-49" points="402.16 226.08 402.16 246.97 423.67 259.88 423.67 239.4 402.16 226.08"/><line class="cls-50" x1="417.68" y1="239.29" x2="407.9" y2="244.19"/><line class="cls-50" x1="416.74" y1="242.61" x2="412.91" y2="244.81"/><polygon class="cls-49" points="426.76 241.74 428.79 242.98 428.79 245.71 426.76 244.55 426.76 241.74"/><polygon class="cls-49" points="429.22 243.21 431.25 244.45 431.25 247.18 429.22 246.02 429.22 243.21"/><polygon class="cls-49" points="431.68 244.71 433.71 245.95 433.71 248.68 431.68 247.52 431.68 244.71"/><polygon class="cls-49" points="426.76 245.08 428.79 246.32 428.79 249.04 426.76 247.88 426.76 245.08"/><polygon class="cls-49" points="429.22 246.55 431.25 247.79 431.25 250.51 429.22 249.35 429.22 246.55"/><polygon class="cls-49" points="431.68 248.04 433.71 249.28 433.71 252.01 431.68 250.85 431.68 248.04"/><polygon class="cls-49" points="426.76 248.54 428.79 249.78 428.79 252.51 426.76 251.35 426.76 248.54"/><polygon class="cls-49" points="429.22 250.01 431.25 251.25 431.25 253.98 429.22 252.82 429.22 250.01"/><polygon class="cls-49" points="431.68 251.51 433.71 252.75 433.71 255.48 431.68 254.32 431.68 251.51"/><polygon class="cls-49" points="426.76 251.85 428.79 253.09 428.79 255.82 426.76 254.66 426.76 251.85"/><polygon class="cls-49" points="429.22 253.32 431.25 254.56 431.25 257.29 429.22 256.13 429.22 253.32"/><polygon class="cls-49" points="431.68 254.82 433.71 256.06 433.71 258.79 431.68 257.63 431.68 254.82"/><polygon class="cls-49" points="426.76 257.41 426.76 261.07 433.26 264.9 433.26 261.16 426.76 257.41"/></g></g></svg>