<svg xmlns="http://www.w3.org/2000/svg" viewBox="0 0 60.95 182.69"><defs><style>.cls-1{fill:#fffafc;}.cls-2{fill:#7a7a7a;}.cls-3{fill:#e2e2e2;}.cls-4{fill:#e8e8e8;}.cls-5{fill:#878787;}.cls-6{fill:#d1d1d1;}</style></defs><g id="Layer_2" data-name="Layer 2"><g id="door"><polyline class="cls-1" points="52.67 8.81 6.72 35.2 6.7 178.59 52.68 149.28 52.69 9.17"/><polyline class="cls-2" points="55.56 151.96 52.66 149.34 52.67 8.81 55.56 7.14 55.56 151.96"/><polygon class="cls-3" points="50.99 91.02 50.99 88.84 42.92 93.42 43.46 95.28 50.99 91.02"/><polygon class="cls-2" points="42.98 95 43.46 95.28 42.92 93.42 42.43 93.17 42.98 95"/><polygon class="cls-2" points="50.99 88.84 50.51 88.68 42.43 93.17 42.92 93.42 50.99 88.84"/><polygon class="cls-3" points="50.51 88.68 49.69 88.34 47.7 89.43 48.39 89.86 50.51 88.68"/><polygon class="cls-2" points="47.62 90.28 47.7 89.43 48.39 89.86 47.62 90.28"/><polygon class="cls-4" points="11.35 37.64 44.6 18.72 44.6 86.55 11.35 105.69 11.35 37.64"/><polygon class="cls-4" points="44.19 96.42 11.35 115.19 11.35 128.4 44.6 109.78 44.19 96.42"/><polygon class="cls-4" points="44.19 118.85 11.35 138.12 11.35 160.84 44.19 142.08 44.19 118.85"/><polygon class="cls-2" points="45.76 87.46 44.6 86.55 11.35 105.69 11.35 107.71 45.76 87.46"/><polygon class="cls-2" points="45.76 18.44 44.6 18.72 44.6 86.55 45.76 87.46 45.76 18.44"/><polygon class="cls-2" points="45.76 110.47 44.6 109.78 11.35 128.4 11.35 130.5 45.76 110.47"/><polygon class="cls-2" points="44.19 96.42 45.52 95.94 45.76 110.47 44.6 109.78 44.19 96.42"/><polygon class="cls-2" points="45.76 143.24 44.19 142.08 11.35 160.84 11.35 162.95 45.76 143.24"/><polygon class="cls-2" points="44.19 118.85 45.49 118.06 45.76 143.24 44.19 142.08 44.19 118.85"/><polygon class="cls-5" points="0.3 182.69 0 31.17 6.7 35.27 6.7 180.26 0.3 182.69"/><polygon class="cls-4" points="55.56 151.96 60.49 147.83 60.95 4.04 55.56 7.14 55.56 151.96"/><polygon class="cls-6" points="55.05 0 0 31.17 6.7 35.27 60.95 4.04 55.05 0"/></g></g></svg>