<svg xmlns="http://www.w3.org/2000/svg" viewBox="0 0 61.88 61.49"><defs><style>.cls-1{fill:#3f323a;}.cls-2{fill:#33262d;}.cls-3{fill:#382a32;}.cls-4,.cls-6{fill:none;stroke-miterlimit:10;}.cls-4{stroke:#261d22;stroke-width:0.25px;}.cls-5{fill:#2b1f26;}.cls-6{stroke:#3f323a;stroke-width:0.5px;}</style></defs><g id="Layer_2" data-name="Layer 2"><g id="microwave"><polygon class="cls-1" points="0 38.99 0 9.95 37.86 32.75 37.86 61.49 0 38.99"/><polygon class="cls-2" points="37.86 32.75 61.58 22.89 61.88 50.01 37.86 61.49 37.86 32.75"/><polygon class="cls-3" points="0 9.95 37.86 32.75 61.58 22.89 24.35 0 0 9.95"/><polyline class="cls-4" points="4.75 8.01 42.7 30.74 42.7 59.18"/><polygon class="cls-5" points="3.4 15.49 3.4 36.38 24.91 49.29 24.91 28.8 3.4 15.49"/><line class="cls-6" x1="18.93" y1="28.7" x2="9.15" y2="33.6"/><line class="cls-6" x1="17.99" y1="32.02" x2="14.16" y2="34.22"/><polygon class="cls-5" points="28.01 31.15 30.04 32.39 30.04 35.12 28.01 33.96 28.01 31.15"/><polygon class="cls-5" points="30.47 32.62 32.5 33.86 32.5 36.59 30.47 35.43 30.47 32.62"/><polygon class="cls-5" points="32.93 34.12 34.95 35.35 34.95 38.08 32.93 36.92 32.93 34.12"/><polygon class="cls-5" points="28.01 34.48 30.04 35.72 30.04 38.45 28.01 37.29 28.01 34.48"/><polygon class="cls-5" points="30.47 35.95 32.5 37.19 32.5 39.92 30.47 38.76 30.47 35.95"/><polygon class="cls-5" points="32.93 37.45 34.95 38.69 34.95 41.42 32.93 40.26 32.93 37.45"/><polygon class="cls-5" points="28.01 37.95 30.04 39.19 30.04 41.92 28.01 40.76 28.01 37.95"/><polygon class="cls-5" points="30.47 39.42 32.5 40.66 32.5 43.39 30.47 42.23 30.47 39.42"/><polygon class="cls-5" points="32.93 40.92 34.95 42.16 34.95 44.89 32.93 43.73 32.93 40.92"/><polygon class="cls-5" points="28.01 41.26 30.04 42.5 30.04 45.23 28.01 44.07 28.01 41.26"/><polygon class="cls-5" points="30.47 42.73 32.5 43.97 32.5 46.7 30.47 45.54 30.47 42.73"/><polygon class="cls-5" points="32.93 44.23 34.95 45.47 34.95 48.19 32.93 47.03 32.93 44.23"/><polygon class="cls-5" points="28.01 46.82 28.01 50.48 34.51 54.3 34.51 50.56 28.01 46.82"/></g></g></svg>