<svg xmlns="http://www.w3.org/2000/svg" viewBox="0 0 193.37 190.18"><defs><style>.cls-1{fill:#728fc9;}.cls-2{fill:#3e5dab;}.cls-3{fill:#b1ceec;}.cls-4{fill:#587db7;}.cls-5{fill:#d4e5f3;}.cls-6{fill:#c1dbec;}.cls-7{fill:#e5e5e5;}.cls-8{fill:#fff;}.cls-9{fill:#f0efef;}.cls-10{fill:#231f20;}.cls-11{fill:#c8deed;}</style></defs><g id="Layer_2" data-name="Layer 2"><g id="Layer_4" data-name="Layer 4"><polygon class="cls-1" points="7.16 58.09 7.16 117.77 91.51 63.66 93.1 4.77 7.16 58.09"/><polygon class="cls-2" points="7.16 58.09 0 52.52 0 112.2 7.16 117.77 7.16 58.09"/><polygon class="cls-3" points="0 52.52 86.74 0 93.1 4.77 7.16 58.09 0 52.52"/><polygon class="cls-4" points="7.16 106.63 114.59 179.84 193.37 117.77 91.51 52.52 7.16 106.63"/><polygon class="cls-2" points="7.16 106.63 7.16 117.77 114.59 190.18 114.59 179.84 7.16 106.63"/><polygon class="cls-2" points="193.37 117.77 193.37 128.11 114.59 190.18 114.59 179.84 193.37 117.77"/><polygon class="cls-5" points="11.94 85.42 85.14 40.58 183.02 102.65 115.38 155.97 11.94 85.42"/><polygon class="cls-6" points="11.94 85.42 11.94 102.27 115.38 169.49 115.38 153.58 11.94 85.42"/><polygon class="cls-7" points="22.28 75.81 41.52 87.72 41.52 92.31 22.28 80.39 22.28 75.81"/><polygon class="cls-8" points="22.28 75.81 45.19 62.07 63.52 72.15 41.52 87.72 22.28 75.81"/><polygon class="cls-9" points="41.52 87.72 41.52 92.31 63.52 76.73 63.52 72.15 41.52 87.72"/><polygon class="cls-7" points="54.11 55.7 71.94 66.67 71.94 70.98 53.85 59.78 54.11 55.7"/><polygon class="cls-8" points="54.11 55.7 75.33 42.97 92.31 52.31 71.94 66.74 54.11 55.7"/><polygon class="cls-9" points="71.94 66.74 71.94 70.98 92.31 56.55 92.31 52.31 71.94 66.74"/><polygon class="cls-3" points="37.4 104.24 110.61 53.31 190.18 100.26 116.18 159.15 37.4 104.24"/><polygon class="cls-2" points="37.4 104.24 37.4 121.75 116.18 173.47 116.18 155.97 37.4 104.24"/><polygon class="cls-1" points="116.18 155.97 190.18 100.26 190.18 116.18 116.18 173.47 116.18 155.97"/><path class="cls-6" d="M39.08,100.05q-.93-7.71-1.85-15.42a40.57,40.57,0,0,0,10.49-2.49q2,7.8,3.89,15.59c-2,.18-4.16.46-6.48.89S40.91,99.52,39.08,100.05Z"/><path class="cls-10" d="M40.57,85.45A1.33,1.33,0,0,0,39.5,86a1.12,1.12,0,0,0-.16,1.2,1.09,1.09,0,0,0,1.28.26,1.16,1.16,0,0,0,.71-1.08,1,1,0,0,0-.23-.7.73.73,0,0,0-.68-.23c-.13,0-.07.22,0,.19.41-.08.66.35.66.7a1,1,0,0,1-.52.91,1.07,1.07,0,0,1-.56.09.68.68,0,0,1-.51-.21.87.87,0,0,1,.09-1,1.14,1.14,0,0,1,.94-.51.1.1,0,0,0,0-.2Z"/><path class="cls-10" d="M41.16,85.91A3.19,3.19,0,0,0,43,85.56l-.15-.06A4.14,4.14,0,0,0,43.46,87c.07.11.24,0,.17-.1A4.1,4.1,0,0,1,43,85.44a.1.1,0,0,0-.15-.06,2.89,2.89,0,0,1-1.73.33c-.13,0-.13.18,0,.2Z"/><path class="cls-10" d="M43.59,88.26a4.19,4.19,0,0,0-.34-1.35l-.06.15,1.08-.34.54-.17.25-.08c.06,0,.21-.1.27-.07l-.06-.05a.85.85,0,0,1,.09.32l.1.34.18.68.08-.12a14,14,0,0,0-2.3.73c-.12,0-.07.25,0,.2a14.33,14.33,0,0,1,2.3-.74.1.1,0,0,0,.07-.12l-.27-1a1.16,1.16,0,0,0-.13-.41c-.08-.11-.21,0-.31,0l-2,.62a.1.1,0,0,0-.06.15,3.88,3.88,0,0,1,.3,1.25c0,.13.22.13.21,0Z"/><path class="cls-10" d="M43.31,87.84a6.35,6.35,0,0,0-1.74.16c-.13,0-.07.22,0,.19A6.86,6.86,0,0,1,43.31,88c.13,0,.13-.2,0-.2Z"/><path class="cls-10" d="M41.9,88.93a2.92,2.92,0,0,0-.1-1c0-.11-.06-.28-.2-.3s-.25.1-.35.16a5.48,5.48,0,0,1-1.8.65.11.11,0,0,0-.06.15l.39.75a.85.85,0,0,0,.17.25.32.32,0,0,0,.33,0L41.89,89c.12,0,.07-.24,0-.19l-1.39.5-.16.05a.49.49,0,0,1-.17.06c-.11,0-.16-.2-.2-.28l-.35-.66-.06.15a5.6,5.6,0,0,0,1.54-.52A3.9,3.9,0,0,0,41.4,88s.14-.11.16-.09,0,.13.06.17a3,3,0,0,1,.08.89c0,.13.19.13.2,0Z"/><path class="cls-10" d="M42.19,88.13a5.79,5.79,0,0,0,.52,2.08c0,.11.23,0,.17-.11a5.38,5.38,0,0,1-.48-2c0-.13-.21-.13-.21,0Z"/><path class="cls-10" d="M40.9,92l0-.84a1,1,0,0,1,0-.24c0-.08.08-.08.18-.11l.43-.12,1.74-.48,1.69-.45c.21-.06.26,0,.32.16a2.65,2.65,0,0,0,.12.37,3.68,3.68,0,0,0,.34.69l.06-.15L41.1,92a.1.1,0,0,0,.06.2L45.78,91a.11.11,0,0,0,.06-.15,4.29,4.29,0,0,1-.43-1c0-.17-.07-.36-.28-.39a1,1,0,0,0-.38.08l-.57.15-1,.28-2.07.57c-.2.06-.4.06-.42.29a2.65,2.65,0,0,0,0,.56l0,.56a.1.1,0,0,0,.2,0Z"/><path class="cls-10" d="M42.36,92a3.77,3.77,0,0,0,.21,1.15c0,.12.23.07.19,0a3.75,3.75,0,0,1-.2-1.1c0-.13-.21-.13-.2,0Z"/><path class="cls-10" d="M41.7,93.52c.7-.13,1.4-.28,2.1-.46l-.12-.15a5.76,5.76,0,0,0-.87,1.86l.17,0A10.4,10.4,0,0,1,41.42,93c-.08-.11-.26,0-.18.1a10.5,10.5,0,0,0,1.6,1.73.1.1,0,0,0,.17,0A5.56,5.56,0,0,1,43.86,93c0-.07,0-.16-.12-.14-.69.17-1.39.33-2.1.45-.13,0-.07.22.06.2Z"/><path class="cls-10" d="M46.32,92.79a8.11,8.11,0,0,0,1.21-.06c.06,0,.1,0,.1-.1s0-.11-.1-.1a8.11,8.11,0,0,1-1.21,0c-.13,0-.13.2,0,.21Z"/><path class="cls-10" d="M46.59,93.28l1.25,0c.13,0,.13-.21,0-.2l-1.25,0c-.13,0-.14.21,0,.2Z"/><path class="cls-10" d="M46.69,93.91l2-.06a.1.1,0,0,0,0-.2l-2,0c-.13,0-.13.21,0,.21Z"/><path class="cls-10" d="M46.86,94.24l.63,0a.11.11,0,0,0,.1-.1c0-.06,0-.11-.1-.1h-.63a.12.12,0,0,0-.1.1.11.11,0,0,0,.1.11Z"/><path class="cls-10" d="M46.1,86.38a1.49,1.49,0,0,1,1.62,1.2,2,2,0,0,1-.79,2c-.11.08,0,.22.14.14a2.21,2.21,0,0,0,.83-2.23,1.68,1.68,0,0,0-1.8-1.29c-.13,0-.13.22,0,.2Z"/><path class="cls-10" d="M46.41,89.19c0,.35,0,.7,0,1,0,.07.06.12.13.1a6.35,6.35,0,0,1,1.06-.18.11.11,0,0,0,.1-.11.1.1,0,0,0-.1-.1,8.3,8.3,0,0,0-1.11.19l.13.1c0-.34,0-.69,0-1a.11.11,0,0,0-.21,0Z"/><path class="cls-10" d="M43.53,95.63a4.65,4.65,0,0,1-2-.17,3,3,0,0,1-1.36-1.06,5.3,5.3,0,0,1-.74-1.51,3.42,3.42,0,0,1-.21-2,.1.1,0,0,0-.19,0A3.62,3.62,0,0,0,39.2,93,5.42,5.42,0,0,0,40,94.56a3.26,3.26,0,0,0,1.28,1,4.72,4.72,0,0,0,2.24.24c.13,0,.13-.22,0-.21Z"/><path class="cls-10" d="M39,90.38a2.34,2.34,0,0,0,.74-.12l-.13-.1a3.66,3.66,0,0,0,.08.87.1.1,0,0,0,.12.07.1.1,0,0,0,.07-.13,3.64,3.64,0,0,1-.07-.81.11.11,0,0,0-.13-.1,2,2,0,0,1-.68.12.1.1,0,1,0,0,.2Z"/><path class="cls-11" d="M62,108.68l-15.63-5.39,5.38-12.66L68.63,97.7S62.87,102.22,62,108.68Z"/><path class="cls-10" d="M52.07,102.36a8.32,8.32,0,0,1-2.49-.69l.05.09a7.78,7.78,0,0,1,.69-2.46l-.14,0a14.13,14.13,0,0,0,2.52.86l-.06-.15a11.76,11.76,0,0,0-.76,2.08.1.1,0,0,0,.2.05,10.41,10.41,0,0,1,.74-2c0-.06,0-.14-.06-.15a14.13,14.13,0,0,1-2.47-.85s-.12,0-.14,0a7.89,7.89,0,0,0-.72,2.56s0,.07,0,.09a8.59,8.59,0,0,0,2.59.71c.13,0,.12-.19,0-.2Z"/><path class="cls-10" d="M53.71,97.48a8,8,0,0,1-1.93-.82l0,.14a9.36,9.36,0,0,0,1.1-2.16c0-.07,0-.24.13-.26s.23.15.29.18.36.22.55.32c.39.22.79.42,1.2.61l0-.14a15.68,15.68,0,0,0-1.35,2.91c-.05.12.15.17.19,0a16.18,16.18,0,0,1,1.34-2.86.11.11,0,0,0,0-.14,13.88,13.88,0,0,1-1.33-.68c-.22-.12-.43-.25-.64-.38s-.25-.14-.36,0a1.69,1.69,0,0,0-.21.54,6.54,6.54,0,0,1-.28.66,8.78,8.78,0,0,1-.73,1.26.11.11,0,0,0,0,.14,8,8,0,0,0,2,.84.1.1,0,0,0,.06-.2Z"/><path class="cls-10" d="M55.62,103.36,54.51,103l-.57-.2c-.11,0-.24-.07-.19-.22s.07-.18.1-.27l.85-2.24-.15.06,2.23,1-.05-.11a16.23,16.23,0,0,1-.81,2.14c-.06.12.11.22.17.1a16.5,16.5,0,0,0,.84-2.19.1.1,0,0,0,0-.11l-2.22-1a.1.1,0,0,0-.15.06l-.49,1.3-.25.63a4.88,4.88,0,0,0-.23.64c-.08.38.44.45.7.54l1.32.46c.13,0,.18-.16.06-.2Z"/><path class="cls-10" d="M57.94,98.83a9.94,9.94,0,0,1-2.5-.72l.05.12,1-3.08-.15.06,2.51,1.09.14.06c.07,0,.07,0,0,.1s-.1.21-.14.31l-.29.62L58,98.67c-.06.12.12.22.17.1l.67-1.45.31-.69c.06-.12.16-.27,0-.38s-.17-.09-.25-.13L58.63,96l-.72-.32L56.47,95c-.07,0-.13,0-.15.06l-1,3.07a.11.11,0,0,0,.05.12,10.67,10.67,0,0,0,2.55.74c.12,0,.18-.18,0-.2Z"/><path class="cls-10" d="M59.71,104.6a6.47,6.47,0,0,1-1.94-.71l0,.14c.36-.79.68-1.59,1-2.4l-.13.07c.81.2,1.62.42,2.42.66l-.07-.12L60.27,104c0,.12.15.17.2,0l.71-1.78c0-.05,0-.11-.07-.12-.8-.24-1.6-.46-2.42-.67a.11.11,0,0,0-.12.07c-.28.8-.59,1.59-.94,2.36,0,0,0,.11,0,.13a6.89,6.89,0,0,0,2,.74c.13,0,.18-.17.05-.2Z"/><path class="cls-10" d="M62.33,99.36l-1-.29-.51-.15-.26-.07s-.22,0-.24-.08.07-.14.09-.18.07-.15.1-.23.13-.28.19-.42A8,8,0,0,0,61,97l-.12.07,2.26.52-.07-.13c-.19.7-.4,1.38-.63,2.07-.05.12.15.18.19,0,.23-.68.44-1.37.64-2.07a.1.1,0,0,0-.07-.12L61,96.87a.1.1,0,0,0-.12.07A8,8,0,0,1,60.45,98c-.07.17-.15.34-.23.5s-.17.25-.09.37.28.14.4.17l.58.17,1.17.34a.1.1,0,0,0,0-.2Z"/><path class="cls-10" d="M50.45,101.32a4.54,4.54,0,0,1-.14-1.1l-.18.07c.15.18.29.37.43.57a.1.1,0,0,0,.18,0l.11-.28-.13.07c.08,0,.13.12.18.19a.87.87,0,0,0,.21.22.31.31,0,0,0,.46-.13c0-.12-.15-.18-.2-.05s-.07,0-.1,0a.26.26,0,0,1-.15-.12c-.11-.13-.18-.27-.34-.34a.11.11,0,0,0-.13.07l-.1.29.18,0a5.65,5.65,0,0,0-.45-.61.11.11,0,0,0-.18.07,5.07,5.07,0,0,0,.16,1.16.1.1,0,0,0,.19-.06Z"/><path class="cls-10" d="M53,96.51a.55.55,0,0,1,0-.36l-.07.07s0,0,0,.08a.3.3,0,0,0,0,.08l.1.24.21.45.41.9c0,.1.19,0,.19,0a8.1,8.1,0,0,0-.2-2l-.15.12a.25.25,0,0,0,.35-.15c0-.07.05-.16.12-.21a.23.23,0,0,1,.24,0c.13,0,.18-.16.06-.2a.43.43,0,0,0-.4,0,.4.4,0,0,0-.14.15s-.07.25-.13.21a.1.1,0,0,0-.15.12,8.06,8.06,0,0,1,.2,2l.19,0-.49-1.07-.24-.52c-.06-.13-.11-.28-.28-.25s-.06,0-.07.07a.73.73,0,0,0,.07.52c.06.11.23,0,.17-.11Z"/><path class="cls-10" d="M57.59,97.32,57.26,97a.11.11,0,0,0-.16,0,1,1,0,0,0-.15.48.87.87,0,0,1-.16.45L57,98c-.16-.21-.31-.43-.45-.65a.11.11,0,0,0-.19,0l-.14.37a.1.1,0,0,0,.07.12.11.11,0,0,0,.13-.07l.14-.36-.19,0a7.49,7.49,0,0,0,.45.65s.11.08.16,0a.83.83,0,0,0,.2-.48,1.17,1.17,0,0,1,.15-.49l-.16,0,.33.32c.09.09.23,0,.14-.15Z"/><path class="cls-10" d="M54.8,102.66l.16-.16a.46.46,0,0,0,.07-.07s0,0,0,0h0l0,0c.11.12.23.06.34,0a4.12,4.12,0,0,0,.61-.57c.09-.1-.06-.24-.14-.15a4.68,4.68,0,0,1-.61.57l-.06,0s0,0,0,0l0,0a.17.17,0,0,0-.16-.06.33.33,0,0,0-.17.12l-.16.17c-.1.09.05.24.14.14Z"/><path class="cls-10" d="M60.07,102.86a4.35,4.35,0,0,1-.38-.36.1.1,0,0,0-.17.07l-.07.74a.17.17,0,0,1,0,.07s0,0,0,0a.31.31,0,0,1-.13-.06,1.24,1.24,0,0,0-.23-.17.31.31,0,0,0-.46.18c-.08.23-.13.48-.19.71l.12-.07-.11,0c-.13,0-.18.16-.06.2l.12,0a.09.09,0,0,0,.12-.07l.1-.35a3.58,3.58,0,0,1,.09-.35c.08-.22.35.08.45.13a.31.31,0,0,0,.28,0c.09,0,.1-.15.11-.25l.07-.75-.18.07a4.27,4.27,0,0,0,.38.36c.1.08.24-.06.15-.14Z"/><path class="cls-10" d="M61.86,98.5l-.14-.2a.55.55,0,0,0-.13-.17c-.11-.09-.23,0-.29.09a.83.83,0,0,0,.14.81.09.09,0,0,0,.11,0,3.66,3.66,0,0,0,1-.59l.44-.35.24-.19s.21-.2.26-.16.21-.11.1-.18-.36.08-.49.18l-.51.41a4.17,4.17,0,0,1-1.1.69l.11,0a.89.89,0,0,1-.16-.48s0-.12,0-.13v0l.05.07.16.25c.07.1.25,0,.18-.11Z"/><path class="cls-5" d="M63.81,105.42,52.74,93.14A19.79,19.79,0,0,0,57.25,91a20.28,20.28,0,0,0,5-4.51L74.92,99c-2.12,1.13-4.28,2.33-6.48,3.62Q66.05,104,63.81,105.42Z"/><path class="cls-10" d="M72,98.48a5.09,5.09,0,0,0-2.71,1.58c-.08.11.1.21.17.1a4.9,4.9,0,0,1,2.6-1.48.1.1,0,0,0-.06-.2Z"/><path class="cls-10" d="M70.42,97.29a2.11,2.11,0,0,0-1.53.56,6,6,0,0,0-.57.66,1.36,1.36,0,0,1-.85.48,3,3,0,0,0-1.42.87A6,6,0,0,1,64.13,101c-.12,0-.07.24.05.19a6,6,0,0,0,1.66-.89c.51-.38.93-1,1.57-1.09a1.57,1.57,0,0,0,.76-.26,2.35,2.35,0,0,0,.5-.54,2.08,2.08,0,0,1,1.75-.91.1.1,0,0,0,0-.2Z"/><path class="cls-10" d="M69.49,96.26c-.63.26-1.23.56-1.84.87s-1.29.61-1.91,1a2.14,2.14,0,0,0-.59.49c-.19.23-.28.55-.54.72s-.87.22-1.15.62c-.07.1.1.21.18.1.27-.38.82-.34,1.17-.62a1.91,1.91,0,0,0,.39-.54,1.88,1.88,0,0,1,.73-.64c.56-.32,1.15-.58,1.72-.87s1.25-.64,1.89-.9c.12,0,.07-.25-.05-.2Z"/><path class="cls-10" d="M65.31,94.7a4.34,4.34,0,0,0-.87-.66l-.5-.28-.27-.15a.45.45,0,0,1-.12-.06l-.06,0a.16.16,0,0,1,.06-.13A5,5,0,0,1,64,92.9c.14-.17.29-.33.44-.49.3-.34.61-.67.92-1l-.16,0c.26.36.54.72.83,1.06l.47.54.23.25c.07.07.21.16.14.26a3.57,3.57,0,0,1-.5.45l-.54.46c-.38.31-.77.6-1.17.88-.1.08,0,.25.1.18.42-.29.82-.6,1.21-.92.22-.17.42-.35.63-.53a2.79,2.79,0,0,0,.5-.47c.09-.16,0-.27-.15-.38s-.36-.38-.53-.58c-.37-.42-.72-.85-1-1.3a.11.11,0,0,0-.16,0l-1,1.15-.49.55c-.12.14-.35.32-.4.5s.08.21.19.26l.59.33a4.72,4.72,0,0,1,1.13.8.1.1,0,0,0,.14-.15Z"/><path class="cls-10" d="M59.29,95.78a6.71,6.71,0,0,1-1.68-1.64v.12c.5-.48,1-1,1.55-1.4H59l1.79,2v-.14a17,17,0,0,1-1.53,1.41c-.1.08,0,.22.15.14a18.39,18.39,0,0,0,1.52-1.41.1.1,0,0,0,0-.14l-1.79-2a.09.09,0,0,0-.14,0c-.53.45-1,.91-1.56,1.4a.09.09,0,0,0,0,.12A7.15,7.15,0,0,0,59.19,96c.11.07.21-.11.1-.18Z"/><path class="cls-10" d="M63.69,91.73a1.37,1.37,0,0,0-.75,0c-.27.06-.54.12-.81.2a1.88,1.88,0,0,0-1.1.58c-.07.11.1.21.18.11a1.75,1.75,0,0,1,1-.51L62.9,92a1.51,1.51,0,0,1,.73,0,.1.1,0,0,0,.06-.19Z"/><path class="cls-10" d="M61.4,93l-.41.12-.31.08a.28.28,0,0,1-.23,0s0,0,0,0a.18.18,0,0,1,.05-.08l.09-.14a4.14,4.14,0,0,1,1-1c.11-.07,0-.25-.1-.17a4.66,4.66,0,0,0-.94.89l-.18.26c-.06.09-.14.18-.1.29s.29.23.46.21l.34-.08.41-.12a.1.1,0,0,0-.05-.2Z"/><path class="cls-10" d="M60.59,96.75a4.22,4.22,0,0,1,1-.78.1.1,0,0,0-.1-.18,4.45,4.45,0,0,0-1.1.82c-.09.09.05.23.15.14Z"/><path class="cls-10" d="M61,97l1.23-.6c.12,0,0-.23-.1-.17l-1.23.59c-.12.06,0,.24.1.18Z"/><path class="cls-10" d="M61.57,97.62l.64-.26a.11.11,0,0,0,.07-.13.09.09,0,0,0-.12-.07l-.64.26a.11.11,0,0,0-.07.13.1.1,0,0,0,.12.07Z"/><path class="cls-10" d="M57.94,91.28a16.32,16.32,0,0,0,1.49-1.14c.1-.08,0-.22-.15-.14a14.26,14.26,0,0,1-1.45,1.11c-.1.07,0,.25.11.17Z"/></g></g></svg>