<svg xmlns="http://www.w3.org/2000/svg" viewBox="0 0 35.67 22.5"><defs><style>.cls-1{fill:#494949;}.cls-2{fill:#fff0f6;}.cls-3{fill:#ddc7d0;}.cls-4{fill:#ffc7db;}.cls-5{fill:#fff;}.cls-6{fill:none;stroke:#33262d;stroke-miterlimit:10;stroke-width:1.1px;}</style></defs><g id="Layer_2" data-name="Layer 2"><g id="chair"><polygon class="cls-1" points="18.32 7.64 12.11 15.97 19.68 18.5 25.02 8.98 18.32 7.64"/><polygon class="cls-2" points="25.02 8.98 25.02 9.83 19.67 19.29 19.68 18.5 25.02 8.98"/><polygon class="cls-3" points="12.11 15.97 12.11 16.67 19.67 19.29 19.68 18.5 12.11 15.97"/><polygon class="cls-4" points="18.45 7.95 12.5 15.88 19.53 18.19 24.63 9.17 18.45 7.95"/><path class="cls-5" d="M18.51,10a.44.44,0,0,1,.42-.27h0a.25.25,0,0,1-.11-.35.5.5,0,0,1,.59-.25c.26,0,.39.24.31.45a.39.39,0,0,1-.35.25h0a.29.29,0,0,1,.15.4.53.53,0,0,1-.65.26C18.57,10.37,18.43,10.16,18.51,10Zm.79.17c.06-.14,0-.27-.19-.31a.34.34,0,0,0-.38.18c-.05.13,0,.24.2.29A.3.3,0,0,0,19.3,10.12Zm.2-.63c.05-.12,0-.23-.16-.26a.27.27,0,0,0-.32.16c-.05.12,0,.23.16.26A.27.27,0,0,0,19.5,9.49Z"/><path class="cls-5" d="M20,9.62a.17.17,0,0,1,.19-.1.11.11,0,0,1,.08.16.16.16,0,0,1-.18.1A.12.12,0,0,1,20,9.62Zm-.27.68a.17.17,0,0,1,.19-.1.12.12,0,0,1,.09.16.16.16,0,0,1-.19.1A.11.11,0,0,1,19.72,10.3Z"/><path class="cls-5" d="M20.67,10.86l-.21,0,.46-1.18h0l-.42.14.08-.2L21,9.42l.21.05Z"/><path class="cls-5" d="M21.19,10.59l.21,0a.2.2,0,0,0,.17.27.33.33,0,0,0,.39-.23.24.24,0,0,0-.17-.36.45.45,0,0,0-.26,0l-.19-.07.36-.69.77.17-.07.18-.6-.13-.2.39h0a.49.49,0,0,1,.3,0,.4.4,0,0,1,.26.58.57.57,0,0,1-.67.36A.37.37,0,0,1,21.19,10.59Z"/></g><g id="Layer_30" data-name="Layer 30"><path class="cls-6" d="M28.26,5.16S32.2,7.42,29.56,11"/><path class="cls-6" d="M29.19,3.41s6.2,3.54,2,9.23"/><path class="cls-6" d="M29.74.48S39.33,6,32.9,14.77"/><path class="cls-6" d="M6.81,17.71s-3.51-2.89-.29-6"/><path class="cls-6" d="M5.59,19.28S.08,14.75,5.13,9.84"/><path class="cls-6" d="M4.56,22.08s-8.53-7-.71-14.62"/></g></g></svg>