<svg xmlns="http://www.w3.org/2000/svg" viewBox="0 0 35.67 22.5"><defs><style>.cls-1{fill:#494949;}.cls-2{fill:#fff0f6;}.cls-3{fill:#ddc7d0;}.cls-4{fill:none;stroke:#33262d;stroke-miterlimit:10;stroke-width:1.1px;opacity:0;}</style></defs><g id="Layer_2" data-name="Layer 2"><g id="chair"><polygon class="cls-1" points="18.32 7.64 12.11 15.97 19.68 18.5 25.02 8.98 18.32 7.64"/><polygon class="cls-2" points="25.02 8.98 25.02 9.83 19.67 19.29 19.68 18.5 25.02 8.98"/><polygon class="cls-3" points="12.11 15.97 12.11 16.67 19.67 19.29 19.68 18.5 12.11 15.97"/></g><g id="Layer_30" data-name="Layer 30"><path class="cls-4" d="M28.26,5.16S32.2,7.42,29.56,11"/><path class="cls-4" d="M29.19,3.41s6.2,3.54,2,9.23"/><path class="cls-4" d="M29.74.48S39.33,6,32.9,14.77"/><path class="cls-4" d="M6.81,17.71s-3.51-2.89-.29-6"/><path class="cls-4" d="M5.59,19.28S.08,14.75,5.13,9.84"/><path class="cls-4" d="M4.56,22.08s-8.53-7-.71-14.62"/></g></g></svg>