<svg xmlns="http://www.w3.org/2000/svg" viewBox="0 0 35.67 22.5"><defs><style>.cls-1{fill:#494949;}.cls-2{fill:#fff0f6;}.cls-3{fill:#ddc7d0;}.cls-4{fill:#ffc7db;}.cls-5{fill:#fff;}.cls-6{fill:none;stroke:#33262d;stroke-miterlimit:10;stroke-width:1.1px;}</style></defs><g id="Layer_2" data-name="Layer 2"><g id="phone_on" data-name="phone on"><polygon class="cls-1" points="18.05 5.76 11.84 14.09 19.41 16.62 24.75 7.11 18.05 5.76"/><polygon class="cls-2" points="24.75 7.11 24.75 7.95 19.4 17.41 19.41 16.62 24.75 7.11"/><polygon class="cls-3" points="11.84 14.09 11.84 14.79 19.4 17.41 19.41 16.62 11.84 14.09"/><polygon class="cls-4" points="18.19 6.07 12.24 14 19.27 16.31 24.36 7.29 18.19 6.07"/><path class="cls-5" d="M18.25,8.07a.42.42,0,0,1,.41-.27h0a.25.25,0,0,1-.12-.34.49.49,0,0,1,.59-.26c.26,0,.39.25.31.45a.39.39,0,0,1-.35.25h0a.32.32,0,0,1,.15.41.54.54,0,0,1-.65.25C18.3,8.49,18.16,8.29,18.25,8.07Zm.79.17a.22.22,0,0,0-.19-.3.31.31,0,0,0-.38.17c-.06.13,0,.25.19.29A.31.31,0,0,0,19,8.24Zm.2-.63a.19.19,0,0,0-.16-.26.27.27,0,0,0-.33.16.19.19,0,0,0,.16.26A.27.27,0,0,0,19.24,7.61Z"/><path class="cls-5" d="M19.72,7.74a.17.17,0,0,1,.19-.1A.11.11,0,0,1,20,7.8a.17.17,0,0,1-.19.1A.11.11,0,0,1,19.72,7.74Zm-.26.68a.16.16,0,0,1,.19-.1.12.12,0,0,1,.08.17.18.18,0,0,1-.19.1A.13.13,0,0,1,19.46,8.42Z"/><path class="cls-5" d="M20.41,9l-.21-.05.45-1.17h0l-.42.15.07-.2.44-.15.21,0Z"/><path class="cls-5" d="M20.92,8.71l.21,0A.2.2,0,0,0,21.3,9a.35.35,0,0,0,.4-.22.26.26,0,0,0-.18-.37.39.39,0,0,0-.26,0l-.18-.08.35-.69.77.17L22.13,8l-.59-.13-.2.39h0a.46.46,0,0,1,.29,0,.39.39,0,0,1,.26.58.56.56,0,0,1-.67.36A.38.38,0,0,1,20.92,8.71Z"/><path class="cls-6" d="M28.26,5.16S32.2,7.42,29.56,11"/><path class="cls-6" d="M29.19,3.41s6.2,3.54,2,9.23"/><path class="cls-6" d="M29.74.48S39.33,6,32.9,14.77"/><path class="cls-6" d="M6.81,17.71s-3.51-2.89-.29-6"/><path class="cls-6" d="M5.59,19.28S.08,14.75,5.13,9.84"/><path class="cls-6" d="M4.56,22.08s-8.53-7-.71-14.62"/></g></g></svg>